<svg id="Capa_1" enable-background="new 0 0 510.024 510.024" height="512" viewBox="0 0 510.024 510.024" width="512" xmlns="http://www.w3.org/2000/svg"><g><g><g><g><path d="m150.019 300.102c-12.426 0-22.5 10.073-22.5 22.5v22.423l45-.018v-22.404c0-12.427-10.074-22.501-22.5-22.501z" fill="#e8ab4c"/></g><g><path d="m360.003 300.102c-12.426 0-22.5 10.073-22.5 22.5v22.423l45-.018v-22.404c0-12.427-10.074-22.501-22.5-22.501z" fill="#e8ab4c"/></g><g><path d="m360.003 323.564v-22.423c0-.348.011-.694.026-1.039-12.435-.018-22.527 10.065-22.526 22.499v22.423l45-.018v-21.452z" fill="#e46a4a"/></g><g><path d="m150.019 323.564v-22.423c0-.348.011-.694.026-1.039-12.435-.018-22.527 10.065-22.526 22.499v22.423l45-.018v-21.452z" fill="#e46a4a"/></g><g><path d="m112.511 45.007h75.021v30.016h-75.021z" fill="#a7eed4"/></g><g><path d="m217.502 45.007h75.021v30.016h-75.021z" fill="#a7eed4"/></g><g><path d="m322.492 45.007h75.021v30.016h-75.021z" fill="#a7eed4"/></g><g><path d="m292.532 30.006h29.992v59.936h-29.992z" fill="#58575b"/></g><g><path d="m397.539 30.006h29.992v59.936h-29.992z" fill="#58575b"/></g><g><path d="m427.537 45.007v30.015h29.979v375.011h30v-405.026z" fill="#a7eed4"/></g><g><path d="m82.49 45.007v30.015h-29.979v375.011h-30v-405.026z" fill="#a7eed4"/></g><g><path d="m22.511 427.82h29.992v22.213h-29.992z" fill="#71e4bf"/></g><g><path d="m457.527 427.82h29.992v22.213h-29.992z" fill="#71e4bf"/></g><g><path d="m7.5 450.033h495.024v29.984h-495.024z" fill="#f7e0ba"/></g><g><path d="m7.5 450.033h22.309v29.984h-22.309z" fill="#f0b582"/></g><g><path d="m344.925 75.004-22.406.025v-30.004h22.406z" fill="#71e4bf"/></g><g><path d="m449.975 75.004-22.406.025v-30.004h22.406z" fill="#71e4bf"/></g><g><path d="m134.917 75.004-22.406.025v-30.004h22.406z" fill="#71e4bf"/></g><g><path d="m239.908 75.004-22.406.025v-30.004h22.406z" fill="#71e4bf"/></g><g><path d="m412.541 375.01-104.977.026v-30.004l29.394-.007 75.583-.018z" fill="#f35173"/></g><g><path d="m202.508 375.01-104.978.026v-30.004l29.394-.007 75.584-.018z" fill="#f35173"/></g><g><path d="m119.936 375.01-22.406.026v-30.004l6.274-.007 16.132-.018z" fill="#ec1646"/></g><g><path d="m329.934 375.01-22.406.026v-30.004l6.274-.007 16.132-.018z" fill="#ec1646"/></g><g><path d="m292.532 67.73h29.992v22.213h-29.992z" fill="#48474a"/></g><g><path d="m397.539 67.73h29.992v22.213h-29.992z" fill="#48474a"/></g><g><path d="m82.519 30.006h29.992v59.936h-29.992z" fill="#58575b"/></g><g><path d="m82.519 67.73h29.992v22.213h-29.992z" fill="#48474a"/></g><g><path d="m187.526 30.006h29.992v59.936h-29.992z" fill="#58575b"/></g><g><path d="m187.512 67.73h29.992v22.213h-29.992z" fill="#48474a"/></g></g></g><g><path d="m495.016 442.533v-405.026h-59.979v-15h-44.992v15h-60.021v-15h-44.992v15h-60.008v-15h-44.992v15h-60.021v-15h-44.992v15h-60.011v405.026h-15.008v44.984h420.021v-15h-405.021v-14.984h480.024v14.984h-30.002v15h45.002v-44.984zm-15-390.026v390.026h-15v-375.011h-29.979v-15.015zm-74.971-15h14.992v44.936h-14.992zm-15.013 300.005v-14.91c0-16.542-13.458-30-30-30s-30 13.458-30 30v14.924l-14.968.004v-240.087h14.96v-14.92h60.021v14.92h14.996v240.066zm-74.968 15.018 89.977-.021v15.003l-89.977.022zm59.968-15.014-30 .007c.045-12.827-2.668-28.603 15-29.921 17.67 1.319 14.955 17.098 15 29.914zm15.013-285.009v15.016h-60.021v-15.016zm-90.013-15h14.992v44.936h-14.992zm-15 15v15.016h-60.008v-15.016zm-90-15h14.992v44.936h-14.992zm-15.013 300.005v-14.91c0-16.542-13.458-30-30-30s-30 13.458-30 30v14.924l-14.968.004v-240.087h14.96v-14.92h60.021v14.92h14.996v240.066zm-15 .004-30 .007c.045-12.827-2.668-28.603 15-29.921 17.669 1.319 14.955 17.098 15 29.914zm15.013-285.009v15.016h-60.021v-15.016zm-90.013-15h14.992v44.936h-14.992zm-60.011 15h45.011v15.016h-30.019v59.974h15v-44.975h15.019v14.92h15.032v285.095l29.973-.008-.004-15-14.969.004v-15.003l89.977-.021v15.003l-60.008.015.004 15 75.004-.019c0-25.082 0-253.911 0-285.065h14.996v-14.92h60.008v14.92h15.032v285.095l119.977-.03c0-25.082 0-253.911 0-285.065h14.996v-14.92h14.979v360.011h-390.016v-300.038h-15v300.037h-14.992z"/><path d="m435.021 472.517h15v15h-15z"/></g></g></svg>