<svg id="Capa_1" enable-background="new 0 0 510.67 510.67" height="512" viewBox="0 0 510.67 510.67" width="512" xmlns="http://www.w3.org/2000/svg"><g><g><g><g><path d="m7.596 412.798v-67.524l119.956-187.462h104.947v254.986z" fill="#faef93"/></g><g><path d="m30.021 389.82v-39.855l122.958-192.153h-25.427l-119.956 187.462v67.524h22.425 202.478v-22.978z" fill="#e8ab4c"/></g><g><path d="m107.768 189.802-19.583 29.968h83.347v-29.968z" fill="#a7eed4"/></g><g><path d="m107.768 189.802-19.583 29.968h23.491l19.583-29.968z" fill="#71e4bf"/></g><g><path d="m172.528 112.823v-44.99h-44.976v89.979h104.947v-44.989z" fill="#a4d7f5"/></g><g><path d="m149.632 135.732v-67.899h-22.08v89.979h104.947v-22.08z" fill="#73c1ef"/></g><g><path d="m68.996 249.759-19.177 29.968h121.713v-29.968z" fill="#e8ab4c"/></g><g><path d="m68.996 249.759-19.177 29.968h25.202l19.177-29.968z" fill="#e46a4a"/></g><g><path d="m30.63 309.924-19.177 29.969h160.079v-29.969z" fill="#e5ecf5"/></g><g><path d="m30.63 309.924-19.177 29.968h25.068l19.176-29.968z" fill="#cad8eb"/></g><g><path d="m487.26 367.705c-10.166 0-19.867-4.256-26.751-11.736l-168.439-183.867c-8.341-9.105-20.122-14.29-32.471-14.29h-27.1v90.107h37.738c4.654 0 9.107 1.899 12.328 5.259l133.253 143.148c10.089 10.523 24.036 16.472 38.615 16.472h48.738v-45.093z" fill="#f35173"/></g><g><path d="m465.165 389.656c-14.578 0-28.525-5.949-38.615-16.473l-133.252-143.148c-3.221-3.359-7.674-5.259-12.328-5.259h-26.949v-66.964h-21.522v90.107h37.738c4.654 0 9.107 1.899 12.328 5.259l133.253 143.148c10.089 10.523 24.036 16.472 38.615 16.472h48.738c0-4.59 0-18.792 0-23.143h-38.006z" fill="#ec1646"/></g><g><g><g><path d="m271.479 195.754h15v15h-15z" fill="#fff" transform="matrix(.736 -.677 .677 .736 -63.937 242.626)"/></g><g><path d="m291.795 217.828h15v15h-15z" fill="#fff" transform="matrix(.736 -.677 .677 .736 -73.519 262.207)"/></g></g></g><g><path d="m30.021 360.588h15v15h-15z" fill="#fff"/></g><g><path d="m60.021 360.588h15v15h-15z" fill="#fff"/></g><g><path d="m7.5 412.853h495.67v29.984h-495.67z" fill="#f7e0ba"/></g><g><path d="m7.5 412.853h22.521v29.984h-22.521z" fill="#f0b582"/></g></g></g><g><path d="m510.67 360.205c-15.732-.357-34.082 3.067-45.723-10.491 0 .001-82.592-89.741-82.592-89.741l-11.037 10.158 82.592 89.741c10.498 11.793 26.333 16.402 41.761 15.332v30.093h-41.238c-12.452 0-24.538-5.147-33.165-14.125l-133.213-143.104c-4.614-4.858-11.118-7.649-17.817-7.648h-30.239v-75.106c15.436.246 33.117-2.766 44.499 10.483 0-.001 75.696 82.434 75.696 82.434l11.049-10.145-75.702-82.441c-15.068-16.961-34.938-15.688-55.542-15.331v-44.99h-59.971v-44.991h-59.976v44.968h15v-29.968h29.976v44.989h59.971v29.99h-89.947v-30.012h-15v35.317l-119.956 187.463-.096 107.257h420.021v-15h-405.021v-14.984h480.024v14.984h-30.002v15h45.649v-90.132zm-495.574-12.736h164.936v-47.254h-134.698l9.592-14.989h125.107v-44.968h-96.333l9.591-14.988h86.741v-44.969h-57.966l9.591-14.988h93.342v239.985h-209.903zm11.062-17.286 9.578-14.968h129.297v14.968zm38.366-59.957 9.578-14.968h90.931v14.968zm38.365-59.956 9.578-14.969h52.564v14.969zm137.11 45.149h30.239c2.581 0 5.085 1.062 6.88 2.915 0 0 135.909 145.779 137.34 147.019h-174.459z"/><path d="m435.021 435.337h15v15h-15z"/></g></g></svg>