<svg id="Capa_1" enable-background="new 0 0 509.737 509.737" height="512" viewBox="0 0 509.737 509.737" width="512" xmlns="http://www.w3.org/2000/svg"><g><g><g><g><path d="m458.992 312.984c-11.059-12.305-12.154-29.428 0-41.992 52.746 6.042 60.507-70.516 6.481-74.709-7.686 0-15 2.806-15 2.806-15.984 6.167-25.743 24.631-22.774 40.61-11.596 11.596-30.396 11.596-41.992 0l-37.586-37.586-37.562 37.562c-11.612 11.612-11.612 30.44 0 42.052 35.594-6.123 58.657 39.523 31.662 64.524-25.622 24.646-69.035 1.172-62.956-33.231-11.612-11.612-30.44-11.612-42.052 0l-37.562 37.562 148.458 148.458 148.47-148.47z" fill="#a4d7f5"/></g><g><g><path d="m348.039 464.316-131.061-131.062-17.328 17.328 148.459 148.458 148.47-148.47-17.397-17.397z" fill="#73c1ef"/></g></g><g><path d="m315.276 111.46c-.69-35.556-47.989-49.641-68.015-21.022-16.61.328-30.184-14.484-29.793-29.81 0-1.04 0-53.038 0-53.038h-209.968v209.952h53.041c16.466 0 29.815 13.349 29.815 29.815-28.624 20.034-14.525 67.329 21.023 68.014 36.76 1.406 52.736-47.178 23.233-68.014 0-16.466 13.349-29.815 29.815-29.815h53.041v-53.055c0-16.455 13.339-29.794 29.794-29.794 20.845 29.509 69.421 13.521 68.014-23.233z" fill="#faef93"/></g><g><g><path d="m111.259 292.369c-7.084-.158-12.889-5.817-13.351-12.888-.78-11.923 3.839-24.17 15.204-32.125-1.036-27.19-24.683-53.482-45.325-52.814 0-.001-37.532-.001-37.532-.001v-186.951h-22.755v209.952c12.787-.003 40.094.002 53.041 0 16.466 0 29.815 13.349 29.815 29.815-34.158 25.305-6.467 78.755 33.57 66.413-.002-.001-.005-.002-.007-.003 20.105-6.226 30.382-29.147 24.271-48.154-7.543 31.349-36.891 26.757-36.931 26.756z" fill="#e8ab4c"/></g><g><path d="m134.612 224.358c2.23 1.575 4.196 3.311 5.917 5.169 5.437-7.275 14.117-11.985 23.898-11.985h53.041v-22.999h-53.041c-16.467 0-29.815 13.348-29.815 29.815z" fill="#e8ab4c"/></g><g><path d="m315.276 111.46c-.071-3.681-.649-7.129-1.638-10.326-8.584 27.347-48.118 36.408-66.377 10.561-16.455 0-29.794 13.339-29.794 29.794v22.999c0-16.455 13.339-29.794 29.794-29.794 20.846 29.508 69.422 13.52 68.015-23.234z" fill="#e8ab4c"/></g></g><g><g><g><path d="m236.995 342.625h15v15h-15z" fill="#fff" transform="matrix(.707 -.707 .707 .707 -175.965 275.433)"/></g><g><path d="m258.208 363.839h15v15h-15z" fill="#fff" transform="matrix(.707 -.707 .707 .707 -184.75 296.636)"/></g></g></g><g><path d="m30.16 30.047h15v15h-15z" fill="#fff"/></g><g><path d="m30.16 60.047h15v15h-15z" fill="#fff"/></g></g></g><g><path d="m348.109 488.434-137.852-137.852 32.259-32.259c7.419-7.71 20.402-8.666 28.874-2.212-3.093 40.097 46.982 63.47 75.981 35.592 30.58-28.726 8.062-80.453-33.717-77.846-6.458-8.472-5.503-21.456 2.209-28.878 0 0 32.258-32.259 32.258-32.259l32.283 32.283c15.536 15.696 41.158 13.947 55.297-2.697-3.733-14.523 3.391-30.668 17.616-36.275l-5.686-13.881c-17.621 7.035-29.206 25.698-27.807 44.456-8.679 6.369-20.974 5.632-28.813-2.208l-42.891-42.89-42.865 42.866c-15.692 15.143-13.902 41.602 2.697 55.355 30.662-7.611 51.824 28.839 29.121 51.07-22.727 20.672-57.37-.766-49.808-30.383-13.755-16.601-40.214-18.389-55.355-2.696 0-.001-42.865 42.865-42.865 42.865l159.065 159.065 31.033-31.032-10.607-10.606z"/><path d="m382.777 449.47h14.804v15h-14.804z" transform="matrix(.707 -.707 .707 .707 -208.849 409.769)"/><path d="m457.795 291.988c0-4.787 1.505-9.342 4.292-13.126 61.159 1.113 64.634-86.506 3.513-90.078l1.565 15.054c15.147.967 27.87 14.313 27.8 29.566.558 20.196-19.379 34.667-38.578 29.587-16.585 13.738-18.375 40.17-2.699 55.296-.001 0 32.284 32.283 32.284 32.283l-84.885 84.884 10.607 10.606 95.49-95.491-42.89-42.89c-4.191-4.19-6.499-9.763-6.499-15.691z"/><path d="m164.427 225.042h60.542v-60.555c0-11.146 8.221-20.407 18.918-22.039 27.724 31.382 80.191 10.729 78.887-31.205-.791-40.212-52.73-59.101-78.893-28.562-10.693-1.634-18.912-10.895-18.912-22.038v-60.553h-224.969v89.958h15v-74.958h194.968v45.555c-.113 22.138 19.286 39.066 41.108 37.293 15.593-26.293 55.254-16.949 56.704 13.737.328 31.778-40.409 42.578-56.704 15.518-21.823-1.771-41.22 15.154-41.108 37.294v45.554h-45.542c-22.15-.113-39.088 19.295-37.315 41.129 27.064 16.296 16.25 57.044-15.52 56.703-30.687-1.453-40.026-41.11-13.736-56.703 1.771-21.835-15.164-41.242-37.315-41.129h-45.541v-104.994h-14.999v119.995h60.541c11.155 0 20.425 8.228 22.059 18.934-31.02 26.607-10.973 79.315 29.902 78.912 41.267.109 60.774-51.66 29.865-78.906 1.632-10.708 10.903-18.94 22.06-18.94z"/></g></g></svg>