<svg id="Capa_1" enable-background="new 0 0 509.956 509.956" height="512" viewBox="0 0 509.956 509.956" width="512" xmlns="http://www.w3.org/2000/svg"><g><g><g><g><path d="m382.416 375.01h-74.968l22.956 90.112h74.118z" fill="#f7e0ba"/></g><g><path d="m347.331 442.674-17.238-67.664h-22.645l22.956 90.112h74.118l-5.507-22.448z" fill="#f0b582"/></g><g><path d="m404.522 465.122h-74.118l7.006 29.824h74.968z" fill="#d29380"/></g><g><path d="m112.392 375.01h74.968l-22.956 90.112h-74.118z" fill="#f7e0ba"/></g><g><path d="m118.466 443.09 16.701-68.08h-22.775l-22.106 90.112h74.118l5.613-22.032z" fill="#f0b582"/></g><g><path d="m90.286 465.122h74.118l-7.007 29.824h-74.968z" fill="#d29380"/></g><g><path d="m90.286 465.122-7.857 29.824h22.598l7.857-29.824z" fill="#c0694e"/></g><g><path d="m353.057 465.122 7.857 29.824h-22.599l-7.856-29.824z" fill="#c0694e"/></g><g><path d="m7.5 60.026h494.956v314.984h-494.956z" fill="#a7eed4"/></g><g><path d="m29.908 352.478v-292.452h-22.408v314.984h494.956v-22.532z" fill="#71e4bf"/></g><g><path d="m37.424 89.97h434.984v255.008h-434.984z" fill="#e5ecf5"/></g><g><path d="m59.892 322.196v-232.226h-22.468v255.008h434.984v-22.782z" fill="#cad8eb"/></g><g><path d="m172.594 45.074v60h164.638v-60l-82.319-11.234z" fill="#a4d7f5"/></g><g><path d="m195.945 81.723v-36.649h-23.351v60h164.638v-23.351z" fill="#73c1ef"/></g><g><path d="m187.432 15.01h135.008v30.064h-135.008z" fill="#58575b"/></g><g><path d="m187.432 15.01h22.481v30.064h-22.481z" fill="#48474a"/></g><g><path d="m292.683 314.946h-90.217l-7.553 30.032h105.304z" fill="#d29380"/></g><g><path d="m202.466 314.946-7.553 30.032h22.222l7.554-30.032z" fill="#c0694e"/></g><g><path d="m59.987 112.499h15v15h-15z" fill="#fff"/></g><g><path d="m59.987 142.499h15v15h-15z" fill="#fff"/></g></g></g><g><path d="m434.913 367.51h15v15h-15z"/><path d="m344.732 52.526v-14.952h-14.793v-30.064h-150.007v30.064h-14.838v14.952h-165.094v329.984h102.788l-7.038 28.171h15.553l6.945-28.171h59.508l-18.764 75.112h-59.508l8.071-31.94h-15.553l-19.178 76.765h90.43l29.963-119.936h108.373l29.963 119.936h90.43l-29.963-119.937h27.823v-15h-404.843v-299.984h150.094v14.944h-135.17v270.008h449.984v-270.008h-135.176v-14.944h150.224v299.984h-30.043v15h45.043v-329.984zm-252.699 434.92 3.703-14.824h59.508l-3.703 14.824zm251.234 0-3.703-14.824h59.508l3.703 14.824zm52.057-29.824h-59.508l-18.764-75.112h59.508zm-200.392-435.112h120.008v15.064h-90.026v15h104.819v45h-149.639v-45h29.819v-15h-14.981zm9.601 314.968 3.781-15.032h78.519l3.771 15.032zm260.375-240.008v240.008h-158.84l-7.535-30.032h-101.915l-7.552 30.032h-144.142v-240.008h120.17v15.104h179.639v-15.104z"/><path d="m254.981 274.322c-30.433 12.204-60.276-14.628-60.095-49.495-1.685-41.298 26.007-60.412 60.095-49.495 25.136-9.105 53.086 2.488 57.78 28.914h15.151c-4.669-32.202-32.784-50.648-65.715-46.304-1.736-17.814-16.941-31.315-37.285-30.516v15c12.132-.16 20.043 5.08 22.075 15.411-93.422-13.375-88.446 151.315 7.99 132.287 33.373 9.842 66.358-14.4 73.436-50.125h46.5v-15s-51.747 0-59.618 0c-1.846 23.824-28.828 62.658-60.314 49.323z"/><path d="m389.913 224.999h15v15h-15z"/></g></g></svg>