<?xml version="1.0" encoding="utf-8"?>
<!-- Generator: Adobe Illustrator 15.0.0, SVG Export Plug-In . SVG Version: 6.00 Build 0)  -->
<!DOCTYPE svg PUBLIC "-//W3C//DTD SVG 1.1//EN" "http://www.w3.org/Graphics/SVG/1.1/DTD/svg11.dtd">
<svg version="1.1" id="שכבה_1" xmlns="http://www.w3.org/2000/svg" xmlns:xlink="http://www.w3.org/1999/xlink" x="0px" y="0px"
	 width="566.93px" height="566.93px" viewBox="0 0 566.93 566.93" enable-background="new 0 0 566.93 566.93" xml:space="preserve">
<polygon fill="#676767" points="240.421,505.163 245.777,61.662 247.445,61.451 242.088,504.953 "/>
<polygon fill="#676767" points="376.15,351.099 356.194,49.349 357.873,49.283 377.828,351.033 "/>
<polygon fill="#676767" points="219.683,370.485 224.615,125.704 226.289,125.57 221.357,370.351 "/>
<polygon fill="#676767" points="343.108,507.978 341.436,507.832 380.992,115.316 382.663,115.462 "/>
<polygon fill="#D1945E" points="213.988,113.734 351.68,37.944 370.137,41.514 236.8,120.915 "/>
<polygon fill="#AF6E3C" points="236.915,137.51 236.8,120.915 370.137,41.514 370.602,54.931 "/>
<polygon fill="#D1945E" points="394.724,102.008 252.879,49.315 235.845,55.193 374.475,111.009 "/>
<polygon fill="#AF6E3C" points="373.6,125.637 374.475,111.009 235.845,55.193 235.152,67.008 "/>
<polygon fill="#784C2D" points="213.988,113.734 214.569,128.925 236.915,137.51 236.8,120.915 "/>
<polygon fill="#784C2D" points="394.724,102.008 394.508,115.331 373.6,125.637 374.475,111.009 "/>
<path fill="#D1945E" d="M217.006,372.23c0.732,2.646,2.089,5.096,3.937,7.121c-0.358,0.328-0.713,0.66-1.063,0.999
	c0,0-3.685,3.464-7.88,8.802c-4.191,5.324-6.875,7.317-8.13,6.812c-0.549-0.226-1.208-0.917,0.244-2.618
	c1.448-1.703,5.846-7.516,6.538-8.959c0,0-4.334,3.105-8.265,4.912c-3.929,1.808-5.417,1.431-5.902,0.05
	c-0.487-1.372,2.643-2.279,4.888-3.711c2.254-1.444,6.484-4.308,6.484-4.308s-7.384,2.232-10.881,2.342
	c-1.311,0.04-2.006-0.402-2.146-1.137c-0.138-0.731,0.229-1.384,2.917-1.978c2.687-0.585,8.048-2.416,8.048-2.416
	s-3.443,0.074-5.854-0.264c-2.404-0.334-4.494-1.384-4.318-2.469c0.104-0.629,1.471-1.049,4.614-0.462
	c3.142,0.592,5.86,0.196,5.86,0.196s4.545-6.304,10.679-2.688C216.777,372.455,216.859,372.371,217.006,372.23"/>
<path fill="#D1945E" d="M218.719,376.314c0.55,0.952,1.19,1.853,1.912,2.686c0.146,0.301,0.268,0.594,0.359,0.873
	c0.85,2.544,0.012,4.457-1.149,6.767c-0.877,1.749-2.734,4.763-0.953,6.472c0.265,0.248,0.328,0.724-0.016,0.949
	c-0.043,0.121-0.127,0.243-0.262,0.297c-2.492,1.017-3.991-1.415-3.827-3.62c0.107-1.479,0.519-2.887,0.852-4.323
	c0.083-0.349,0.109-0.688,0.111-1.029c-1.613-0.253-3.326-1.356-4.058-2.451c-0.737-1.114-1.14-2.693-1.037-4.198l7.961-2.534
	C218.649,376.238,218.685,376.276,218.719,376.314"/>
<path fill="#D1945E" d="M297.188,342.853c0,0-39.502,8.041-45.249,15.35l2.571,6.486c0,0,30.658-2.196,39.758-12.644
	L297.188,342.853z"/>
<path fill="#D1945E" d="M248.918,365.838c0,0-14.429,11.136-24.718,11.35l-3.176-5.77c0,0,8.384-13.949,26.495-11.881
	L248.918,365.838z"/>
<path fill="#AF6E3C" d="M253.954,357.747c-2.22-1.746-5.434-1.36-7.178,0.858c-1.746,2.218-1.36,5.434,0.858,7.178
	s5.434,1.359,7.177-0.858C256.557,362.705,256.172,359.491,253.954,357.747"/>
<path fill="#AF6E3C" d="M225.183,377.629c-1.158,2.573-4.184,3.723-6.759,2.565s-3.724-4.183-2.567-6.758
	c1.159-2.577,4.183-3.725,6.758-2.567C225.191,372.026,226.34,375.052,225.183,377.629"/>
<path fill="#D1945E" d="M307.316,469.515c0,0-3.134-27.024-0.394-38.016l11.354,0.943c0,0-0.105,32.692-5.051,41.354
	L307.316,469.515z"/>
<path fill="#D1945E" d="M336.002,508.729c0,0-22.216-14.761-26.224-26.454l3.89-4.26c0,0,14.665,4.977,25.071,25.413
	L336.002,508.729z"/>
<path fill="#AF6E3C" d="M318.434,478.015c0,4.863-3.942,8.808-8.808,8.808c-4.863,0-8.807-3.944-8.807-8.808
	c0-4.865,3.943-8.808,8.807-8.808C314.491,469.207,318.434,473.149,318.434,478.015"/>
<path fill="#D1945E" d="M262.235,465.875c0,0-3.133-27.025-0.393-38.019l11.355,0.946c0,0-0.105,32.689-5.051,41.352
	L262.235,465.875z"/>
<path fill="#D1945E" d="M241.254,506.175c0,0,10.477-24.526,21.248-30.595l4.896,3.051c0,0-2.23,15.326-20.435,29.273
	L241.254,506.175z"/>
<path fill="#AF6E3C" d="M273.354,474.372c0,4.865-3.943,8.808-8.808,8.808s-8.807-3.942-8.807-8.808
	c0-4.863,3.942-8.806,8.807-8.806S273.354,469.509,273.354,474.372"/>
<path fill="#663336" d="M364.51,329.833c0-0.113-0.038-0.208-0.091-0.291c-0.445-1.207-1.262-2.328-1.816-3.501
	c-0.668-1.423-1.343-2.764-1.89-4.244c-1.248-3.365-2.415-6.677-3.342-10.15c-4.349-16.225-4.594-36.438-16.184-49.605
	c-0.921-1.04-2.181-2.262-3.574-3.074c0.999-1.341,2.262-2.429,3.995-2.963c0.517-0.154,0.271-0.822-0.135-0.922
	c-2.399-0.583-5.205-0.572-7.538,0.42c-0.107-2.615-0.934-5.256-2.257-7.187c-0.264-0.38-0.917-0.09-0.823,0.357
	c0.313,1.573,0.074,3.544-0.294,5.1c-0.034,0.135-0.071,0.266-0.109,0.396c-0.622-0.837-1.366-1.625-1.906-2.362
	c-1.313-1.78-2.616-3.469-4.501-4.697c-3.863-2.519-7.898-4.419-12.362-5.6c-21.616-5.716-43.648,8.058-54.696,25.975
	c-4.087,6.625-6.978,13.953-8.722,21.526c-0.722,3.151-1.203,6.334-1.497,9.539c-0.631,5.671-1.822,11.319-3.905,16.642
	c-1.151,2.944-2.91,5.447-4.876,7.891c-0.906,1.125-1.837,2.198-2.929,3.153c-0.704,0.609-1.628,1.12-2.033,1.986
	c-0.117,0.237,0.037,0.49,0.249,0.599c1.028,0.519,2.016,1.357,2.994,1.982c1.07,0.678,2.184,1.263,3.183,2.049
	c1.099,0.863,2.295,1.773,3.435,0.702c1.594-1.497,3.159-2.815,4.522-4.484c-0.153,0.638-0.328,1.275-0.499,1.913
	c-0.432,1.602-1.367,3.177-1.483,4.845c-0.016,0.208,0.089,0.439,0.298,0.512c1.535,0.524,3.185,1.235,4.757,1.568
	c0.165,0.038,0.373-0.06,0.466-0.198c0.827-1.236,1.651-2.503,2.452-3.785c-0.23,1.485-0.447,2.967-0.678,4.438
	c-0.142,0.907,1.367,0.775,1.803,0.845c2.056,0.331,14.143,2.503,18.152,2.676c1.207,0.051,0.771-1.946,0.786-2.619
	c0.025-1.297,0.228-2.578,0.364-3.864c0.124,0.584,0.238,1.174,0.336,1.766c0.254,1.563,0.418,3.524,1.054,4.989
	c0.447,1.032,10.352,1.815,16.919,1.815c1.732,0,10.983,0.466,12.689,0.469c9.937,0.029,20.029-0.25,29.62-3.1
	c1.225-0.369,2.896-0.549,3.931-1.397c0.182-0.007,0.364-0.142,0.3-0.373c0.012-0.105-0.015-0.219-0.077-0.3
	c-0.432-1.63-0.641-3.291-0.715-4.964c0.111,0.313,0.23,0.623,0.361,0.926c0.618,1.477,1.684,3.547,3.192,4.388
	c0.026,0.021,0.048,0.05,0.075,0.074c0.76,0.591,5.994-1.562,7.749-2.046c1.423-0.396,2.707-1.106,4.071-1.622
	c0.12-0.044,0.183-0.133,0.214-0.229c0.08-0.048,0.129-0.143,0.088-0.242c-0.319-0.771-0.908-1.45-1.273-2.221
	c-0.567-1.178-1.018-2.433-1.346-3.697c-0.069-0.274-0.114-0.546-0.156-0.814c0.093,0.257,0.193,0.51,0.306,0.769
	c0.804,1.868,2.34,4.271,4.08,5.479c0.037,0.026,0.066,0.064,0.101,0.086c0.024,0.019,0.056,0.026,0.082,0.04
	c0.033,0.022,0.066,0.054,0.096,0.07c0.061,0.037,0.131,0.048,0.194,0.035c0.401,0.063,0.733-0.219,1.148-0.479
	c1.27-0.781,7.645-4.544,7.645-4.874V329.833z"/>
<g opacity="0.5">
	<g>
		<defs>
			<rect id="SVGID_1_" x="321.939" y="247.753" width="19.962" height="16.746"/>
		</defs>
		<clipPath id="SVGID_2_">
			<use xlink:href="#SVGID_1_"  overflow="visible"/>
		</clipPath>
		<path clip-path="url(#SVGID_2_)" fill="#EB7B24" d="M325.215,248.166c1.092,1.685,2.146,3.48,2.887,5.351
			c0.358,0.901,0.478,1.936-0.618,2.365c-1.817,0.705-3.89,0.735-5.543,1.8c2.194,1.005,5.23-1.308,7.078,0.234
			c0.6,0.495,0.026,2.19-0.004,2.768c-0.063,1.148-0.32,2.692,0.152,3.815c0.876-1.123,1.292-2.644,1.935-3.89
			c0.286-0.557,0.719-1.579,1.49-1.579c1.71,0,2.362,3.07,3.524,4.246c0.197-1.072,0.056-2.19,0.227-3.274
			c0.042-0.229,0.316-0.287,0.496-0.201c1.509,0.727,2.965,1.372,4.325,2.22c-0.912-1.034-2.165-2.248-3.551-3.054
			c0.999-1.341,2.262-2.429,3.994-2.963c0.518-0.156,0.272-0.822-0.134-0.921c-2.399-0.584-5.205-0.573-7.537,0.419
			c-0.108-2.615-0.935-5.256-2.258-7.187c-0.264-0.381-0.917-0.09-0.824,0.357c0.313,1.573,0.075,3.544-0.294,5.102
			c-0.033,0.133-0.07,0.264-0.107,0.394c-0.623-0.838-1.367-1.625-1.907-2.362c-1.096-1.489-2.194-2.91-3.621-4.054
			C325.021,247.89,325.121,248.024,325.215,248.166"/>
	</g>
</g>
<path fill="#75393A" d="M360.352,327.635c-3.215-2.336-5.615-5.311-7.234-8.939c-3.455-7.737-2.825-16.414-3.119-24.664
	c-0.213-5.894-0.746-12.051-2.857-17.61c-1.945-5.107-7.064-11.367-12.921-7.123c-2.19,1.589-4.53,3.977-7.488,3.665
	c-2.643-0.274-4.422-2.234-5.916-4.269c-1.615-2.201-3.376-5.891-6.228-6.69c-3.259-0.921-4.901,2.32-6.515,4.526
	c-1.121,1.534-2.73,3.528-4.907,3.01c-2.639-0.626-3.461-2.966-4.131-5.324c-0.727-2.545-2.095-6.162-5.478-5.115
	c-2.045,0.635-3.51,2.486-4.739,4.136c-1.058,1.419-3.967,6.906-6.456,5.098c-2.037-1.483-2.255-4.379-3.298-6.47
	c-1.896-3.784-5.462-3.818-8.84-1.922c-7.706,4.317-12.624,12.506-15.067,20.778c-1.393,4.724-2.283,9.567-2.354,14.5
	c-0.074,5.276,0.421,10.6-0.153,15.86c-0.464,4.276-1.512,8.387-4.231,11.814c-2.635,3.326-6.74,6.194-10.968,6.997
	c-0.731,0.137-1.468,0.212-2.196,0.207c0.339,0.244,0.678,0.486,1.013,0.702c1.069,0.678,2.184,1.265,3.183,2.049
	c1.099,0.863,2.295,1.773,3.435,0.702c1.594-1.497,3.159-2.815,4.522-4.484c-0.153,0.638-0.328,1.275-0.499,1.913
	c-0.432,1.602-1.367,3.179-1.483,4.847c-0.016,0.206,0.089,0.438,0.299,0.51c1.535,0.524,3.184,1.235,4.756,1.568
	c0.164,0.038,0.373-0.06,0.466-0.198c0.828-1.236,1.651-2.503,2.452-3.785c-0.23,1.483-0.447,2.967-0.677,4.438
	c-0.143,0.907,1.366,0.774,1.803,0.845c2.055,0.331,14.142,2.503,18.151,2.675c1.207,0.052,0.771-1.945,0.786-2.618
	c0.026-1.297,0.228-2.578,0.364-3.864c0.124,0.584,0.238,1.174,0.336,1.766c0.254,1.563,0.418,3.524,1.054,4.989
	c0.447,1.032,10.352,1.815,16.919,1.815c1.732,0,10.983,0.464,12.689,0.469c9.937,0.029,20.029-0.25,29.62-3.1
	c1.225-0.369,2.896-0.549,3.931-1.397c0.182-0.007,0.364-0.142,0.3-0.373c0.012-0.106-0.015-0.219-0.077-0.302
	c-0.432-1.628-0.641-3.289-0.715-4.962c0.111,0.313,0.23,0.623,0.361,0.926c0.618,1.477,1.684,3.546,3.192,4.388
	c0.026,0.021,0.048,0.05,0.075,0.073c0.76,0.592,5.994-1.561,7.749-2.045c1.423-0.396,2.708-1.106,4.071-1.622
	c0.119-0.044,0.183-0.131,0.214-0.229c0.08-0.048,0.129-0.143,0.087-0.242c-0.318-0.771-0.907-1.45-1.272-2.221
	c-0.567-1.178-1.018-2.433-1.346-3.697c-0.069-0.274-0.114-0.544-0.156-0.814c0.094,0.257,0.193,0.51,0.306,0.767
	c0.805,1.87,2.34,4.273,4.08,5.481c0.037,0.026,0.066,0.064,0.101,0.086c0.025,0.02,0.057,0.024,0.082,0.04
	c0.033,0.022,0.066,0.054,0.096,0.07c0.061,0.037,0.131,0.046,0.194,0.035c0.4,0.063,0.734-0.221,1.148-0.479
	c1.27-0.781,7.645-4.544,7.645-4.875v-0.106C363.005,329.349,361.57,328.521,360.352,327.635"/>
<g opacity="0.5">
	<g>
		<defs>
			<rect id="SVGID_3_" x="331.581" y="248.223" width="10.164" height="8.148"/>
		</defs>
		<clipPath id="SVGID_4_">
			<use xlink:href="#SVGID_3_"  overflow="visible"/>
		</clipPath>
		<path clip-path="url(#SVGID_4_)" fill="#EB7B24" d="M332.413,250.632c0.234,1.167,0.384,2.31,0.379,3.503
			c0,0.291-0.241,2.28,0.324,2.234c0.701-0.048,1.316-0.204,1.971-0.423c0.906-0.307,1.782-0.557,2.728-0.686
			c1.26-0.173,2.684-0.277,3.93-0.006c-0.073-0.081-0.162-0.145-0.271-0.173c-2.399-0.583-5.205-0.572-7.537,0.42
			c-0.108-2.615-0.935-5.256-2.258-7.187c-0.029-0.041-0.063-0.068-0.097-0.093C331.884,249.009,332.241,249.769,332.413,250.632"/>
	</g>
</g>
<path fill="#036BB1" d="M299.227,336.462l-11.262,1.791c0,0-7.516,42.768-39.492,81.293c0,0,20.224,19.263,76.672,15.991
	c0,0,12.105-50.703-10.837-102.44L299.227,336.462z"/>
<path fill="#EC3E95" d="M324.913,433.683c0.216,0,0.421,0.021,0.604,0.074c1.873-9.426,9.198-54.632-11.209-100.66l-15.081,3.365
	l-11.262,1.791c0,0-7.437,42.311-38.986,80.671c0.387-0.209,0.817-0.327,1.22-0.306c0.851,0.051,1.702,0.436,2.123,1.224
	c0.26,0.498,0.313,0.813,0.361,1.362c0.02,0.167,0,0.338-0.04,0.503c0.457-0.485,1.095-0.8,1.803-0.8h0.106
	c1.345,0,2.464,1.12,2.464,2.463c0,0.536-0.182,1.027-0.476,1.437c0.027,0.015,0.058,0.029,0.088,0.047
	c0.315-0.837,1.042-1.483,2.203-1.483c2.067,0,2.78,2.089,2.154,3.55c0.032,0.013,0.074,0.034,0.109,0.051
	c0.26-0.95,1.012-1.739,2.278-1.739c1.952,0,2.697,1.854,2.249,3.29c0.351-0.758,1.055-1.342,2.134-1.342
	c1.858,0,2.623,1.681,2.311,3.077c0.014,0,0.034,0.005,0.04,0.01c0.305-0.688,0.907-1.254,1.623-1.455
	c0.964-0.264,1.854,0.081,2.45,0.75c-0.01-0.015-0.021-0.032-0.031-0.048c0.365,0.39,0.522,0.679,0.697,1.184
	c0.1,0.31,0.128,0.62,0.095,0.929c0.013,0.014,0.033,0.016,0.052,0.02c0.319-0.818,1.042-1.453,2.185-1.453
	c1.606,0,2.401,1.257,2.38,2.511c0.286-0.891,1.023-1.62,2.243-1.62c1.621,0,2.407,1.278,2.386,2.532
	c0.021,0.005,0.055,0.008,0.089,0.013c0.206-1.018,0.98-1.901,2.321-1.901c1.623,0,2.405,1.297,2.37,2.557
	c0.271-0.916,1.021-1.661,2.253-1.661c1.521,0,2.306,1.135,2.369,2.306l0.021,0.009c0.068-0.253,0.162-0.49,0.278-0.691
	c0.32-0.549,0.854-0.958,1.469-1.128c0.636-0.17,1.331-0.086,1.899,0.25c0.3,0.172,0.515,0.385,0.688,0.619
	c0.274,0.276,0.484,0.584,0.606,1.014c0.036,0.128,0.053,0.256,0.068,0.388c0.052-0.543,0.277-1.07,0.685-1.471
	c0.95-0.953,2.53-0.953,3.483,0l0.083,0.077c0.344,0.347,0.561,0.772,0.658,1.223c0.211-1.002,0.977-1.862,2.307-1.862
	c1.403,0,2.184,0.96,2.346,2.029c0.108-1.139,0.892-2.191,2.364-2.191c1.693,0,2.475,1.402,2.357,2.71h0.064
	c0.061-1.176,0.846-2.31,2.368-2.31c1.319,0,2.085,0.859,2.306,1.854c0.329-0.972,1.254-1.688,2.321-1.688h0.081
	c1.152,0,2.137,0.826,2.393,1.906c0.044,0,0.091,0,0.138-0.004C322.754,434.611,323.534,433.683,324.913,433.683"/>
<g>
	<g>
		<defs>
			<rect id="SVGID_5_" x="284.174" y="333.097" width="44.162" height="102.818"/>
		</defs>
		<clipPath id="SVGID_6_">
			<use xlink:href="#SVGID_5_"  overflow="visible"/>
		</clipPath>
		<path clip-path="url(#SVGID_6_)" fill="#E9E9E9" d="M314.308,333.097l-15.081,3.365l-10.704,1.702
			c-1.01,2.279-1.491,4.777-1.66,7.258c-0.17,2.544-0.252,5.178,0.629,7.619c0.727,2.032,2.116,4.51,4.422,5.029
			c2.593,0.592,6.342-3.219,6.429-3.261c0.07-0.076,0.139-0.162,0.198-0.243c0.261-0.33,2.121,2.941,6.815,2.937
			c2.508-0.003,3.746-1.7,5.462-1.316c2.808,0.622,2.988,4.926,3.525,7.126c2.37,9.683,2.737,20.004,1.602,29.888
			c-1.033,9.013-3.394,18.211-8.707,25.702c-4.647,6.564-10.577,11.321-18.356,13.579c-1.555,0.455-3.131,0.818-4.707,1.134
			c10.77,1.887,24.284,2.895,40.971,1.922C325.145,435.537,337.25,384.834,314.308,333.097"/>
	</g>
</g>
<path fill="#F299C1" d="M309.636,336.058c-1.391-0.872-3.051-0.503-4.52-0.051c-2.19,0.673-4.195,1.53-6.483,1.904
	c-1.12,0.192-2.179,0.202-3.298,0.253c-0.089,0-0.161,0.025-0.24,0.046c-1.315-0.166-2.694,0.617-3.809,1.278
	c-1.492,0.896-2.228,2.336-2.661,3.964c-0.946,3.571-0.505,7.803,1.292,11.047c0.525,0.958,1.84,2.126,3.019,1.96
	c1.873-0.269,2.928-1.266,3.805-2.88c0.837-1.534,1.239-3.197,1.378-4.906c0.499,1.819,1.172,3.657,2.59,4.918
	c1.404,1.25,3.539,1.646,5.325,1.186c5.459-1.402,5.377-8.49,5.399-12.905C311.436,340.148,311.309,337.097,309.636,336.058"/>
<path fill="#036BB1" d="M253.29,417.344c-0.553,0.007-1.015,0.475-1.009,1.031c0.01,0.549,0.48,1.015,1.039,1.005
	c0.557-0.012,1.017-0.478,1.006-1.039C254.318,417.791,253.847,417.331,253.29,417.344"/>
<path fill="#036BB1" d="M257.806,419.555c-1.258,0.029-1.231,1.987,0.025,1.958C259.093,421.484,259.067,419.53,257.806,419.555"/>
<path fill="#036BB1" d="M262.081,421.874c-1.289,0.029-1.262,2.032,0.03,2.004C263.395,423.849,263.367,421.848,262.081,421.874"/>
<path fill="#036BB1" d="M266.502,423.553c-1.211,0.026-1.179,1.892,0.025,1.867C267.734,425.391,267.705,423.521,266.502,423.553"/>
<path fill="#036BB1" d="M271.09,425.488c-1.085,0.024-1.06,1.712,0.026,1.688C272.199,427.15,272.177,425.467,271.09,425.488"/>
<path fill="#036BB1" d="M275.591,426.925c-1.206,0.029-1.181,1.892,0.029,1.865C276.822,428.761,276.79,426.895,275.591,426.925"/>
<path fill="#036BB1" d="M280,428.048c-1.199,0.026-1.171,1.884,0.027,1.855C281.22,429.879,281.197,428.023,280,428.048"/>
<path fill="#036BB1" d="M284.646,428.732c-1.234,0.024-1.208,1.934,0.023,1.908C285.906,430.614,285.873,428.706,284.646,428.732"/>
<path fill="#036BB1" d="M289.367,429.516c-1.139,0.021-1.112,1.78,0.029,1.764C290.534,431.25,290.506,429.484,289.367,429.516"/>
<path fill="#036BB1" d="M294.093,430.035c-1.168,0.025-1.142,1.833,0.024,1.807C295.282,431.817,295.257,430.004,294.093,430.035"/>
<path fill="#036BB1" d="M298.731,430.619c-1.109,0.025-1.085,1.756,0.028,1.726C299.87,432.323,299.849,430.593,298.731,430.619"/>
<path fill="#036BB1" d="M303.701,431.284c-0.03,0-0.058,0-0.079,0.005c-1.063,0.063-1.039,1.623,0.021,1.645h0.083
	C304.793,432.945,304.763,431.217,303.701,431.284"/>
<path fill="#036BB1" d="M308.933,431.317c0.017,0.01,0.031,0.018,0.049,0.026c-0.352-0.358-0.961-0.336-1.305,0.017
	c-0.379,0.388-0.357,1.214,0.208,1.444c0.317,0.138,0.524,0.165,0.862,0.111c0.285-0.05,0.53-0.354,0.599-0.617
	C309.448,431.888,309.252,431.553,308.933,431.317"/>
<path fill="#036BB1" d="M313.665,431.139c-0.526-0.188-1.075,0.32-1.065,0.845c0.004,0.515,0.564,1.021,1.094,0.809
	c0.372-0.146,0.713-0.392,0.707-0.835C314.396,431.519,314.042,431.271,313.665,431.139"/>
<path fill="#036BB1" d="M318.476,431.1c-0.501,0.018-0.915,0.436-0.904,0.938c0.009,0.498,0.433,0.909,0.933,0.904
	c0.499-0.009,0.908-0.426,0.907-0.934C319.401,431.514,318.975,431.097,318.476,431.1"/>
<path fill="#036BB1" d="M323.587,430.87c-1.131,0.026-1.108,1.782,0.025,1.757C324.742,432.596,324.721,430.84,323.587,430.87"/>
<path fill="#D1945E" d="M344.413,301.435c-0.461-2.18-2.328-3.625-4.567-4.023c-1.192-0.21-3.092-0.377-4.166,0.406
	c-1.955,0.597-2.86,3.504-3.223,5.107c-0.585,2.587-0.131,5.382,0.905,7.807c0.824,1.935,2.98,2.385,4.956,2.194
	c2.266-0.221,4.49-1.621,5.548-3.518C345.191,307.051,344.953,303.984,344.413,301.435"/>
<path fill="#D1945E" d="M255.158,309.505c1.065,1.896,3.283,3.297,5.547,3.518c1.974,0.195,4.136-0.26,4.958-2.194
	c1.032-2.422,1.487-5.22,0.905-7.802c-0.361-1.61-1.27-4.516-3.223-5.115c-1.076-0.778-2.977-0.615-4.164-0.403
	c-2.24,0.4-4.106,1.846-4.572,4.025C254.069,304.08,253.839,307.143,255.158,309.505"/>
<path fill="#D1945E" d="M305.837,334.229c-0.509-1.683-1.109-3.379-1.687-5.044c-0.016-0.049-0.041-0.086-0.071-0.116
	c-0.045-0.249-0.25-0.47-0.574-0.436c-1.054,0.119-2.108,0.087-3.166,0.089c-1.007,0.008-1.915,0.293-2.892,0.541
	c-1.662,0.425-3.1,1.251-4.504,2.19c-0.057,0.003-0.111,0.019-0.153,0.086c-0.008,0.019-0.022,0.037-0.033,0.059
	c-0.101,0.176,0,0.507,0.257,0.434c0.022-0.008,0.037-0.016,0.057-0.019c0.301,1.422,0.402,2.946,0.347,4.389
	c-0.023,0.576-0.418,1.911,0.309,2.269c2.291,1.129,4.598,2.354,7.231,1.609c1.953-0.556,3.961-2.354,5.249-3.874
	C306.598,335.947,305.979,334.698,305.837,334.229"/>
<path fill="#D1945E" d="M293.014,332.031c0.022-0.008,0.037-0.016,0.057-0.019c0.152,0.727,0.256,1.478,0.309,2.231
	c3.983,0.815,8.406,0.863,12.396-0.218c-0.498-1.615-1.069-3.243-1.625-4.842c-0.015-0.049-0.04-0.086-0.07-0.116
	c-0.044-0.249-0.25-0.47-0.574-0.436c-1.054,0.119-2.108,0.086-3.167,0.089c-1.006,0.008-1.914,0.291-2.891,0.541
	c-1.662,0.425-3.1,1.251-4.504,2.19c-0.057,0.003-0.111,0.019-0.152,0.086c-0.009,0.019-0.023,0.037-0.034,0.057
	C292.657,331.773,292.757,332.104,293.014,332.031"/>
<path fill="#D1945E" d="M304.393,337.667c-1.309,0.843-2.761,2.192-4.393,2.281c-1.741,0.09-3.507-0.573-4.927-1.542
	c-1.313-0.891-1.194-2.154-1.616-3.458c-0.016-0.005-0.032-0.007-0.049-0.011c0.023,0.492,0.027,0.982,0.008,1.464
	c-0.022,0.576-0.417,1.911,0.31,2.269c2.291,1.129,4.598,2.354,7.231,1.609c1.953-0.556,3.961-2.354,5.249-3.874
	c0.071-0.082,0.104-0.192,0.119-0.317C305.793,336.711,305.104,337.21,304.393,337.667"/>
<path fill="#D1945E" d="M263.843,288.005c0,0,0.335,5.729-0.783,14.259c-1.126,8.53,0.447,17.963,9.764,23.915
	c9.317,5.949,24.865,10.212,41.538,4.655c16.668-5.558,26.605-21.89,19.872-46.476c0,0-0.032,1.955-0.48,1.955
	c-0.446,0-16.613,0-17.119-0.574c-0.511-0.575-0.128-6.873-2.165-10.883c0,0,0,10.308-1.144,11.136
	c-1.147,0.827-16.742,1.591-17.25,0.638c-0.506-0.958,0.257-10.25,1.207-11.902c0,0-2.481,2.801-3.494,7.188
	c-1.021,4.394,0.317,4.65-3.565,5.161c-3.882,0.506-14.828,0.953-15.654-0.067c-0.829-1.018,0.062-7.381,2.163-10.692
	c0,0-3.059,3.117-4.266,7.258c-1.207,4.135-0.258,4.455-2.358,4.391C268.011,287.9,263.843,288.005,263.843,288.005"/>
<path fill="#3B1312" d="M344.663,281.961c-0.548-2.771-1.613-5.678-3.748-7.603c-0.171-0.158-0.377,0.098-0.27,0.267
	c1.401,2.153,2.541,4.37,3.056,6.905c0.239,1.166,0.313,2.314,0.168,3.493c-0.126,1.056-2.448,0.453-3.063,0.474
	c-1.147,0.044-2.906,0.625-3.424-0.707c-0.38-0.98-0.496-2.002-0.927-2.974c-0.643-1.45-2.665-4.494-2.754-4.604
	c-0.418-0.538-1.032-0.478-0.962,0.145c0.119,1.065,0.406,2.137,0.585,3.197c0.257,1.531,0.197,3.092,0.325,4.638
	c0.103,1.271-8.373,0.701-9.322,0.69c-1.279-0.017-2.552,0.011-3.83-0.038c-1.732-0.061-3.682-0.171-3.899-2.251
	c-0.307-2.935-0.954-5.87-1.704-8.731c-0.142-0.56-0.976-0.462-0.905,0.135c0.385,2.985-0.13,6.115-0.614,9.048
	c-0.179,1.08-0.209,1.703-1.446,2.017c-0.625,0.16-1.289,0.304-1.933,0.338c-1.568,0.092-3.175,0.176-4.725,0.429
	c-1.583,0.258-3.316,0.045-4.914-0.011c-1.179-0.041-3.931,0.269-4.076-1.3c-0.335-3.458,1.227-10.738,1.4-10.93
	c0.352-0.405-0.301-0.869-0.651-0.494c-2.068,2.18-2.974,5.063-3.722,7.943c-0.191,0.74-0.272,1.511-0.369,2.266
	c-0.183,1.414-1.342,1.937-2.567,2.154c-1.866,0.328-3.788,0.71-5.699,0.715c-1.763,0-3.525-0.005-5.283,0.006
	c-0.764,0.005-1.513,0.019-2.276-0.07c-1.133-0.134-2.318,0.038-2.325-1.394c-0.015-1.553,0.019-3.152,0.31-4.675
	c0.376-1.989,1.345-3.625,2.313-5.38c0.209-0.379-0.399-0.701-0.647-0.37c-1.756,2.357-3.074,4.997-4.293,7.664
	c-0.586,1.271-0.879,2.655-1.473,3.917c-0.479,1.031-3.947,0.51-4.947,0.541c-0.405,0.011-4.869,0.315-4.795-0.314
	c0.217-1.927,0.723-3.993,1.305-5.857c1.144-3.68,2.593-7.35,4.657-10.622c0.071-0.116-0.09-0.245-0.183-0.133
	c-2.592,3.297-4.478,7.737-5.435,11.816c-0.387,1.672-1.267,3.569-1.066,5.313c0.114,0.982,2.955,0.646,3.484,0.679
	c1.966,0.123,3.967-0.094,5.938-0.049c1.342,0.03,1.666-0.625,2.147-1.743c0.384-0.889,0.521-1.888,0.879-2.786
	c0.376-0.942,0.845-1.849,1.314-2.75c0.004-0.011,0.012-0.021,0.02-0.037c0,0.008-0.004,0.01-0.004,0.019
	c-0.239,1.687-0.678,3.848-0.377,5.555c0.228,1.289,2.03,1.501,3.077,1.51c1.912,0.014,3.801,0.199,5.724,0.117
	c2.306-0.107,4.519-0.226,6.817-0.486c1.316-0.146,3.249-0.667,4.024-1.825c0.338-0.508,0.275-1.404,0.335-1.97
	c0.119-1.221,0.364-2.39,0.797-3.535c0.588-1.529,1.066-2.901,1.859-4.204c-0.474,1.55-0.797,3.118-0.95,4.75
	c-0.168,1.795-0.492,3.985-0.052,5.759c0.249,1.021,2.184,0.963,2.91,1.041c1.922,0.208,3.948,0.227,5.882,0.196
	c2.083-0.034,4.185-0.392,6.263-0.513c0.902-0.054,3-0.389,3.383-1.432c0.577-1.588,0.745-3.607,0.917-5.28
	c0.029-0.297,0.052-0.613,0.074-0.924c0.07,0.399,0.142,0.799,0.215,1.193c0.296,1.527,0.136,3.23,0.795,4.657
	c0.507,1.105,1.908,1.105,2.929,1.185c1.979,0.152,3.931,0.127,5.916,0.148c2.009,0.028,4.021,0.094,6.029,0.086
	c0.852-0.003,2.987-0.009,3.586-0.797c0.594-0.78,0.347-2.185,0.261-3.053c-0.141-1.4-0.424-2.707-0.647-3.885
	c0.402,0.624,0.782,1.268,1.08,1.99c0.597,1.456,0.928,2.953,1.469,4.425c0.286,0.775,0.733,1.163,1.609,1.104
	c1.751-0.127,3.36-0.103,5.111-0.04C345.513,286.791,344.908,283.219,344.663,281.961"/>
<path fill="#AF6E3C" d="M342.111,301.539c-1.185-1.002-2.97-0.886-4.021,0.302c-1.599,1.818-1.862,4.54-1.938,6.852
	c-0.011,0.302,0.428,0.366,0.474,0.06c0.141-1.051,0.383-2.671,0.891-4.067c0.283,0.003,0.573-0.034,0.857-0.023
	c0.505,0.016,1.067,0.153,1.511,0.403c0.179,0.1,0.346-0.164,0.228-0.31c-0.35-0.461-0.932-0.659-1.486-0.775
	c-0.22-0.048-0.498-0.104-0.771-0.115c0.742-1.521,1.916-2.489,3.797-1.523C342.145,302.589,342.491,301.864,342.111,301.539"/>
<path fill="#AF6E3C" d="M260.675,301.856c-1.326-1.795-3.405-1.918-4.158,0.28c-0.16,0.476,0.571,0.805,0.812,0.357
	c1.487-2.716,3.405,1.279,3.729,2.396c0.016,0.043,0.027,0.092,0.041,0.142c-0.092-0.078-0.185-0.153-0.278-0.22
	c-0.958-0.694-1.766-0.418-2.784-0.111c-0.237,0.073-0.213,0.461,0.048,0.447c0.806-0.037,1.394-0.229,2.143,0.2
	c0.669,0.384,0.876,1.029,1.286,1.605c0.111,0.864,0.107,1.739-0.143,2.516c-0.056,0.174,0.198,0.286,0.291,0.13
	C262.929,307.497,262.054,303.716,260.675,301.856"/>
<path fill="#FFFFFF" d="M288.371,321.887c0,0,11.74,7.638,19.916-0.678C308.287,321.209,301.26,340.521,288.371,321.887"/>
<path fill="#FFFFFF" d="M280.5,289.278c-5.001,0-9.055,4.728-9.055,10.563c0,5.834,4.054,10.563,9.055,10.563
	c4.49,0,8.216-3.813,8.93-8.813c0.081-0.568,0.124-1.152,0.124-1.749C289.554,294.006,285.499,289.278,280.5,289.278"/>
<g>
	<defs>
		<path id="SVGID_7_" d="M271.146,299.869c0,3.45,2.345,6.248,5.238,6.248c2.895,0,5.241-2.798,5.241-6.248
			c0-3.449-2.347-6.244-5.241-6.244C273.49,293.625,271.146,296.42,271.146,299.869"/>
	</defs>
	<clipPath id="SVGID_8_">
		<use xlink:href="#SVGID_7_"  overflow="visible"/>
	</clipPath>
	
		<radialGradient id="SVGID_9_" cx="-74.437" cy="711.874" r="0.785" gradientTransform="matrix(7.3457 0 0 -7.3457 823.1749 5529.0674)" gradientUnits="userSpaceOnUse">
		<stop  offset="0" style="stop-color:#100A0B"/>
		<stop  offset="0.5744" style="stop-color:#100A0B"/>
		<stop  offset="0.7977" style="stop-color:#100A0B"/>
		<stop  offset="1" style="stop-color:#100A0B"/>
	</radialGradient>
	<rect x="271.146" y="293.625" clip-path="url(#SVGID_8_)" fill="url(#SVGID_9_)" width="10.479" height="12.492"/>
</g>
<path fill="#FFFFFF" d="M275.48,294.347c0,0.803-1.298,1.45-2.898,1.45c-1.598,0-2.897-0.647-2.897-1.45
	c0-0.799,1.3-1.448,2.897-1.448C274.183,292.898,275.48,293.548,275.48,294.347"/>
<path fill="#FFFFFF" d="M306.577,289.558c-4.999,0-9.054,4.729-9.054,10.563c0,5.834,4.055,10.562,9.054,10.562
	c4.491,0,8.217-3.813,8.931-8.813c0.081-0.567,0.126-1.151,0.126-1.748C315.634,294.287,311.577,289.558,306.577,289.558"/>
<g>
	<defs>
		<path id="SVGID_10_" d="M301.521,300.148c0,3.45,2.345,6.248,5.237,6.248c2.895,0,5.241-2.798,5.241-6.248
			s-2.347-6.245-5.241-6.245C303.865,293.903,301.521,296.698,301.521,300.148"/>
	</defs>
	<clipPath id="SVGID_11_">
		<use xlink:href="#SVGID_10_"  overflow="visible"/>
	</clipPath>
	
		<radialGradient id="SVGID_12_" cx="-75.5703" cy="711.8848" r="0.7848" gradientTransform="matrix(7.3457 0 0 -7.3457 861.878 5529.4268)" gradientUnits="userSpaceOnUse">
		<stop  offset="0" style="stop-color:#100A0B"/>
		<stop  offset="0.5744" style="stop-color:#100A0B"/>
		<stop  offset="0.7977" style="stop-color:#100A0B"/>
		<stop  offset="1" style="stop-color:#100A0B"/>
	</radialGradient>
	<rect x="301.521" y="293.903" clip-path="url(#SVGID_11_)" fill="url(#SVGID_12_)" width="10.478" height="12.493"/>
</g>
<path fill="#FFFFFF" d="M305.855,294.625c0,0.802-1.299,1.45-2.899,1.45c-1.6,0-2.897-0.648-2.897-1.45
	c0-0.8,1.298-1.446,2.897-1.446C304.557,293.179,305.855,293.825,305.855,294.625"/>
<path fill="#AF6E3C" d="M272.1,318.271l21.416-5.959c0,0,8.609,2.097,2.649,8.829l-22.188,4.526L272.1,318.271z"/>
<path fill="#784C2D" d="M276.086,321.241c-0.488-2.029-2.349-3.323-4.156-2.888c-1.808,0.434-2.879,2.431-2.392,4.46
	c0.488,2.029,2.349,3.323,4.157,2.89C275.503,325.268,276.573,323.271,276.086,321.241"/>
<path fill="#D1945E" d="M377.253,352.637c-1.754-2.115-3.996-3.792-6.512-4.882c0.192-0.444,0.38-0.894,0.561-1.347
	c0,0,1.94-4.669,3.579-11.257c1.64-6.576,3.27-9.494,4.623-9.547c0.591-0.02,1.478,0.341,0.851,2.488
	c-0.623,2.147-2.251,9.252-2.29,10.852c0,0,2.679-4.608,5.523-7.869c2.843-3.26,4.355-3.526,5.363-2.466
	c1.007,1.053-1.476,3.163-2.937,5.389c-1.465,2.241-4.149,6.587-4.149,6.587s5.82-5.059,8.965-6.596
	c1.179-0.573,1.995-0.457,2.424,0.158c0.425,0.608,0.359,1.354-1.851,2.998c-2.212,1.635-6.351,5.504-6.351,5.504
	s3.11-1.479,5.447-2.16c2.331-0.68,4.667-0.579,4.95,0.481c0.164,0.616-0.911,1.56-4.02,2.312c-3.107,0.75-5.424,2.226-5.424,2.226
	s-1.561,7.612-8.638,6.83C377.369,352.338,377.328,352.447,377.253,352.637"/>
<path fill="#D1945E" d="M374.016,349.613c-0.893-0.643-1.847-1.2-2.845-1.667c-0.257-0.213-0.488-0.431-0.686-0.646
	c-1.819-1.973-1.84-4.059-1.727-6.643c0.083-1.955,0.541-5.467-1.784-6.294c-0.344-0.116-0.596-0.525-0.376-0.872
	c-0.009-0.128,0.017-0.273,0.118-0.377c1.855-1.95,4.22-0.345,4.974,1.734c0.51,1.391,0.71,2.845,0.996,4.291
	c0.066,0.352,0.183,0.67,0.321,0.982c1.574-0.43,3.589-0.126,4.705,0.573c1.129,0.713,2.144,1.988,2.667,3.404l-6.224,5.574
	C374.108,349.654,374.062,349.633,374.016,349.613"/>
<path fill="#D1945E" d="M319.336,359.722c0,0,21,15.345,30.297,15.345l3.509-6.031c0,0-24.006-20.32-37.844-21.017L319.336,359.722z
	"/>
<path fill="#D1945E" d="M350.766,371.55c0,0,8.596-16.071,17.894-20.483l5.262,3.957c0,0-1.929,16.162-19.296,21.701L350.766,371.55
	z"/>
<path fill="#AF6E3C" d="M348.03,373.764c0,2.825,2.288,5.113,5.111,5.113c2.822,0,5.11-2.288,5.11-5.113
	c0-2.822-2.288-5.11-5.11-5.11C350.318,368.653,348.03,370.941,348.03,373.764"/>
<path fill="#AF6E3C" d="M367.582,351.066c0-2.824,2.289-5.112,5.112-5.112s5.111,2.288,5.111,5.112s-2.288,5.113-5.111,5.113
	S367.582,353.891,367.582,351.066"/>
<path fill="#4298AC" d="M245.144,506.516c-2.575-1.443-4.914-3.144-6.934-5.366c-1.065,2.18-2.132,4.347-3.221,6.51
	c-0.292,0.578-0.586,1.156-0.87,1.735c-2.741-0.748-5.68-1.01-8.456-1.332c-2.751-0.317-5.551-0.734-8.319-0.572
	c-2.169,0.131-8.05,0.947-6.019,4.418c1.265,2.153,4.266,3.358,6.416,4.321c2.826,1.268,5.816,2.144,8.577,3.536
	c2.97,1.505,7.475,4.203,10.455,1.489c0.277,0.224,1.88-1.236,2.058-1.676C240.877,514.46,242.901,510.447,245.144,506.516"/>
<path fill="#4298AC" d="M364.217,506.364c-2.121-1.649-5.085-1.758-7.66-1.805c-2.894-0.052-5.688,0.117-8.537,0.659
	c-3.003,0.58-5.994,1.148-9.015,0.744c-1.387-1.495-2.785-3.03-4.187-4.593c-1.863,2.48-4.01,4.663-6.777,6.341
	c1.317,1.432,2.614,2.884,3.864,4.367c2.661,3.167,4.992,7.585,9.454,8.355c4.848,0.834,8.17-0.561,12.424-2.638
	c3.744-1.826,8.813-3.635,11.229-7.244C365.945,509.152,365.54,507.388,364.217,506.364"/>
<path fill="#EC3E95" d="M241.059,514.724c-0.014-0.061-0.11-0.097-0.162-0.048c-0.013,0.005-0.018,0.023-0.031,0.029
	c-0.05,0.023-0.083,0.067-0.101,0.115c-0.358,0.397-0.529,0.89-0.685,1.401c-0.039,0.124-0.093,0.28-0.142,0.45
	c-0.591,0.155-1.191,0.256-1.815,0.244c-0.24-2.446-1.046-4.893-2.392-6.766c-2.08-2.891-6.073-2.912-9.259-2.241
	c-0.104,0.019-0.073,0.164,0.02,0.178c0.022,0.003,0.045,0.003,0.065,0.006c1.506,0.744,2.543,1.275,3.491,2.757
	c0.727,1.132,1.104,2.458,1.446,3.736c0.221,0.804,0.271,1.614,0.257,2.428c-0.01,0-0.019-0.006-0.019-0.006
	c-2.002-0.202-3.953-0.961-5.818-1.68c-1.929-0.742-3.788-1.677-5.555-2.76c-1.72-1.047-5.157-3.24-2.285-5.141
	c0.05-0.022,0.044-0.121-0.024-0.111c-0.057,0-0.103,0.012-0.153,0.017c-0.007-0.021-0.033-0.049-0.06-0.06
	c-3.591-1.512-7.299-3.242-11.095-1.504c-2.399,1.096-5.815,4.514-5.27,7.393c0.045,0.199,0.151,0.326,0.287,0.391
	c3.17,4.975,9.586,8.167,14.79,10.463c3.26,1.429,6.666,2.483,10.101,3.357c3.345,0.852,6.609,1.137,10.003,1.607
	c0.221,0.026,0.349-0.089,0.397-0.231c0.06-0.029,0.117-0.08,0.168-0.15C239.105,526.119,246.802,516.723,241.059,514.724"/>
<path fill="#EC3E95" d="M334.647,515.605c0,0,0.848,2.374,9.129,0.552c0,0-4.385-6.386,1.484-11.709c0,0,5-0.355,5.563-0.034
	c0.564,0.325-4.28,2.847-1.398,8.463c0,0,1.842,1.16,7.002-2.715c5.152-3.87,3.387-5.539,1.196-5.582c0,0,5.523-2.239,9.883-1.69
	c2.265,0.274,3.469,0.796,4.953,3.709c2.516,4.927-13.83,14.04-21.518,16.59c-7.689,2.554-8.602,1.177-9.342,0.536
	C340.857,523.092,335.632,518.17,334.647,515.605"/>
</svg>
