<?xml version="1.0" encoding="utf-8"?>
<!-- Generator: Adobe Illustrator 15.0.0, SVG Export Plug-In . SVG Version: 6.00 Build 0)  -->
<!DOCTYPE svg PUBLIC "-//W3C//DTD SVG 1.1//EN" "http://www.w3.org/Graphics/SVG/1.1/DTD/svg11.dtd">
<svg version="1.1" id="שכבה_1" xmlns="http://www.w3.org/2000/svg" xmlns:xlink="http://www.w3.org/1999/xlink" x="0px" y="0px"
	 width="283.46px" height="283.46px" viewBox="0 0 283.46 283.46" enable-background="new 0 0 283.46 283.46" xml:space="preserve">
<path fill="#F5CB30" d="M17.834,193.711c-2.546,3.07-2.07,7.667,1.064,10.268l2.208,1.83c3.135,2.601,7.739,2.22,10.286-0.852
	l57.25-70.563c2.961-3.832,4.298-4.45,2.263-8.869l-2.879-6.17c-2.462-5.421-6.99,0.408-9.538,3.478L17.834,193.711z"/>
<path fill="#BE7D2B" d="M20.872,194.365c-2.507,3.023-2.264,7.362,0.545,9.694l1.978,1.64c2.808,2.329,7.117,1.768,9.626-1.258
	l56.454-69.442c2.927-3.764,4.202-4.408,2.496-8.512l-2.414-5.727c-2.059-5.037-6.534,0.691-9.043,3.715L20.872,194.365z"/>
<path fill="#FCD25E" d="M36.474,136.428c-2.728,3.24-2.216,8.095,1.145,10.841l2.366,1.934c3.36,2.746,8.294,2.346,11.022-0.896
	c5.015-5.959,9.904-12.03,14.855-18.043c4.727-5.74,9.452-11.481,14.179-17.22c1.967-2.391,4.471-4.303,4.868-7.431l-2.051-16.634
	l-5.937,1.295C64.173,104.954,49.221,121.75,36.474,136.428"/>
<path fill="#FFCB21" d="M56.41,160.5c0.3,2.689,4.572,4.421,9.541,3.865l3.499-0.393c4.969-0.555,8.753-3.185,8.452-5.875
	l-6.77-60.563c-0.301-2.69-4.572-4.42-9.542-3.865l-3.498,0.392c-4.969,0.555-8.753,3.186-8.452,5.876L56.41,160.5z"/>
<path fill="#BE7D2B" d="M61.438,156.928c0.275,2.461,3.456,4.123,7.107,3.715l2.57-0.287c3.65-0.408,6.388-2.732,6.113-5.193
	l-6.19-55.378c-0.275-2.46-3.457-4.123-7.108-3.714l-2.57,0.287c-3.65,0.408-6.387,2.732-6.113,5.192L61.438,156.928z"/>
<path fill="#FCD25E" d="M10.712,165.533c-2.728,3.24-2.216,8.095,1.144,10.842l2.366,1.934c3.359,2.746,8.294,2.346,11.023-0.896
	c5.015-5.959,9.904-12.029,14.854-18.043c4.727-5.74,9.453-11.48,14.179-17.22c1.967-2.391,4.472-4.303,4.869-7.431l-1.814-14.714
	l-6.176-0.623C38.411,134.059,23.459,150.855,10.712,165.533"/>
<path fill="#FFCB21" d="M36.695,180.148c0.317,2.843,4.51,4.707,9.364,4.165l3.417-0.382c4.854-0.543,8.531-3.286,8.213-6.129
	l-7.155-64.007c-0.318-2.842-4.51-4.707-9.364-4.164l-3.416,0.382c-4.854,0.542-8.531,3.286-8.214,6.129L36.695,180.148z"/>
<path fill="#BE7D2B" d="M41.655,179.728c0.309,2.771,3.568,4.68,7.279,4.265l2.612-0.292c3.711-0.415,6.467-2.997,6.157-5.768
	l-6.973-62.378c-0.31-2.771-3.568-4.68-7.279-4.266l-2.613,0.293c-3.709,0.415-6.466,2.997-6.157,5.767L41.655,179.728z"/>
<path fill="#FFCB21" d="M17.49,201.216c0.313,2.795,4.594,4.609,9.563,4.053l3.498-0.391c4.97-0.555,8.743-3.271,8.432-6.065
	l-7.034-62.921c-0.313-2.795-4.593-4.609-9.563-4.055l-3.498,0.392c-4.969,0.556-8.744,3.271-8.431,6.065L17.49,201.216z"/>
<path fill="#BE7D2B" d="M20.252,200.816c0.308,2.758,4.069,4.603,8.402,4.118l3.049-0.341c4.332-0.484,7.594-3.113,7.285-5.872
	l-6.944-62.118c-0.308-2.759-4.069-4.604-8.401-4.119l-3.05,0.341c-4.331,0.484-7.593,3.112-7.285,5.872L20.252,200.816z"/>
<path fill="#BE7D2B" d="M14.8,170.824c-2.686,3.192-0.626,5.588,2.385,8.051l-0.1-0.041c3.01,2.462,7.627,1.868,10.315-1.325
	l60.487-73.318c3.138-3.976,4.502-4.654,2.673-8.989l-1.778-4.799c-2.208-5.318-7.602,1.458-10.29,4.651L14.8,170.824z"/>
<path fill="#F5CB30" d="M277.197,165.654c3.597,1.723,5.088,6.097,3.329,9.771l-1.238,2.585c-1.76,3.675-6.101,5.255-9.698,3.531
	l-81.527-40.126c-4.291-2.24-5.766-2.24-5.766-7.107l0.032-6.809c-0.032-5.955,6.519-2.555,10.117-0.833L277.197,165.654z"/>
<path fill="#E0B225" d="M279.393,132.498c3.598,1.722,5.088,6.097,3.329,9.77l-1.238,2.586c-1.76,3.674-6.1,5.255-9.698,3.531
	l-81.527-40.126c-4.291-2.241-5.766-2.241-5.766-7.108l0.033-6.809c-0.033-5.955,6.518-2.555,10.116-0.833L279.393,132.498z"/>
<path fill="#FFCB21" d="M216.775,151.898c0,2.707-4.052,4.9-9.052,4.9h-3.521c-5,0-9.053-2.193-9.053-4.9v-60.94
	c0-2.708,4.053-4.901,9.053-4.901h3.521c5,0,9.052,2.193,9.052,4.901v12.805l-4.688,1.776l4.688,13.225V151.898z"/>
<path fill="#BE7D2B" d="M212.087,152.041c0,2.627-3.173,4.758-7.089,4.758h-2.758c-3.916,0-7.09-2.131-7.09-4.758V92.873
	c0-2.627,3.174-4.758,7.09-4.758h2.758c3.916,0,7.089,2.131,7.089,4.758V152.041z"/>
<path fill="#FFCB21" d="M240.621,163.279c0,2.914-4.054,5.273-9.054,5.273h-3.52c-5,0-9.053-2.359-9.053-5.273V97.685
	c0-2.914,4.053-5.276,9.053-5.276h3.52c5,0,9.054,2.362,9.054,5.276v16.977l-3.856,2.272L240.621,163.279z"/>
<path fill="#BE7D2B" d="M236.765,163.311c0,2.896-3.329,5.244-7.438,5.244h-2.893c-4.108,0-7.438-2.348-7.438-5.244V98.097
	c0-2.896,3.33-5.244,7.438-5.244h2.893c4.109,0,7.438,2.348,7.438,5.244V163.311z"/>
<path fill="#FFCB21" d="M265.336,175.262c0,2.812-4.054,5.091-9.054,5.091h-3.52c-5,0-9.053-2.279-9.053-5.091v-63.314
	c0-2.812,4.053-5.091,9.053-5.091h3.52c5,0,9.054,2.279,9.054,5.091V175.262z"/>
<path fill="#BE7D2B" d="M262.563,175.327c0,2.774-3.533,5.025-7.893,5.025h-3.068c-4.359,0-7.893-2.251-7.893-5.025V112.82
	c0-2.776,3.533-5.026,7.893-5.026h3.068c4.359,0,7.893,2.25,7.893,5.026V175.327z"/>
<path fill="#BE7D2B" d="M275.638,134.883c3.543,1.696,5.138,5.739,3.563,9.031l-1.11,2.316c-1.575,3.291-5.724,4.585-9.269,2.889
	l-80.334-39.443c-4.234-2.193-5.661-2.244-5.83-6.686l-0.204-6.213c-0.238-5.436,6.223-2.106,9.768-0.41L275.638,134.883z"/>
<path fill="#BE7D2B" d="M275.011,166.64c3.542,1.696,5.137,5.738,3.562,9.03l-1.11,2.317c-1.575,3.291-5.725,4.585-9.269,2.888
	l-80.335-39.443c-4.233-2.193-5.66-2.245-5.829-6.686l-0.204-6.212c-0.237-5.436,6.223-2.106,9.768-0.41L275.011,166.64z"/>
<path fill="#CE4E89" d="M194.574,142.989c0.097,3.271-3.766,6.041-8.626,6.183l-100.122,2.967c-4.86,0.145-8.88-2.39-8.977-5.662
	l-2.145-72.365c-0.097-3.271,3.766-6.039,8.627-6.183l47.683-23.389c4.86-0.145,61.318,22.811,61.415,26.083L194.574,142.989z"/>
<path fill="#EE3C96" d="M192.004,141.05c0.093,3.131-3.605,5.783-8.259,5.92l-95.849,2.841c-4.653,0.138-8.501-2.29-8.595-5.421
	l-2.052-69.277c-0.093-3.132,3.605-5.782,8.258-5.92l45.648-22.391c4.653-0.138,58.703,21.838,58.795,24.97L192.004,141.05z"/>
<path fill="#CE4E89" d="M213.297,59.623l-80.206-31.508c-1.029-0.404-2.092-0.558-3.128-0.504c-1.037,0.007-2.089,0.224-3.093,0.689
	L48.671,64.502c-3.768,1.744-5.413,6.223-3.672,10.002l3.021,6.558c1.741,3.78,6.208,5.429,9.976,3.685l72.663-33.64l74.528,29.277
	c3.867,1.519,8.228-0.393,9.742-4.269l2.627-6.726C219.069,65.515,217.162,61.142,213.297,59.623"/>
<path fill="#EC008C" d="M211.151,60.607l-77.768-29.9c-0.997-0.331-2.026-0.455-3.031-0.406c-1.007,0.011-2.027,0.195-3.003,0.584
	L51.489,65.34c-3.661,1.46-5.275,5.179-3.603,8.303l2.902,5.422c1.673,3.124,5.996,4.472,9.66,3.01l70.478-32.47L203.2,77.845
	c3.743,1.242,7.979-0.359,9.464-3.578l2.577-5.584C216.724,65.465,214.894,61.849,211.151,60.607"/>
<path fill="#CE4E89" d="M167.451,86.524c-0.469-15.793-16.434-28.134-35.657-27.564c-19.224,0.569-34.429,13.834-33.961,29.627
	c0.009,0.285,0.033,0.566,0.051,0.85c-0.045,0.603-0.065,1.219-0.047,1.851l1.215,41.003c0.167,5.634,2.958,10.124,6.234,10.026
	l57.832-1.714c3.275-0.098,5.795-4.743,5.629-10.378l-1.217-41.003c-0.012-0.413-0.041-0.817-0.082-1.217
	C167.463,87.515,167.465,87.021,167.451,86.524"/>
<path fill="#F499C1" d="M165.104,87.911c-0.42-14.193-14.768-25.283-32.042-24.771c-17.276,0.511-30.94,12.433-30.52,26.625
	c0.008,0.256,0.029,0.51,0.046,0.764c-0.042,0.542-0.06,1.096-0.043,1.664l1.093,36.848c0.15,5.063,2.658,9.098,5.601,9.011
	l51.972-1.541c2.942-0.087,5.206-4.262,5.057-9.325l-1.092-36.848c-0.011-0.372-0.038-0.736-0.074-1.094
	C165.116,88.801,165.117,88.356,165.104,87.911"/>
<path fill="#CE4E89" d="M157.67,127.573c0.06,2.013-2.457,3.721-5.619,3.814l-36.265,1.076c-3.163,0.093-5.774-1.462-5.833-3.476
	l-0.685-23.082c-0.06-2.012,2.455-3.719,5.618-3.813l36.266-1.074c3.163-0.094,5.774,1.461,5.834,3.474L157.67,127.573z"/>
<path fill="#FFFFFF" d="M149.293,115.707c0.016,0.528-1.674,1.006-3.773,1.068l-24.079,0.714c-2.1,0.062-3.815-0.316-3.831-0.843
	l-0.18-6.055c-0.015-0.527,1.675-1.006,3.775-1.068l24.078-0.714c2.101-0.062,3.815,0.316,3.832,0.844L149.293,115.707z"/>
<path fill="#CE4E89" d="M156.332,82.438c-0.229-7.668-11.094-13.569-24.271-13.179c-13.178,0.391-23.675,6.924-23.447,14.592
	c0.014,0.487,0.073,0.967,0.17,1.438c-0.079,0.126-0.121,0.254-0.116,0.385l0.342,11.541c0.03,1.007,2.618,1.747,5.78,1.653
	l36.266-1.075c3.163-0.094,5.702-0.986,5.673-1.992l-0.343-11.541c-0.005-0.131-0.053-0.256-0.139-0.378
	C156.315,83.407,156.346,82.925,156.332,82.438"/>
<path fill="#FFFFFF" d="M124.375,83.386c0.098,3.329-2.521,6.108-5.851,6.207c-3.328,0.099-6.108-2.521-6.207-5.85
	c-0.099-3.329,2.521-6.109,5.85-6.208C121.496,77.437,124.276,80.057,124.375,83.386"/>
<path fill="#FFFFFF" d="M139.287,82.944c0.099,3.329-2.521,6.108-5.851,6.207c-3.329,0.099-6.108-2.521-6.207-5.85
	c-0.099-3.329,2.52-6.109,5.85-6.208C136.409,76.995,139.188,79.615,139.287,82.944"/>
<path fill="#FFFFFF" d="M154.093,82.505c0.099,3.33-2.521,6.109-5.85,6.208c-3.329,0.098-6.108-2.521-6.207-5.851
	c-0.099-3.33,2.52-6.108,5.848-6.207C151.215,76.556,153.994,79.176,154.093,82.505"/>
<g opacity="0.2">
	<g>
		<defs>
			<rect id="SVGID_1_" x="74.547" y="51.107" width="118.951" height="46.346"/>
		</defs>
		<clipPath id="SVGID_2_">
			<use xlink:href="#SVGID_1_"  overflow="visible"/>
		</clipPath>
		<path clip-path="url(#SVGID_2_)" fill="#5D5E5E" d="M192.539,75.418c0.171,5.722,1.787,13.799,0.405,19.318
			c-0.801,3.199-2.172,3.027-5.703,2.223c-5.919-1.349-12.229-7.581-17.257-10.995c-6.067-4.12-11.917-8.662-18.752-11.471
			c-5.041-2.072-16.312-4.027-16.312-4.027c-4.488,2.062-11.946,5.389-16.753,7.071c-8.16,2.856-12.454,6.012-20.416,9.346
			c-6.615,2.77-12.074,7.892-19.893,6.469c-4.95-0.899-2.81-11.5-3.065-16.26l55.865-25.983
			C130.659,51.107,192.539,75.417,192.539,75.418"/>
	</g>
</g>
<path fill="#D3AF2A" d="M122.288,130.317c0,3.514-2.707,6.363-6.047,6.363c-3.339,0-6.047-2.849-6.047-6.363
	c0-3.514,2.708-6.361,6.047-6.361C119.582,123.956,122.288,126.804,122.288,130.317"/>
<path fill="#E5BD3B" d="M122.288,130.049c0,3.365-2.707,6.092-6.047,6.092c-3.339,0-6.047-2.727-6.047-6.092
	s2.708-6.094,6.047-6.094C119.582,123.955,122.288,126.684,122.288,130.049"/>
<path fill="#EFC248" d="M121.678,128.581c0,2.555-2.434,4.625-5.437,4.625c-3.002,0-5.438-2.071-5.438-4.625
	c0-2.554,2.436-4.625,5.438-4.625C119.244,123.956,121.678,126.027,121.678,128.581"/>
<path fill="#F5CC67" d="M117.842,125.63c0,0.777-0.992,1.405-2.215,1.405c-1.222,0-2.213-0.628-2.213-1.405
	c0-0.776,0.991-1.405,2.213-1.405C116.85,124.225,117.842,124.854,117.842,125.63"/>
<path fill="#D3AF2A" d="M107.433,139.545c0,3.513-2.707,6.363-6.047,6.363c-3.339,0-6.047-2.85-6.047-6.363s2.708-6.361,6.047-6.361
	C104.726,133.184,107.433,136.032,107.433,139.545"/>
<path fill="#E5BD3B" d="M107.433,139.277c0,3.366-2.707,6.092-6.047,6.092c-3.339,0-6.047-2.726-6.047-6.092
	c0-3.365,2.708-6.093,6.047-6.093C104.726,133.184,107.433,135.912,107.433,139.277"/>
<path fill="#EFC248" d="M106.823,137.809c0,2.555-2.434,4.625-5.438,4.625c-3.001,0-5.437-2.071-5.437-4.625
	c0-2.554,2.436-4.625,5.437-4.625C104.389,133.184,106.823,135.255,106.823,137.809"/>
<path fill="#F5CC67" d="M102.986,134.858c0,0.776-0.991,1.405-2.214,1.405c-1.223,0-2.213-0.629-2.213-1.405
	c0-0.777,0.991-1.406,2.213-1.406C101.996,133.452,102.986,134.082,102.986,134.858"/>
<path fill="#D3AF2A" d="M98.852,132.466c0,4.052-3.121,7.336-6.971,7.336c-3.85,0-6.972-3.284-6.972-7.336
	c0-4.051,3.123-7.334,6.972-7.334C95.731,125.132,98.852,128.415,98.852,132.466"/>
<path fill="#E5BD3B" d="M98.852,132.157c0,3.878-3.121,7.024-6.971,7.024c-3.85,0-6.972-3.146-6.972-7.024
	c0-3.88,3.123-7.025,6.972-7.025C95.731,125.132,98.852,128.277,98.852,132.157"/>
<path fill="#EFC248" d="M98.149,130.464c0,2.944-2.806,5.333-6.268,5.333c-3.461,0-6.269-2.389-6.269-5.333
	c0-2.945,2.808-5.333,6.269-5.333C95.343,125.131,98.149,127.52,98.149,130.464"/>
<path fill="#F5CC67" d="M93.727,127.062c0,0.894-1.143,1.621-2.553,1.621c-1.41,0-2.552-0.727-2.552-1.621
	c0-0.895,1.143-1.62,2.552-1.62C92.583,125.442,93.727,126.167,93.727,127.062"/>
<path fill="#D3AF2A" d="M200.396,124.996c0,3.725-2.868,6.743-6.409,6.743c-3.538,0-6.407-3.019-6.407-6.743
	c0-3.724,2.869-6.743,6.407-6.743C197.528,118.252,200.396,121.271,200.396,124.996"/>
<path fill="#E5BD3B" d="M200.396,124.711c0,3.566-2.868,6.457-6.409,6.457c-3.538,0-6.407-2.891-6.407-6.457
	c0-3.566,2.869-6.458,6.407-6.458C197.528,118.252,200.396,121.145,200.396,124.711"/>
<path fill="#EFC248" d="M199.751,123.155c0,2.707-2.581,4.903-5.764,4.903c-3.182,0-5.762-2.196-5.762-4.903
	c0-2.708,2.58-4.902,5.762-4.902C197.17,118.253,199.751,120.448,199.751,123.155"/>
<path fill="#F5CC67" d="M195.685,120.027c0,0.823-1.052,1.49-2.347,1.49c-1.296,0-2.346-0.667-2.346-1.49
	c0-0.823,1.05-1.489,2.346-1.489C194.633,118.538,195.685,119.204,195.685,120.027"/>
<path fill="#296B35" d="M88.135,133.224c0,3.649-2.891,6.607-6.458,6.607c-3.567,0-6.458-2.958-6.458-6.607
	c0-3.649,2.891-6.608,6.458-6.608C85.244,126.616,88.135,129.575,88.135,133.224"/>
<path fill="#2C783B" d="M88.135,132.944c0,3.495-2.891,6.327-6.458,6.327c-3.567,0-6.458-2.833-6.458-6.327s2.891-6.328,6.458-6.328
	C85.244,126.617,88.135,129.45,88.135,132.944"/>
<path fill="#338942" d="M87.484,131.42c0,2.653-2.6,4.803-5.807,4.803c-3.208,0-5.806-2.15-5.806-4.803
	c0-2.654,2.599-4.804,5.806-4.804C84.884,126.617,87.484,128.766,87.484,131.42"/>
<path fill="#3DA349" d="M83.387,128.355c0,0.807-1.059,1.459-2.365,1.459c-1.305,0-2.365-0.653-2.365-1.459s1.06-1.459,2.365-1.459
	C82.328,126.896,83.387,127.549,83.387,128.355"/>
<path fill="#296B35" d="M119.796,141.377c0,4.229-3.35,7.656-7.482,7.656c-4.132,0-7.481-3.427-7.481-7.656
	c0-4.228,3.35-7.655,7.481-7.655C116.447,133.723,119.796,137.15,119.796,141.377"/>
<path fill="#2C783B" d="M119.796,141.053c0,4.05-3.35,7.332-7.482,7.332c-4.132,0-7.481-3.281-7.481-7.332
	c0-4.048,3.35-7.33,7.481-7.33C116.447,133.723,119.796,137.005,119.796,141.053"/>
<path fill="#338942" d="M119.042,139.289c0,3.073-3.012,5.564-6.728,5.564c-3.715,0-6.726-2.491-6.726-5.564
	c0-3.075,3.01-5.566,6.726-5.566C116.03,133.723,119.042,136.214,119.042,139.289"/>
<path fill="#3DA349" d="M114.295,135.737c0,0.935-1.227,1.691-2.739,1.691c-1.513,0-2.74-0.756-2.74-1.691
	c0-0.934,1.227-1.69,2.74-1.69C113.068,134.047,114.295,134.804,114.295,135.737"/>
<path fill="#296B35" d="M141.629,131.98c0,3.032-2.403,5.489-5.367,5.489c-2.962,0-5.363-2.458-5.363-5.489
	c0-3.031,2.401-5.489,5.363-5.489C139.227,126.492,141.629,128.949,141.629,131.98"/>
<path fill="#2C783B" d="M141.629,131.749c0,2.902-2.403,5.256-5.367,5.256c-2.962,0-5.363-2.354-5.363-5.256
	s2.401-5.256,5.363-5.256C139.227,126.492,141.629,128.846,141.629,131.749"/>
<path fill="#338942" d="M141.087,130.483c0,2.203-2.16,3.989-4.824,3.989c-2.664,0-4.823-1.787-4.823-3.989
	c0-2.205,2.159-3.991,4.823-3.991C138.927,126.492,141.087,128.278,141.087,130.483"/>
<path fill="#3DA349" d="M137.684,127.937c0,0.67-0.879,1.212-1.964,1.212c-1.085,0-1.965-0.542-1.965-1.212s0.88-1.212,1.965-1.212
	C136.805,126.725,137.684,127.267,137.684,127.937"/>
<path fill="#296B35" d="M171.512,140.195c0,4.336-3.437,7.853-7.674,7.853c-4.24,0-7.676-3.517-7.676-7.853
	c0-4.336,3.436-7.852,7.676-7.852C168.075,132.343,171.512,135.859,171.512,140.195"/>
<path fill="#2C783B" d="M171.512,139.863c0,4.152-3.437,7.52-7.674,7.52c-4.24,0-7.676-3.367-7.676-7.52
	c0-4.153,3.436-7.52,7.676-7.52C168.075,132.343,171.512,135.71,171.512,139.863"/>
<path fill="#338942" d="M170.738,138.052c0,3.151-3.091,5.708-6.9,5.708c-3.813,0-6.902-2.556-6.902-5.708
	c0-3.153,3.09-5.709,6.902-5.709C167.647,132.343,170.738,134.899,170.738,138.052"/>
<path fill="#3DA349" d="M165.869,134.41c0,0.958-1.258,1.734-2.811,1.734c-1.552,0-2.811-0.777-2.811-1.734
	c0-0.958,1.259-1.735,2.811-1.735C164.611,132.675,165.869,133.452,165.869,134.41"/>
<path fill="#296B35" d="M128.12,139.006c0,3.641-2.885,6.591-6.443,6.591c-3.558,0-6.442-2.95-6.442-6.591
	c0-3.64,2.884-6.591,6.442-6.591C125.235,132.415,128.12,135.367,128.12,139.006"/>
<path fill="#2C783B" d="M128.12,138.728c0,3.486-2.885,6.313-6.443,6.313c-3.558,0-6.442-2.827-6.442-6.313s2.884-6.312,6.442-6.312
	C125.235,132.416,128.12,135.242,128.12,138.728"/>
<path fill="#338942" d="M127.47,137.208c0,2.646-2.594,4.791-5.792,4.791c-3.199,0-5.792-2.145-5.792-4.791
	c0-2.647,2.593-4.793,5.792-4.793C124.876,132.415,127.47,134.561,127.47,137.208"/>
<path fill="#3DA349" d="M123.383,134.15c0,0.805-1.056,1.456-2.358,1.456c-1.303,0-2.36-0.651-2.36-1.456
	c0-0.804,1.057-1.456,2.36-1.456C122.327,132.694,123.383,133.346,123.383,134.15"/>
<path fill="#296B35" d="M160.706,129.218c0,3.031-2.403,5.489-5.366,5.489s-5.363-2.458-5.363-5.489c0-3.032,2.4-5.489,5.363-5.489
	S160.706,126.187,160.706,129.218"/>
<path fill="#2C783B" d="M160.706,128.985c0,2.903-2.403,5.257-5.366,5.257s-5.363-2.354-5.363-5.257c0-2.902,2.4-5.256,5.363-5.256
	S160.706,126.083,160.706,128.985"/>
<path fill="#338942" d="M160.164,127.72c0,2.203-2.16,3.99-4.824,3.99s-4.822-1.787-4.822-3.99c0-2.204,2.158-3.991,4.822-3.991
	S160.164,125.516,160.164,127.72"/>
<path fill="#3DA349" d="M156.761,125.174c0,0.67-0.88,1.212-1.964,1.212c-1.085,0-1.965-0.542-1.965-1.212s0.88-1.212,1.965-1.212
	C155.881,123.962,156.761,124.504,156.761,125.174"/>
<path fill="#B62157" d="M110.66,130.968c0,3.95-3.203,7.152-7.152,7.152c-3.951,0-7.154-3.202-7.154-7.152
	c0-3.951,3.203-7.154,7.154-7.154C107.458,123.814,110.66,127.018,110.66,130.968"/>
<path fill="#C42566" d="M110.66,130.665c0,3.783-3.203,6.851-7.152,6.851c-3.951,0-7.154-3.067-7.154-6.851s3.203-6.851,7.154-6.851
	C107.458,123.814,110.66,126.881,110.66,130.665"/>
<path fill="#DB3B83" d="M109.939,129.015c0,2.872-2.88,5.2-6.433,5.2c-3.551,0-6.432-2.329-6.432-5.2s2.881-5.201,6.432-5.201
	C107.059,123.814,109.939,126.143,109.939,129.015"/>
<path fill="#E94A9A" d="M105.401,125.697c0,0.872-1.173,1.58-2.62,1.58c-1.446,0-2.619-0.708-2.619-1.58
	c0-0.874,1.173-1.581,2.619-1.581C104.228,124.116,105.401,124.823,105.401,125.697"/>
<path fill="#B62157" d="M210.551,129.787c0,3.951-3.203,7.152-7.152,7.152c-3.951,0-7.154-3.202-7.154-7.152
	c0-3.95,3.203-7.154,7.154-7.154C207.348,122.633,210.551,125.836,210.551,129.787"/>
<path fill="#C42566" d="M210.551,129.483c0,3.783-3.203,6.852-7.152,6.852c-3.951,0-7.154-3.069-7.154-6.852
	c0-3.783,3.203-6.851,7.154-6.851C207.348,122.633,210.551,125.7,210.551,129.483"/>
<path fill="#DB3B83" d="M209.83,127.833c0,2.871-2.88,5.2-6.433,5.2c-3.551,0-6.432-2.329-6.432-5.2
	c0-2.872,2.881-5.201,6.432-5.201C206.95,122.633,209.83,124.961,209.83,127.833"/>
<path fill="#E94A9A" d="M205.292,124.516c0,0.872-1.174,1.58-2.619,1.58c-1.446,0-2.62-0.708-2.62-1.58
	c0-0.874,1.174-1.58,2.62-1.58C204.118,122.936,205.292,123.642,205.292,124.516"/>
<path fill="#B62157" d="M132.669,132.564c0,3.655-2.963,6.617-6.619,6.617c-3.654,0-6.618-2.962-6.618-6.617
	s2.963-6.619,6.618-6.619C129.706,125.945,132.669,128.909,132.669,132.564"/>
<path fill="#C42566" d="M132.669,132.283c0,3.5-2.963,6.338-6.619,6.338c-3.654,0-6.618-2.838-6.618-6.338s2.963-6.339,6.618-6.339
	C129.706,125.944,132.669,128.783,132.669,132.283"/>
<path fill="#DB3B83" d="M132.001,130.757c0,2.657-2.663,4.811-5.951,4.811c-3.286,0-5.95-2.154-5.95-4.811
	c0-2.657,2.664-4.812,5.95-4.812C129.338,125.945,132.001,128.1,132.001,130.757"/>
<path fill="#E94A9A" d="M127.803,127.688c0,0.807-1.086,1.461-2.424,1.461c-1.337,0-2.423-0.654-2.423-1.461
	c0-0.809,1.086-1.462,2.423-1.462C126.717,126.225,127.803,126.879,127.803,127.688"/>
<path fill="#B62157" d="M167.949,131.542c0,2.958-2.398,5.355-5.356,5.355s-5.356-2.397-5.356-5.355
	c0-2.958,2.398-5.356,5.356-5.356S167.949,128.585,167.949,131.542"/>
<path fill="#C42566" d="M167.949,131.315c0,2.833-2.398,5.13-5.356,5.13s-5.356-2.297-5.356-5.13c0-2.833,2.398-5.129,5.356-5.129
	S167.949,128.483,167.949,131.315"/>
<path fill="#DB3B83" d="M167.408,130.08c0,2.15-2.156,3.893-4.815,3.893s-4.815-1.743-4.815-3.893c0-2.151,2.156-3.894,4.815-3.894
	S167.408,127.929,167.408,130.08"/>
<path fill="#E94A9A" d="M164.011,127.596c0,0.653-0.878,1.183-1.962,1.183c-1.082,0-1.961-0.53-1.961-1.183
	c0-0.654,0.879-1.184,1.961-1.184C163.133,126.413,164.011,126.942,164.011,127.596"/>
<path fill="#B62157" d="M169.576,146.335c0,3.857-3.127,6.984-6.983,6.984c-3.857,0-6.985-3.127-6.985-6.984
	c0-3.857,3.128-6.985,6.985-6.985C166.449,139.35,169.576,142.478,169.576,146.335"/>
<path fill="#C42566" d="M169.576,146.038c0,3.694-3.127,6.69-6.983,6.69c-3.857,0-6.985-2.996-6.985-6.69
	c0-3.693,3.128-6.688,6.985-6.688C166.449,139.35,169.576,142.345,169.576,146.038"/>
<path fill="#DB3B83" d="M168.871,144.428c0,2.803-2.811,5.076-6.278,5.076s-6.278-2.273-6.278-5.076
	c0-2.805,2.811-5.078,6.278-5.078S168.871,141.623,168.871,144.428"/>
<path fill="#E94A9A" d="M164.442,141.188c0,0.853-1.146,1.542-2.559,1.542c-1.412,0-2.558-0.69-2.558-1.542
	c0-0.854,1.146-1.543,2.558-1.543C163.297,139.645,164.442,140.335,164.442,141.188"/>
<path fill="#006E7F" d="M139.955,140.879c0,3.267-2.649,5.916-5.916,5.916c-3.268,0-5.915-2.648-5.915-5.916
	c0-3.268,2.647-5.916,5.915-5.916C137.306,134.964,139.955,137.612,139.955,140.879"/>
<path fill="#0A828E" d="M139.955,140.629c0,3.127-2.649,5.664-5.916,5.664c-3.268,0-5.915-2.536-5.915-5.664
	c0-3.129,2.647-5.665,5.915-5.665C137.306,134.964,139.955,137.5,139.955,140.629"/>
<path fill="#11949B" d="M139.358,139.265c0,2.375-2.381,4.3-5.318,4.3c-2.938,0-5.319-1.925-5.319-4.3c0-2.375,2.381-4.3,5.319-4.3
	C136.977,134.964,139.358,136.889,139.358,139.265"/>
<path fill="#16AFAE" d="M135.605,136.521c0,0.722-0.969,1.307-2.165,1.307c-1.196,0-2.166-0.585-2.166-1.307
	c0-0.722,0.97-1.307,2.166-1.307C134.636,135.214,135.605,135.798,135.605,136.521"/>
<path fill="#006E7F" d="M148.771,148.428c0,3.967-3.217,7.183-7.183,7.183c-3.968,0-7.183-3.216-7.183-7.183
	c0-3.97,3.215-7.185,7.183-7.185C145.554,141.243,148.771,144.458,148.771,148.428"/>
<path fill="#0A828E" d="M148.771,148.122c0,3.799-3.217,6.88-7.183,6.88c-3.968,0-7.183-3.081-7.183-6.88
	c0-3.8,3.215-6.879,7.183-6.879C145.554,141.243,148.771,144.322,148.771,148.122"/>
<path fill="#11949B" d="M148.045,146.467c0,2.883-2.891,5.221-6.458,5.221c-3.568,0-6.458-2.338-6.458-5.221
	c0-2.887,2.89-5.224,6.458-5.224C145.154,141.243,148.045,143.58,148.045,146.467"/>
<path fill="#16AFAE" d="M143.488,143.134c0,0.876-1.178,1.587-2.629,1.587c-1.454,0-2.63-0.711-2.63-1.587
	c0-0.877,1.176-1.587,2.63-1.587C142.311,141.547,143.488,142.257,143.488,143.134"/>
<path fill="#006E7F" d="M193.195,135.3c0,3.595-2.913,6.51-6.508,6.51c-3.596,0-6.509-2.915-6.509-6.51
	c0-3.595,2.913-6.509,6.509-6.509C190.282,128.792,193.195,131.705,193.195,135.3"/>
<path fill="#0A828E" d="M193.195,135.024c0,3.442-2.913,6.234-6.508,6.234c-3.596,0-6.509-2.792-6.509-6.234
	c0-3.441,2.913-6.232,6.509-6.232C190.282,128.792,193.195,131.583,193.195,135.024"/>
<path fill="#11949B" d="M192.539,133.524c0,2.611-2.62,4.732-5.852,4.732c-3.233,0-5.852-2.121-5.852-4.732
	c0-2.614,2.618-4.732,5.852-4.732C189.919,128.792,192.539,130.91,192.539,133.524"/>
<path fill="#16AFAE" d="M188.409,130.504c0,0.794-1.066,1.438-2.383,1.438c-1.315,0-2.382-0.644-2.382-1.438
	s1.066-1.438,2.382-1.438C187.343,129.067,188.409,129.71,188.409,130.504"/>
<path fill="#006E7F" d="M159.918,154.729c0,4.377-3.547,7.925-7.922,7.925c-4.377,0-7.924-3.548-7.924-7.925
	s3.547-7.923,7.924-7.923C156.371,146.806,159.918,150.352,159.918,154.729"/>
<path fill="#0A828E" d="M159.918,154.393c0,4.191-3.547,7.588-7.922,7.588c-4.377,0-7.924-3.396-7.924-7.588
	c0-4.189,3.547-7.587,7.924-7.587C156.371,146.806,159.918,150.203,159.918,154.393"/>
<path fill="#11949B" d="M159.119,152.566c0,3.18-3.188,5.759-7.123,5.759c-3.936,0-7.125-2.579-7.125-5.759
	c0-3.182,3.189-5.761,7.125-5.761C155.931,146.806,159.119,149.385,159.119,152.566"/>
<path fill="#16AFAE" d="M154.093,148.891c0,0.967-1.299,1.75-2.9,1.75c-1.603,0-2.9-0.783-2.9-1.75s1.298-1.751,2.9-1.751
	C152.794,147.14,154.093,147.924,154.093,148.891"/>
<path fill="#006E7F" d="M179.051,130.531c0,3.064-2.484,5.548-5.548,5.548c-3.065,0-5.548-2.484-5.548-5.548
	c0-3.064,2.482-5.548,5.548-5.548C176.566,124.983,179.051,127.467,179.051,130.531"/>
<path fill="#0A828E" d="M179.051,130.295c0,2.935-2.484,5.314-5.548,5.314c-3.065,0-5.548-2.379-5.548-5.314
	c0-2.934,2.482-5.313,5.548-5.313C176.566,124.982,179.051,127.361,179.051,130.295"/>
<path fill="#11949B" d="M178.49,129.017c0,2.226-2.232,4.033-4.987,4.033c-2.756,0-4.989-1.807-4.989-4.033
	c0-2.228,2.233-4.034,4.989-4.034C176.258,124.983,178.49,126.789,178.49,129.017"/>
<path fill="#16AFAE" d="M174.971,126.443c0,0.677-0.909,1.226-2.031,1.226s-2.031-0.548-2.031-1.226
	c0-0.677,0.909-1.226,2.031-1.226S174.971,125.766,174.971,126.443"/>
<path fill="#D3AF2A" d="M181.631,139.181c0,4.153-3.2,7.521-7.149,7.521c-3.946,0-7.147-3.368-7.147-7.521
	c0-4.154,3.201-7.521,7.147-7.521C178.431,131.659,181.631,135.027,181.631,139.181"/>
<path fill="#E5BD3B" d="M181.631,138.863c0,3.978-3.2,7.203-7.149,7.203c-3.946,0-7.147-3.225-7.147-7.203
	c0-3.979,3.201-7.204,7.147-7.204C178.431,131.659,181.631,134.884,181.631,138.863"/>
<path fill="#EFC248" d="M180.91,137.127c0,3.02-2.877,5.468-6.428,5.468c-3.549,0-6.428-2.448-6.428-5.468
	c0-3.019,2.879-5.468,6.428-5.468C178.033,131.66,180.91,134.108,180.91,137.127"/>
<path fill="#F5CC67" d="M176.375,133.639c0,0.917-1.172,1.661-2.617,1.661s-2.617-0.744-2.617-1.661
	c0-0.918,1.172-1.662,2.617-1.662S176.375,132.72,176.375,133.639"/>
<path fill="#D3AF2A" d="M169.581,162.602c0,4.539-3.497,8.221-7.813,8.221c-4.314,0-7.813-3.682-7.813-8.221
	s3.498-8.221,7.813-8.221C166.084,154.381,169.581,158.063,169.581,162.602"/>
<path fill="#E5BD3B" d="M169.581,162.254c0,4.348-3.497,7.872-7.813,7.872c-4.314,0-7.813-3.524-7.813-7.872
	c0-4.347,3.498-7.873,7.813-7.873C166.084,154.381,169.581,157.907,169.581,162.254"/>
<path fill="#EFC248" d="M168.793,160.357c0,3.301-3.145,5.977-7.025,5.977c-3.878,0-7.024-2.676-7.024-5.977
	c0-3.299,3.146-5.977,7.024-5.977C165.648,154.381,168.793,157.059,168.793,160.357"/>
<path fill="#F5CC67" d="M163.838,156.545c0,1.002-1.282,1.815-2.862,1.815c-1.579,0-2.86-0.813-2.86-1.815
	c0-1.004,1.281-1.815,2.86-1.815C162.556,154.729,163.838,155.541,163.838,156.545"/>
<path fill="#D3AF2A" d="M151.383,133.722c0,3.514-2.707,6.363-6.047,6.363s-6.047-2.849-6.047-6.363
	c0-3.513,2.708-6.362,6.047-6.362S151.383,130.209,151.383,133.722"/>
<path fill="#E5BD3B" d="M151.383,133.454c0,3.365-2.707,6.093-6.047,6.093s-6.047-2.728-6.047-6.093
	c0-3.365,2.708-6.093,6.047-6.093S151.383,130.088,151.383,133.454"/>
<path fill="#EFC248" d="M150.773,131.985c0,2.555-2.435,4.626-5.438,4.626c-3.002,0-5.438-2.071-5.438-4.626
	c0-2.554,2.436-4.625,5.438-4.625C148.339,127.36,150.773,129.432,150.773,131.985"/>
<path fill="#F5CC67" d="M146.938,129.035c0,0.775-0.992,1.405-2.215,1.405s-2.213-0.63-2.213-1.405c0-0.777,0.991-1.406,2.213-1.406
	S146.938,128.258,146.938,129.035"/>
<path fill="#296B35" d="M149.516,142.956c0,4.228-3.35,7.655-7.482,7.655c-4.132,0-7.481-3.428-7.481-7.655
	c0-4.229,3.35-7.655,7.481-7.655C146.166,135.301,149.516,138.728,149.516,142.956"/>
<path fill="#2C783B" d="M149.516,142.631c0,4.049-3.35,7.332-7.482,7.332c-4.132,0-7.481-3.282-7.481-7.332
	c0-4.048,3.35-7.331,7.481-7.331C146.166,135.301,149.516,138.583,149.516,142.631"/>
<path fill="#338942" d="M148.762,140.866c0,3.073-3.014,5.564-6.729,5.564c-3.716,0-6.726-2.491-6.726-5.564
	c0-3.074,3.01-5.565,6.726-5.565C145.748,135.301,148.762,137.792,148.762,140.866"/>
<path fill="#3DA349" d="M144.014,137.315c0,0.935-1.226,1.69-2.739,1.69c-1.514,0-2.739-0.756-2.739-1.69
	c0-0.934,1.226-1.691,2.739-1.691C142.788,135.625,144.014,136.381,144.014,137.315"/>
<path fill="#D3AF2A" d="M136.585,142.631c0,4.154-3.2,7.522-7.148,7.522c-3.948,0-7.149-3.368-7.149-7.522
	c0-4.153,3.201-7.522,7.149-7.522C133.385,135.109,136.585,138.478,136.585,142.631"/>
<path fill="#E5BD3B" d="M136.585,142.313c0,3.978-3.2,7.204-7.148,7.204c-3.948,0-7.149-3.226-7.149-7.204s3.201-7.203,7.149-7.203
	C133.385,135.11,136.585,138.335,136.585,142.313"/>
<path fill="#EFC248" d="M135.865,140.578c0,3.02-2.877,5.469-6.428,5.469c-3.549,0-6.429-2.449-6.429-5.469
	c0-3.019,2.879-5.468,6.429-5.468C132.987,135.11,135.865,137.559,135.865,140.578"/>
<path fill="#F5CC67" d="M131.33,137.09c0,0.917-1.172,1.661-2.618,1.661c-1.445,0-2.616-0.744-2.616-1.661
	c0-0.918,1.171-1.662,2.616-1.662C130.157,135.428,131.33,136.171,131.33,137.09"/>
<path fill="#B62157" d="M162.494,139.266c0,3.95-3.203,7.152-7.154,7.152c-3.949,0-7.152-3.202-7.152-7.152
	c0-3.952,3.203-7.155,7.152-7.155C159.291,132.111,162.494,135.314,162.494,139.266"/>
<path fill="#C42566" d="M162.494,138.962c0,3.783-3.203,6.851-7.154,6.851c-3.949,0-7.152-3.068-7.152-6.851
	c0-3.783,3.203-6.852,7.152-6.852C159.291,132.11,162.494,135.179,162.494,138.962"/>
<path fill="#DB3B83" d="M161.773,137.313c0,2.872-2.881,5.2-6.434,5.2c-3.551,0-6.432-2.328-6.432-5.2
	c0-2.872,2.881-5.202,6.432-5.202C158.893,132.11,161.773,134.44,161.773,137.313"/>
<path fill="#E94A9A" d="M157.234,133.995c0,0.873-1.173,1.579-2.619,1.579c-1.445,0-2.619-0.706-2.619-1.579
	c0-0.874,1.174-1.581,2.619-1.581C156.062,132.414,157.234,133.121,157.234,133.995"/>
<path fill="#B62157" d="M169.646,172.153c0,3.951-3.202,7.152-7.152,7.152c-3.951,0-7.154-3.201-7.154-7.152
	c0-3.95,3.203-7.153,7.154-7.153C166.444,165,169.646,168.203,169.646,172.153"/>
<path fill="#C42566" d="M169.646,171.85c0,3.783-3.202,6.852-7.152,6.852c-3.951,0-7.154-3.068-7.154-6.852
	c0-3.782,3.203-6.851,7.154-6.851C166.444,164.999,169.646,168.067,169.646,171.85"/>
<path fill="#DB3B83" d="M168.926,170.201c0,2.87-2.879,5.198-6.432,5.198c-3.552,0-6.432-2.328-6.432-5.198
	c0-2.873,2.88-5.203,6.432-5.203C166.047,164.998,168.926,167.328,168.926,170.201"/>
<path fill="#E94A9A" d="M164.388,166.883c0,0.873-1.173,1.579-2.62,1.579c-1.445,0-2.619-0.706-2.619-1.579s1.174-1.581,2.619-1.581
	C163.215,165.302,164.388,166.01,164.388,166.883"/>
<path fill="#B62157" d="M173.455,153.186c0,3.951-3.203,7.152-7.153,7.152s-7.153-3.201-7.153-7.152c0-3.95,3.203-7.154,7.153-7.154
	S173.455,149.235,173.455,153.186"/>
<path fill="#C42566" d="M173.455,152.883c0,3.783-3.203,6.852-7.153,6.852s-7.153-3.068-7.153-6.852
	c0-3.784,3.203-6.852,7.153-6.852S173.455,149.099,173.455,152.883"/>
<path fill="#DB3B83" d="M172.733,151.232c0,2.871-2.88,5.201-6.432,5.201s-6.432-2.33-6.432-5.201c0-2.872,2.88-5.201,6.432-5.201
	S172.733,148.36,172.733,151.232"/>
<path fill="#E94A9A" d="M168.195,147.915c0,0.872-1.172,1.579-2.619,1.579c-1.445,0-2.619-0.707-2.619-1.579
	c0-0.874,1.174-1.581,2.619-1.581C167.023,146.334,168.195,147.041,168.195,147.915"/>
<path fill="#652C8F" d="M162.292,177.748c-1.904-20.576,16.54-44.077,49.085-54.085c32.543-10.01,63.333-2.021,68.767,17.84
	c0.097,0.358,0.169,0.723,0.248,1.084c0.315,0.72,0.59,1.476,0.809,2.271l-8.428,60.16c-0.556,10.201-0.984,14.213-6.527,15.918
	l-88.587,22.476c-5.546,1.705-11.793-1.074-13.732-8.159C163.926,235.252,162.348,178.369,162.292,177.748"/>
<path fill="#92278F" d="M281.069,146.824c-0.075-0.34-0.142-0.681-0.233-1.016c-5.094-18.617-33.867-26.129-64.269-16.779
	c-30.399,9.35-46.366,34.191-45.821,50.637c0.02,0.584,1.679,57.493,1.679,57.493c0.272,9.235,7.552,5.64,12.731,4.049
	l82.757-20.981c5.178-1.596,5.575-5.352,6.087-14.911l7.826-56.363C281.621,148.208,281.363,147.5,281.069,146.824 M183.484,238.384
	c-1.464,0.059-2.696-1.058-2.752-2.494l-2.235-57.898c-0.057-1.437,1.085-2.647,2.551-2.707c1.465-0.058,2.697,1.06,2.754,2.495
	l2.235,57.896C186.092,237.114,184.949,238.324,183.484,238.384 M201.091,233.053c-1.466,0.035-2.683-1.161-2.72-2.672
	l-1.479-60.908c-0.037-1.511,1.121-2.764,2.587-2.798c1.465-0.035,2.685,1.161,2.72,2.673l1.48,60.907
	C203.716,231.766,202.556,233.02,201.091,233.053 M216.951,229.006c-1.466,0.015-2.669-1.245-2.689-2.811l-0.781-63.166
	c-0.02-1.566,1.152-2.85,2.618-2.864s2.671,1.243,2.69,2.812l0.781,63.165C219.59,227.708,218.417,228.991,216.951,229.006
	 M234.367,222.091c-0.025,1.615-1.233,2.9-2.7,2.869c-1.466-0.031-2.633-1.369-2.609-2.983l1.007-65.144
	c0.024-1.617,1.232-2.901,2.699-2.87c1.465,0.033,2.635,1.368,2.608,2.984L234.367,222.091z M249.09,218.181
	c-0.07,1.57-1.315,2.776-2.78,2.697c-1.464-0.083-2.593-1.422-2.523-2.992l2.862-63.273c0.071-1.569,1.316-2.776,2.78-2.695
	s2.593,1.419,2.523,2.989L249.09,218.181z M254.59,139.754c-0.496,0.804-1.281,1.404-2.236,1.605
	c-1.237,0.061-2.478,0.082-3.719,0.075c-12.999-1.85-26.688-0.129-37.892,7.063c-1.035,0.589-2.062,1.188-3.08,1.788
	c-0.846,0.369-1.696,0.713-2.552,1.026c-0.854,0.313-1.713,0.599-2.579,0.85c-0.953,0.214-1.897-0.013-2.653-0.544
	c-0.754-0.533-1.321-1.371-1.519-2.392c-0.198-1.019,0.011-2.024,0.506-2.829c0.934-0.427,1.868-0.861,2.806-1.298
	c0.936-0.438,1.874-0.877,2.813-1.318c1.188-0.709,2.394-1.38,3.61-2.014c11.413-7,25.477-8.802,38.776-7.243
	c1.259,0.02,2.512,0.037,3.76,0.048c0.985-0.006,1.969-0.02,2.944-0.038c0.757,0.531,1.322,1.371,1.521,2.391
	C255.295,137.944,255.086,138.951,254.59,139.754 M264.604,214.317c-0.077,1.475-1.327,2.596-2.791,2.503
	c-1.463-0.093-2.587-1.364-2.51-2.839l3.11-59.46c0.076-1.475,1.324-2.596,2.789-2.502c1.464,0.094,2.588,1.364,2.511,2.839
	L264.604,214.317z"/>
<g opacity="0.6">
	<g>
		<defs>
			<rect id="SVGID_3_" x="163.596" y="171.889" width="115.045" height="71.973"/>
		</defs>
		<clipPath id="SVGID_4_">
			<use xlink:href="#SVGID_3_"  overflow="visible"/>
		</clipPath>
		<path clip-path="url(#SVGID_4_)" fill="#333366" d="M173.516,222.279c2.25-0.337,4.508-1.024,6.604-1.656
			c8.201-2.471,15.088-6.554,22.852-10.193c17.15-8.038,33.66-16.785,50.651-25.299c4.027-2.019,25.02-13.242,25.02-13.242
			s-2.795,20.155-3.23,23.267c-0.441,3.156-1.411,10.162-1.411,10.162c-0.531,12.319-2.212,13.913-7.755,15.618
			c0,0-88.563,22.47-88.587,22.476c-8.699,2.206-13.548-4.074-14.019-10.653C163.315,228.219,164.604,223.615,173.516,222.279"/>
	</g>
</g>
<g opacity="0.3">
	<g>
		<defs>
			<rect id="SVGID_5_" x="201.268" y="119.131" width="62.572" height="15.233"/>
		</defs>
		<clipPath id="SVGID_6_">
			<use xlink:href="#SVGID_5_"  overflow="visible"/>
		</clipPath>
		<path clip-path="url(#SVGID_6_)" fill="#FFFFFF" d="M201.405,132.738c1.246,3.167,4.706,0.929,6.676-0.216
			c0.988-0.574,2.849-1.548,3.917-1.999c3.951-1.663,7.574-2.967,11.791-4.062c2.686-0.697,6.079-1.312,8.842-1.751
			c2.822-0.449,5.675-0.763,8.539-0.949c0.991-0.065,1.982-0.111,2.974-0.143c1.755-0.054,3.512-0.064,5.269-0.055
			c1.713,0.009,3.435,0.013,5.149,0.084c1.965,0.084,3.932,0.221,5.888,0.396c0.65,0.059,1.288,0.215,1.946,0.188
			c0.476-0.021,0.99-0.03,1.296-0.41c0.257-0.319,0.156-0.77-0.129-1.051c-0.504-0.502-1.339-0.793-2.037-1.042
			c-1.011-0.364-2.06-0.65-3.112-0.91c-1.559-0.387-3.145-0.74-4.74-0.992c-5.051-0.793-9.953-0.828-14.739-0.502
			c-3.364,0.229-6.669,0.641-9.912,1.212c-4.644,0.819-9.208,1.946-13.644,3.368c-1.698,0.544-3.268,1.212-4.8,1.927
			C208.344,126.871,200.104,129.427,201.405,132.738"/>
	</g>
</g>
<g opacity="0.3">
	<g>
		<defs>
			<rect id="SVGID_7_" x="53.747" y="27.798" width="155.897" height="38.332"/>
		</defs>
		<clipPath id="SVGID_8_">
			<use xlink:href="#SVGID_7_"  overflow="visible"/>
		</clipPath>
		<path clip-path="url(#SVGID_8_)" fill="#FFFFFF" d="M207.037,57.287L132.91,28.204c-0.593-0.238-1.182-0.361-1.724-0.396
			c-0.03-0.002-0.059-0.005-0.09-0.007c-0.105-0.005-0.208-0.004-0.309-0.001c-0.131,0.001-0.264,0.008-0.401,0.023
			c-0.004,0-0.009,0.001-0.013,0.002c-0.55,0.06-1.143,0.216-1.735,0.492L56.207,61.954c-1.765,0.819-2.816,2.301-2.349,3.308
			c0.468,1.007,2.278,1.16,4.043,0.341l72.431-33.637c0.186-0.086,0.359-0.184,0.528-0.284c0.177,0.092,0.359,0.178,0.552,0.256
			L205.54,61.02c1.807,0.725,3.605,0.476,4.02-0.556C209.972,59.433,208.844,58.011,207.037,57.287"/>
	</g>
</g>
<g opacity="0.3">
	<g>
		<defs>
			<rect id="SVGID_9_" x="61.108" y="69.192" width="7.53" height="7.53"/>
		</defs>
		<clipPath id="SVGID_10_">
			<use xlink:href="#SVGID_9_"  overflow="visible"/>
		</clipPath>
		<path clip-path="url(#SVGID_10_)" fill="#FFFFFF" d="M68.636,72.846c0.062,2.078-1.573,3.813-3.651,3.875
			s-3.814-1.573-3.875-3.651c-0.062-2.08,1.574-3.814,3.653-3.876C66.84,69.131,68.575,70.767,68.636,72.846"/>
	</g>
</g>
<g opacity="0.3">
	<g>
		<defs>
			<rect id="SVGID_11_" x="72.187" y="64.009" width="7.53" height="7.531"/>
		</defs>
		<clipPath id="SVGID_12_">
			<use xlink:href="#SVGID_11_"  overflow="visible"/>
		</clipPath>
		<path clip-path="url(#SVGID_12_)" fill="#FFFFFF" d="M79.715,67.663c0.062,2.078-1.573,3.813-3.651,3.875
			s-3.814-1.573-3.875-3.651c-0.062-2.079,1.574-3.813,3.653-3.876C77.919,63.949,79.654,65.585,79.715,67.663"/>
	</g>
</g>
<g opacity="0.3">
	<g>
		<defs>
			<rect id="SVGID_13_" x="83.266" y="58.828" width="7.53" height="7.53"/>
		</defs>
		<clipPath id="SVGID_14_">
			<use xlink:href="#SVGID_13_"  overflow="visible"/>
		</clipPath>
		<path clip-path="url(#SVGID_14_)" fill="#FFFFFF" d="M90.794,62.481c0.062,2.079-1.574,3.813-3.652,3.875
			c-2.078,0.062-3.813-1.573-3.875-3.651c-0.063-2.079,1.574-3.814,3.652-3.876S90.732,60.403,90.794,62.481"/>
	</g>
</g>
<g opacity="0.3">
	<g>
		<defs>
			<rect id="SVGID_15_" x="94.345" y="53.646" width="7.529" height="7.529"/>
		</defs>
		<clipPath id="SVGID_16_">
			<use xlink:href="#SVGID_15_"  overflow="visible"/>
		</clipPath>
		<path clip-path="url(#SVGID_16_)" fill="#FFFFFF" d="M101.873,57.299c0.062,2.078-1.574,3.813-3.652,3.875
			s-3.813-1.573-3.875-3.652c-0.063-2.079,1.574-3.813,3.652-3.875C100.077,53.585,101.812,55.221,101.873,57.299"/>
	</g>
</g>
<g opacity="0.3">
	<g>
		<defs>
			<rect id="SVGID_17_" x="105.424" y="48.463" width="7.53" height="7.531"/>
		</defs>
		<clipPath id="SVGID_18_">
			<use xlink:href="#SVGID_17_"  overflow="visible"/>
		</clipPath>
		<path clip-path="url(#SVGID_18_)" fill="#FFFFFF" d="M112.952,52.117c0.062,2.078-1.574,3.813-3.652,3.875
			c-2.078,0.062-3.813-1.573-3.875-3.651c-0.063-2.079,1.574-3.814,3.651-3.876C111.156,48.403,112.891,50.039,112.952,52.117"/>
	</g>
</g>
<g opacity="0.3">
	<g>
		<defs>
			<rect id="SVGID_19_" x="116.503" y="43.281" width="7.53" height="7.53"/>
		</defs>
		<clipPath id="SVGID_20_">
			<use xlink:href="#SVGID_19_"  overflow="visible"/>
		</clipPath>
		<path clip-path="url(#SVGID_20_)" fill="#FFFFFF" d="M124.031,46.935c0.062,2.078-1.574,3.813-3.652,3.875
			c-2.079,0.062-3.813-1.574-3.875-3.652c-0.062-2.079,1.573-3.813,3.651-3.875C122.233,43.221,123.97,44.856,124.031,46.935"/>
	</g>
</g>
<g opacity="0.3">
	<g>
		<defs>
			<rect id="SVGID_21_" x="127.582" y="38.099" width="7.53" height="7.531"/>
		</defs>
		<clipPath id="SVGID_22_">
			<use xlink:href="#SVGID_21_"  overflow="visible"/>
		</clipPath>
		<path clip-path="url(#SVGID_22_)" fill="#FFFFFF" d="M135.11,41.752c0.062,2.078-1.574,3.813-3.652,3.875
			c-2.078,0.062-3.813-1.573-3.875-3.652c-0.062-2.079,1.573-3.814,3.651-3.875C133.313,38.039,135.049,39.674,135.11,41.752"/>
	</g>
</g>
<g opacity="0.3">
	<g>
		<defs>
			<rect id="SVGID_23_" x="195.581" y="65.695" width="7.53" height="7.532"/>
		</defs>
		<clipPath id="SVGID_24_">
			<use xlink:href="#SVGID_23_"  overflow="visible"/>
		</clipPath>
		<path clip-path="url(#SVGID_24_)" fill="#FFFFFF" d="M195.582,69.545c0.047,2.079,1.77,3.727,3.848,3.68
			c2.08-0.047,3.729-1.769,3.681-3.848c-0.047-2.079-1.77-3.726-3.849-3.68C197.184,65.743,195.535,67.466,195.582,69.545"/>
	</g>
</g>
<g opacity="0.3">
	<g>
		<defs>
			<rect id="SVGID_25_" x="184.248" y="61.096" width="7.53" height="7.531"/>
		</defs>
		<clipPath id="SVGID_26_">
			<use xlink:href="#SVGID_25_"  overflow="visible"/>
		</clipPath>
		<path clip-path="url(#SVGID_26_)" fill="#FFFFFF" d="M184.249,64.945c0.048,2.079,1.769,3.727,3.849,3.681
			c2.078-0.048,3.726-1.77,3.68-3.849c-0.047-2.079-1.77-3.727-3.849-3.68C185.852,61.143,184.203,62.866,184.249,64.945"/>
	</g>
</g>
<g opacity="0.3">
	<g>
		<defs>
			<rect id="SVGID_27_" x="172.915" y="56.496" width="7.53" height="7.531"/>
		</defs>
		<clipPath id="SVGID_28_">
			<use xlink:href="#SVGID_27_"  overflow="visible"/>
		</clipPath>
		<path clip-path="url(#SVGID_28_)" fill="#FFFFFF" d="M172.916,60.346c0.047,2.078,1.77,3.727,3.848,3.68
			c2.079-0.047,3.727-1.77,3.681-3.848c-0.047-2.08-1.77-3.727-3.848-3.681C174.518,56.544,172.869,58.267,172.916,60.346"/>
	</g>
</g>
<g opacity="0.3">
	<g>
		<defs>
			<rect id="SVGID_29_" x="161.582" y="51.897" width="7.529" height="7.531"/>
		</defs>
		<clipPath id="SVGID_30_">
			<use xlink:href="#SVGID_29_"  overflow="visible"/>
		</clipPath>
		<path clip-path="url(#SVGID_30_)" fill="#FFFFFF" d="M161.583,55.747c0.047,2.079,1.769,3.727,3.848,3.68
			c2.08-0.046,3.728-1.769,3.681-3.848c-0.047-2.079-1.77-3.727-3.85-3.68C163.184,51.944,161.535,53.667,161.583,55.747"/>
	</g>
</g>
<g opacity="0.3">
	<g>
		<defs>
			<rect id="SVGID_31_" x="150.248" y="47.297" width="7.531" height="7.531"/>
		</defs>
		<clipPath id="SVGID_32_">
			<use xlink:href="#SVGID_31_"  overflow="visible"/>
		</clipPath>
		<path clip-path="url(#SVGID_32_)" fill="#FFFFFF" d="M150.249,51.147c0.048,2.079,1.771,3.726,3.849,3.68
			c2.078-0.047,3.727-1.769,3.681-3.848s-1.771-3.727-3.85-3.681C151.852,47.345,150.203,49.068,150.249,51.147"/>
	</g>
</g>
<g opacity="0.3">
	<g>
		<defs>
			<rect id="SVGID_33_" x="138.916" y="42.697" width="7.53" height="7.531"/>
		</defs>
		<clipPath id="SVGID_34_">
			<use xlink:href="#SVGID_33_"  overflow="visible"/>
		</clipPath>
		<path clip-path="url(#SVGID_34_)" fill="#FFFFFF" d="M138.917,46.548c0.046,2.078,1.768,3.726,3.849,3.68
			c2.078-0.047,3.725-1.77,3.679-3.848c-0.047-2.081-1.769-3.728-3.849-3.682C140.518,42.746,138.87,44.469,138.917,46.548"/>
	</g>
</g>
<g opacity="0.3">
	<g>
		<defs>
			<rect id="SVGID_35_" x="127.582" y="38.099" width="7.53" height="7.531"/>
		</defs>
		<clipPath id="SVGID_36_">
			<use xlink:href="#SVGID_35_"  overflow="visible"/>
		</clipPath>
		<path clip-path="url(#SVGID_36_)" fill="#FFFFFF" d="M127.583,41.948c0.046,2.078,1.769,3.726,3.848,3.68
			c2.079-0.047,3.728-1.77,3.681-3.849c-0.047-2.08-1.771-3.727-3.849-3.681C129.184,38.146,127.535,39.869,127.583,41.948"/>
	</g>
</g>
<g opacity="0.3">
	<g>
		<defs>
			<rect id="SVGID_37_" x="49.602" y="97.454" width="5.734" height="4.277"/>
		</defs>
		<clipPath id="SVGID_38_">
			<use xlink:href="#SVGID_37_"  overflow="visible"/>
		</clipPath>
		<path clip-path="url(#SVGID_38_)" fill="#FFFFFF" d="M55.267,100.251c-0.225,0.957-0.933,1.61-1.579,1.457l-3.254-0.765
			c-0.646-0.153-0.989-1.052-0.763-2.009c0.225-0.957,0.933-1.61,1.579-1.458l3.254,0.766
			C55.15,98.393,55.493,99.294,55.267,100.251"/>
	</g>
</g>
<g opacity="0.3">
	<g>
		<defs>
			<rect id="SVGID_39_" x="211.899" y="88.75" width="4.876" height="4.443"/>
		</defs>
		<clipPath id="SVGID_40_">
			<use xlink:href="#SVGID_39_"  overflow="visible"/>
		</clipPath>
		<path clip-path="url(#SVGID_40_)" fill="#FFFFFF" d="M216.555,90.058c0.375,0.909,0.262,1.818-0.249,2.028l-2.578,1.063
			c-0.513,0.211-1.231-0.355-1.606-1.264c-0.374-0.909-0.264-1.818,0.25-2.029l2.577-1.062
			C215.46,88.583,216.18,89.148,216.555,90.058"/>
	</g>
</g>
<g opacity="0.3">
	<g>
		<defs>
			<rect id="SVGID_41_" x="236.686" y="95.2" width="3.949" height="4.112"/>
		</defs>
		<clipPath id="SVGID_42_">
			<use xlink:href="#SVGID_41_"  overflow="visible"/>
		</clipPath>
		<path clip-path="url(#SVGID_42_)" fill="#FFFFFF" d="M240.442,96.655c0.314,0.932,0.234,1.8-0.178,1.938l-2.071,0.7
			c-0.412,0.139-1.001-0.503-1.314-1.436c-0.314-0.931-0.236-1.8,0.175-1.938l2.074-0.699
			C239.539,95.082,240.129,95.723,240.442,96.655"/>
	</g>
</g>
<g opacity="0.3">
	<g>
		<defs>
			<rect id="SVGID_43_" x="262.249" y="109.401" width="3.134" height="3.917"/>
		</defs>
		<clipPath id="SVGID_44_">
			<use xlink:href="#SVGID_43_"  overflow="visible"/>
		</clipPath>
		<path clip-path="url(#SVGID_44_)" fill="#FFFFFF" d="M265.143,110.912c0.314,0.931,0.32,1.771,0.015,1.875l-1.544,0.521
			c-0.308,0.103-0.812-0.568-1.125-1.5c-0.313-0.931-0.32-1.772-0.014-1.875l1.543-0.521
			C264.325,109.308,264.829,109.979,265.143,110.912"/>
	</g>
</g>
<g opacity="0.3">
	<g>
		<defs>
			<rect id="SVGID_45_" x="30.068" y="113.39" width="4.638" height="4.105"/>
		</defs>
		<clipPath id="SVGID_46_">
			<use xlink:href="#SVGID_45_"  overflow="visible"/>
		</clipPath>
		<path clip-path="url(#SVGID_46_)" fill="#FFFFFF" d="M34.62,115.968c-0.225,0.957-0.827,1.635-1.342,1.512l-2.597-0.61
			c-0.517-0.122-0.752-0.996-0.526-1.954c0.225-0.957,0.827-1.635,1.343-1.513l2.596,0.611
			C34.609,114.136,34.845,115.011,34.62,115.968"/>
	</g>
</g>
<path fill="#344DA1" d="M163.752,185.643c1.293-19.355-24.21-40.325-67.374-47.894c-43.163-7.569-82.981,1.599-88.932,20.481
	c-0.108,0.341-0.178,0.684-0.262,1.027c-0.369,0.692-0.686,1.413-0.926,2.169l14.532,55.816c1.323,9.513,2.116,13.241,9.47,14.531
	l117.213,16.146c7.355,1.287,15.365-2.433,17.489-9.171C164.962,238.749,163.713,186.227,163.752,185.643"/>
<path fill="#2E67B2" d="M154.066,187.749c-0.248-15.415-22.584-37.774-62.903-44.846c-40.321-7.071-77.531,1.542-83.11,19.238
	c-0.1,0.32-0.167,0.643-0.245,0.965c-0.346,0.648-0.643,1.324-0.866,2.032l13.524,52.298c1.227,8.915,1.964,12.408,8.834,13.614
	l109.497,15.069c6.871,1.205,16.604,4.164,16.422-4.491C155.219,241.628,154.074,188.296,154.066,187.749 M37.082,227.527
	c-1.911,0.168-3.611-0.813-3.798-2.188l-7.533-55.453c-0.186-1.375,1.209-2.628,3.12-2.794c1.91-0.168,3.609,0.811,3.795,2.188
	l7.534,55.453C40.386,226.108,38.99,227.358,37.082,227.527 M57.601,230.467c-1.912,0.156-3.609-0.903-3.795-2.368l-7.43-59.036
	c-0.185-1.466,1.215-2.779,3.125-2.937c1.912-0.156,3.612,0.903,3.796,2.368l7.431,59.038
	C60.912,228.996,59.511,230.31,57.601,230.467 M76.997,233.48c-1.917,0.109-3.572-1.026-3.699-2.535l-5.111-60.889
	c-0.128-1.51,1.323-2.824,3.239-2.936c1.917-0.109,3.573,1.025,3.699,2.535l5.113,60.89C80.363,232.055,78.914,233.37,76.997,233.48
	 M96.487,236.455c-1.919,0.066-3.529-1.068-3.594-2.535l-2.659-59.138c-0.065-1.466,1.436-2.71,3.355-2.777
	c1.919-0.066,3.527,1.068,3.594,2.536l2.658,59.135C99.907,235.143,98.406,236.388,96.487,236.455 M110.873,163.77
	c-1.146-0.186-2.286-0.406-3.422-0.652c-1.138-0.246-2.271-0.521-3.399-0.819c-1.367-0.507-2.746-1.011-4.133-1.503
	c-15.078-6.111-33.088-6.967-49.988-4.52c-1.625,0.074-3.25,0.123-4.87,0.135c-1.264-0.135-2.324-0.654-3.021-1.379
	c-0.697-0.725-1.027-1.654-0.827-2.619c0.2-0.964,0.891-1.779,1.849-2.319c1.28-0.037,2.564-0.079,3.855-0.126
	c1.632-0.08,3.272-0.166,4.916-0.254c17.311-2.191,35.815-1.281,51.155,4.64c1.63,0.524,3.245,1.086,4.843,1.685
	c1.253,0.361,2.508,0.721,3.757,1.078c1.251,0.356,2.5,0.711,3.746,1.06c0.697,0.724,1.027,1.655,0.828,2.618
	c-0.199,0.965-0.892,1.781-1.848,2.32C113.357,163.653,112.135,163.916,110.873,163.77 M117.474,239.367
	c-1.918,0.048-3.508-1.06-3.548-2.476l-1.613-57.062c-0.041-1.417,1.483-2.604,3.403-2.652c1.919-0.048,3.507,1.061,3.547,2.476
	l1.614,57.063C120.917,238.131,119.394,239.319,117.474,239.367 M144.276,240.898c0.011,1.346-1.537,2.459-3.456,2.483
	c-1.92,0.027-3.486-1.044-3.499-2.392l-0.448-54.287c-0.01-1.346,1.537-2.459,3.457-2.485c1.92-0.025,3.485,1.045,3.497,2.392
	L144.276,240.898z"/>
<g opacity="0.6">
	<g>
		<defs>
			<rect id="SVGID_47_" x="10.71" y="179.709" width="154.252" height="68.39"/>
		</defs>
		<clipPath id="SVGID_48_">
			<use xlink:href="#SVGID_47_"  overflow="visible"/>
		</clipPath>
		<path clip-path="url(#SVGID_48_)" fill="#1C3664" d="M138.09,224.957c-11.035-2.107-21.85-5.162-32.057-8.417
			c-9.2-2.934-18.407-6.284-27.406-9.744c-5.586-2.147-11.12-4.364-17.775-7.249c-7.456-3.231-15.207-5.539-22.714-8.612
			c-4.231-1.732-8.809-3.046-12.837-4.864c-3.597-1.624-14.592-6.361-14.592-6.361s4.164,16.122,4.91,18.984
			c1.653,6.351,3.249,12.798,4.903,19.147c1.323,9.513,2.383,12.643,9.737,13.934c0,0,117.172,16.14,117.213,16.146
			c5.273,0.738,13.151-0.728,16.244-5.981c1.984-3.372,1.002-12.948,1.002-12.948c-2.986-1.099-6.321-0.426-9.829-0.96
			C150.855,227.418,142.146,225.73,138.09,224.957"/>
	</g>
</g>
<g opacity="0.3">
	<g>
		<defs>
			<rect id="SVGID_49_" x="91.384" y="139.288" width="63.694" height="34.857"/>
		</defs>
		<clipPath id="SVGID_50_">
			<use xlink:href="#SVGID_49_"  overflow="visible"/>
		</clipPath>
		<path clip-path="url(#SVGID_50_)" fill="#FFFFFF" d="M147.346,161.039c-1.369-1.393-2.793-2.74-4.4-3.974
			c-4.199-3.221-8.648-6.112-13.295-8.642c-3.246-1.766-6.618-3.35-10.123-4.727c-4.983-1.953-10.228-3.492-15.915-4.123
			c-1.796-0.2-3.622-0.268-5.428-0.284c-1.221-0.012-2.447,0.01-3.663,0.141c-0.837,0.091-1.836,0.187-2.564,0.654
			c-0.409,0.263-0.686,0.799-0.53,1.282c0.184,0.578,0.729,0.754,1.229,0.934c0.691,0.249,1.432,0.257,2.147,0.392
			c2.152,0.413,4.302,0.874,6.429,1.404c1.857,0.462,3.693,1.012,5.528,1.556c1.877,0.555,3.748,1.135,5.599,1.77
			c1.047,0.359,2.087,0.736,3.119,1.137c2.987,1.162,5.913,2.479,8.757,3.953c2.783,1.445,6.171,3.313,8.777,5.059
			c4.089,2.737,7.466,5.55,11.06,8.918c0.972,0.91,2.592,2.738,3.43,3.778c1.674,2.076,4.527,6.012,7.043,2.427
			C157.174,168.947,149.339,163.07,147.346,161.039"/>
	</g>
</g>
</svg>
