<?xml version="1.0" encoding="utf-8"?>
<!-- Generator: Adobe Illustrator 15.0.0, SVG Export Plug-In . SVG Version: 6.00 Build 0)  -->
<!DOCTYPE svg PUBLIC "-//W3C//DTD SVG 1.1//EN" "http://www.w3.org/Graphics/SVG/1.1/DTD/svg11.dtd">
<svg version="1.1" id="שכבה_1" xmlns="http://www.w3.org/2000/svg" xmlns:xlink="http://www.w3.org/1999/xlink" x="0px" y="0px"
	 width="283.46px" height="283.46px" viewBox="0 0 283.46 283.46" enable-background="new 0 0 283.46 283.46" xml:space="preserve">
<g>
	<path fill="#F2A172" d="M124.598,172.75c-0.286-1.184-1.31-1.961-2.431-2.523c0.194,1.174-0.313,2.4-1.065,3.213
		c-2.724,2.943-7.124,3.068-10.585,3.252c-4.334,0.227-8.754,0.094-12.931-1.428c-0.93-0.338-1.873-0.768-2.563-1.576
		c-0.861-1.002-1.088-1.936-0.895-2.789c-2.306,1.412-3.584,3.252-1.393,5.428c0.811,0.807,1.917,1.236,3.01,1.572
		c4.904,1.523,10.096,1.658,15.187,1.43c4.065-0.182,9.233-0.309,12.433-3.25C124.278,175.236,124.89,173.957,124.598,172.75"/>
	<path fill="#FBB689" d="M103.56,167.74c5.957-0.857,12.104-0.174,17.694,2.076c1.432,0.576,2.98,1.434,3.345,2.934
		c0.291,1.207-0.32,2.486-1.234,3.328c-3.199,2.941-8.368,3.068-12.434,3.25c-5.09,0.229-10.281,0.094-15.186-1.428
		c-1.092-0.338-2.2-0.768-3.011-1.574c-4.809-4.777,7.089-7.961,9.945-8.447C102.972,167.83,103.266,167.785,103.56,167.74"/>
	<path fill="#E81E27" d="M103.738,167.719c5.725-0.809,11.635-0.162,17.01,1.959c1.376,0.541,2.865,1.35,3.213,2.766
		c0.281,1.137-0.307,2.346-1.186,3.137c-3.074,2.773-8.043,2.893-11.951,3.064c-4.893,0.213-9.884,0.09-14.599-1.348
		c-1.05-0.318-2.114-0.721-2.895-1.484c-4.622-4.504,6.815-7.504,9.56-7.961C103.173,167.803,103.455,167.758,103.738,167.719"/>
	<path fill="#D12027" d="M123.96,172.443c-0.295-1.201-1.415-1.963-2.588-2.5c0.175,1.102-0.3,2.25-1.005,3.016
		c-0.548,0.592-1.173,1.059-1.842,1.436c0.788,0.799,1.502,1.664,2.134,2.582c0.768-0.373,1.482-0.826,2.115-1.396
		C123.654,174.789,124.242,173.58,123.96,172.443"/>
	<path fill="#FBB583" d="M122.167,170.229c-0.266-0.135-0.535-0.252-0.803-0.363c0.211,1.127-0.275,2.309-0.998,3.094
		c-2.569,2.779-6.721,2.898-9.984,3.068c-4.089,0.215-8.258,0.092-12.198-1.346c-0.876-0.32-1.765-0.725-2.417-1.486
		c-0.853-0.996-1.05-1.918-0.818-2.756c-0.283,0.148-0.56,0.299-0.82,0.459c-0.193,0.854,0.033,1.787,0.895,2.793
		c0.69,0.807,1.633,1.234,2.563,1.572c4.175,1.521,8.597,1.654,12.931,1.428c3.461-0.184,7.861-0.309,10.585-3.252
		C121.856,172.627,122.362,171.4,122.167,170.229"/>
	<path fill="#EE2530" d="M95.767,173.195c0.651,0.762,1.541,1.166,2.418,1.486c3.939,1.438,8.108,1.561,12.197,1.346
		c3.264-0.17,7.415-0.289,9.984-3.068c0.723-0.785,1.209-1.967,0.998-3.094c-0.037-0.016-0.073-0.033-0.11-0.049
		c-5.591-2.25-11.738-2.934-17.694-2.076c-0.294,0.045-0.587,0.09-0.881,0.139c-1.408,0.24-5.013,1.143-7.73,2.561
		C94.716,171.277,94.915,172.199,95.767,173.195"/>
	<path fill="#E81E27" d="M113.468,170.604c1.848,1.004,3.574,2.289,5.059,3.791c0.668-0.377,1.293-0.844,1.841-1.436
		c0.705-0.766,1.18-1.914,1.005-3.016c-0.208-0.094-0.418-0.186-0.625-0.266c-3.355-1.326-6.918-2.074-10.514-2.254
		c-1.456-0.068-2.918-0.049-4.373,0.064c-0.379,0.029-0.756,0.082-1.133,0.123C107.779,168.199,110.744,169.125,113.468,170.604"/>
	<path fill="#E81E27" d="M110.234,167.424c-1.456-0.07-2.918-0.051-4.373,0.064C107.316,167.375,108.778,167.354,110.234,167.424"/>
	<path fill="#EE2530" d="M121.373,169.943c-0.004-0.025-0.003-0.051-0.008-0.078c-0.037-0.016-0.073-0.033-0.11-0.049
		c-3.517-1.414-7.251-2.209-11.021-2.393c3.596,0.18,7.158,0.928,10.514,2.252C120.955,169.758,121.165,169.85,121.373,169.943"/>
	<path fill="#C87529" d="M111.84,169.686c0,0-0.995,0.576-3.673,0.576c-2.844,0-3.67-0.576-3.67-0.576V42.738h7.343V169.686z"/>
	<path fill="#F2A172" d="M189.684,172.75c-0.287-1.184-1.311-1.961-2.432-2.523c0.195,1.174-0.311,2.4-1.064,3.213
		c-2.723,2.943-7.125,3.068-10.586,3.252c-4.334,0.227-8.754,0.094-12.93-1.428c-0.93-0.338-1.873-0.768-2.563-1.576
		c-0.863-1.002-1.088-1.936-0.895-2.789c-2.307,1.412-3.584,3.252-1.395,5.428c0.811,0.807,1.918,1.236,3.01,1.572
		c4.904,1.523,10.096,1.658,15.188,1.43c4.064-0.182,9.232-0.309,12.432-3.25C189.363,175.236,189.975,173.957,189.684,172.75"/>
	<path fill="#FBB689" d="M168.645,167.74c5.957-0.857,12.104-0.174,17.695,2.076c1.432,0.576,2.979,1.434,3.344,2.934
		c0.291,1.207-0.32,2.486-1.234,3.328c-3.199,2.941-8.367,3.068-12.432,3.25c-5.09,0.229-10.281,0.094-15.188-1.428
		c-1.092-0.338-2.199-0.768-3.012-1.574c-4.807-4.777,7.092-7.961,9.945-8.447C168.057,167.83,168.352,167.785,168.645,167.74"/>
	<path fill="#E81E27" d="M168.822,167.719c5.727-0.809,11.635-0.162,17.008,1.959c1.379,0.541,2.867,1.35,3.217,2.766
		c0.281,1.137-0.309,2.346-1.186,3.137c-3.076,2.773-8.045,2.893-11.953,3.064c-4.893,0.213-9.883,0.09-14.598-1.348
		c-1.051-0.318-2.115-0.721-2.895-1.484c-4.621-4.504,6.816-7.504,9.561-7.961C168.258,167.803,168.541,167.758,168.822,167.719"/>
	<path fill="#D12027" d="M189.047,172.443c-0.297-1.201-1.414-1.963-2.588-2.5c0.174,1.102-0.301,2.25-1.006,3.016
		c-0.549,0.592-1.174,1.059-1.842,1.436c0.787,0.799,1.502,1.664,2.133,2.582c0.768-0.373,1.484-0.826,2.115-1.396
		C188.738,174.789,189.328,173.58,189.047,172.443"/>
	<path fill="#FBB583" d="M187.252,170.229c-0.266-0.135-0.533-0.252-0.803-0.363c0.211,1.127-0.273,2.309-0.998,3.094
		c-2.568,2.779-6.719,2.898-9.984,3.068c-4.088,0.215-8.258,0.092-12.197-1.346c-0.877-0.32-1.766-0.725-2.418-1.486
		c-0.852-0.996-1.047-1.918-0.818-2.756c-0.283,0.148-0.559,0.299-0.818,0.459c-0.193,0.854,0.031,1.787,0.895,2.793
		c0.689,0.807,1.633,1.234,2.563,1.572c4.176,1.521,8.596,1.654,12.93,1.428c3.461-0.184,7.861-0.309,10.586-3.252
		C186.941,172.627,187.445,171.4,187.252,170.229"/>
	<path fill="#EE2530" d="M160.852,173.195c0.65,0.762,1.541,1.166,2.418,1.486c3.939,1.438,8.109,1.561,12.197,1.346
		c3.266-0.17,7.416-0.289,9.986-3.068c0.723-0.785,1.205-1.967,0.996-3.094c-0.037-0.016-0.072-0.033-0.111-0.049
		c-5.59-2.25-11.736-2.934-17.693-2.076c-0.293,0.045-0.588,0.09-0.881,0.139c-1.408,0.24-5.012,1.143-7.73,2.561
		C159.803,171.277,160,172.199,160.852,173.195"/>
	<path fill="#E81E27" d="M178.555,170.604c1.846,1.004,3.574,2.289,5.057,3.791c0.668-0.377,1.293-0.844,1.842-1.436
		c0.705-0.766,1.18-1.914,1.006-3.016c-0.209-0.094-0.42-0.186-0.627-0.266c-3.354-1.326-6.918-2.074-10.514-2.254
		c-1.455-0.068-2.918-0.049-4.373,0.064c-0.379,0.029-0.754,0.082-1.133,0.123C172.863,168.199,175.828,169.125,178.555,170.604"/>
	<path fill="#E81E27" d="M175.32,167.424c-1.457-0.07-2.92-0.051-4.375,0.064C172.4,167.375,173.863,167.354,175.32,167.424"/>
	<path fill="#E81E27" d="M168.822,167.719c-0.006,0.004-0.012,0.004-0.018,0.004c0.129-0.018,0.256-0.027,0.383-0.045
		C169.066,167.695,168.945,167.703,168.822,167.719"/>
	<path fill="#EE2530" d="M186.459,169.943c-0.006-0.025-0.006-0.051-0.01-0.078c-0.037-0.016-0.072-0.033-0.111-0.049
		c-3.514-1.414-7.25-2.209-11.02-2.393c3.598,0.18,7.16,0.928,10.514,2.252C186.041,169.758,186.25,169.85,186.459,169.943"/>
	<path fill="#EE2530" d="M170.945,167.488c-0.379,0.029-0.758,0.08-1.137,0.123c0.002,0,0.004,0,0.004,0
		C170.189,167.57,170.566,167.518,170.945,167.488"/>
	<path fill="#EE2530" d="M169.809,167.611c-0.207,0.021-0.414,0.041-0.619,0.068c0.205-0.027,0.416-0.045,0.623-0.068
		C169.813,167.611,169.811,167.611,169.809,167.611"/>
	<path fill="#EE2530" d="M168.805,167.723c-0.053,0.008-0.105,0.01-0.16,0.018c-0.293,0.045-0.586,0.09-0.881,0.139
		c-1.408,0.24-5.01,1.143-7.73,2.561c-0.01,0.037-0.014,0.07-0.021,0.107c2.652-1.504,6.518-2.455,7.965-2.695
		C168.25,167.803,168.527,167.762,168.805,167.723"/>
	<path fill="#F26E83" d="M161.508,170.375c-0.432,0.275-0.875,0.68-0.852,1.191c0.016,0.4,0.318,0.725,0.621,0.988
		c1.611,1.396,3.721,2.121,5.836,2.391c1.004,0.131,2.061,0.158,2.988-0.252c0.371-0.164,0.742-0.439,0.824-0.838
		c0.082-0.395-0.152-0.799-0.473-1.043c-0.32-0.246-0.711-0.373-1.09-0.514c-1.439-0.539-2.641-1.381-3.781-2.393
		C164.346,168.809,162.869,169.5,161.508,170.375"/>
	<path fill="#C87529" d="M176.926,169.686c0,0-0.996,0.576-3.674,0.576c-2.844,0-3.67-0.576-3.67-0.576V42.738h7.344V169.686z"/>
	<rect x="102.94" y="85.884" fill="#652C8F" width="75.48" height="51.542"/>
	<rect x="102.94" y="87.299" fill="#92278F" width="75.48" height="51.543"/>
	
		<line fill="none" stroke="#EE2530" stroke-width="3" stroke-linecap="round" stroke-miterlimit="10" x1="230.789" y1="127.441" x2="261.363" y2="184.633"/>
	
		<line fill="none" stroke="#EE2530" stroke-width="4" stroke-linecap="round" stroke-miterlimit="10" x1="237.869" y1="135.23" x2="268.443" y2="192.42"/>
	<path fill="#F2A172" d="M243.256,172.875c-0.211-0.871-0.967-1.447-1.793-1.863c0.143,0.867-0.23,1.773-0.785,2.371
		c-2.008,2.17-5.252,2.262-7.805,2.396c-3.195,0.168-6.453,0.068-9.535-1.053c-0.684-0.25-1.377-0.564-1.887-1.16
		c-0.635-0.74-0.803-1.428-0.66-2.059c-1.699,1.041-2.643,2.398-1.029,4.002c0.6,0.596,1.414,0.912,2.221,1.16
		c3.615,1.121,7.443,1.223,11.197,1.055c2.996-0.137,6.807-0.229,9.166-2.398C243.018,174.707,243.471,173.764,243.256,172.875"/>
	<path fill="#FBB689" d="M227.746,169.18c4.391-0.633,8.922-0.127,13.045,1.531c1.055,0.424,2.197,1.057,2.465,2.164
		c0.215,0.889-0.238,1.832-0.91,2.451c-2.357,2.17-6.17,2.262-9.166,2.398c-3.754,0.168-7.582,0.066-11.197-1.055
		c-0.805-0.248-1.621-0.564-2.219-1.16c-3.545-3.52,5.227-5.867,7.332-6.227C227.311,169.246,227.529,169.211,227.746,169.18"/>
	<path fill="#E81E27" d="M227.875,169.164c4.221-0.596,8.576-0.121,12.541,1.445c1.014,0.4,2.113,0.996,2.371,2.037
		c0.207,0.842-0.229,1.729-0.877,2.313c-2.266,2.047-5.93,2.133-8.811,2.262c-3.607,0.156-7.287,0.063-10.764-0.994
		c-0.773-0.236-1.559-0.533-2.133-1.092c-3.408-3.32,5.023-5.535,7.049-5.873C227.457,169.227,227.666,169.193,227.875,169.164"/>
	<path fill="#D12027" d="M242.787,172.648c-0.221-0.887-1.045-1.447-1.91-1.844c0.129,0.813-0.221,1.658-0.74,2.223
		c-0.404,0.438-0.865,0.783-1.357,1.061c0.58,0.588,1.107,1.225,1.57,1.9c0.566-0.271,1.096-0.607,1.561-1.029
		C242.559,174.375,242.994,173.488,242.787,172.648"/>
	<path fill="#FBB583" d="M241.463,171.014c-0.195-0.098-0.395-0.186-0.592-0.266c0.154,0.828-0.201,1.703-0.734,2.279
		c-1.895,2.051-4.955,2.137-7.363,2.266c-3.014,0.156-6.088,0.063-8.992-0.996c-0.646-0.236-1.303-0.533-1.783-1.098
		c-0.627-0.732-0.773-1.41-0.602-2.029c-0.209,0.111-0.412,0.223-0.605,0.338c-0.143,0.631,0.025,1.318,0.66,2.059
		c0.51,0.596,1.203,0.91,1.887,1.16c3.082,1.121,6.34,1.223,9.535,1.053c2.553-0.135,5.797-0.227,7.805-2.396
		C241.232,172.785,241.607,171.879,241.463,171.014"/>
	<path fill="#EE2530" d="M221.998,173.199c0.48,0.564,1.137,0.861,1.783,1.098c2.904,1.059,5.979,1.152,8.992,0.996
		c2.408-0.129,5.469-0.215,7.363-2.266c0.533-0.576,0.889-1.451,0.734-2.279c-0.025-0.012-0.053-0.027-0.08-0.039
		c-4.123-1.656-8.654-2.162-13.045-1.529c-0.217,0.031-0.434,0.066-0.65,0.104c-1.041,0.178-3.695,0.842-5.699,1.887
		C221.225,171.789,221.371,172.467,221.998,173.199"/>
	<path fill="#E81E27" d="M235.049,171.291c1.363,0.738,2.635,1.688,3.73,2.797c0.492-0.277,0.953-0.623,1.357-1.061
		c0.52-0.564,0.869-1.41,0.74-2.223c-0.152-0.068-0.307-0.137-0.461-0.195c-2.473-0.977-5.102-1.529-7.75-1.662
		c-1.074-0.051-2.154-0.035-3.227,0.047c-0.279,0.021-0.557,0.061-0.834,0.092C230.854,169.516,233.041,170.201,235.049,171.291"/>
	<path fill="#EE2530" d="M240.877,170.805c-0.002-0.02-0.002-0.037-0.008-0.057c-0.025-0.012-0.051-0.027-0.078-0.037
		c-2.594-1.045-5.348-1.627-8.125-1.764c2.648,0.133,5.277,0.686,7.75,1.662C240.57,170.668,240.725,170.736,240.877,170.805"/>
	<path fill="#652C8F" d="M178.422,92.905c-10.355,14.532-25.637,25.53-40.891,35.217c-5.787,3.676-11.645,7.234-17.545,10.719
		h58.436V92.905z"/>
	<path fill="#74CDD8" d="M160.682,137.042h-40.004v-29.644c0-7.313,5.928-13.241,13.241-13.241h13.523
		c7.313,0,13.24,5.928,13.24,13.241V137.042z"/>
	<path fill="#4398AC" d="M160.682,107.699c0-7.479-6.063-13.542-13.541-13.542h-12.92c-7.479,0-13.543,6.063-13.543,13.542v29.343
		h3.381v-25.872c0-7.479,6.063-13.542,13.543-13.542h6.161c7.479,0,13.541,6.063,13.541,13.542v25.872h3.379V107.699z"/>
	<path fill="#F2A172" d="M121.607,198.383c-0.339-1.402-1.555-2.326-2.883-2.99c0.229,1.389-0.371,2.844-1.264,3.809
		c-3.23,3.492-8.449,3.639-12.555,3.857c-5.141,0.27-10.383,0.111-15.336-1.695c-1.104-0.4-2.221-0.91-3.041-1.865
		c-1.021-1.191-1.289-2.297-1.061-3.309c-2.735,1.67-4.25,3.857-1.654,6.438c0.963,0.955,2.276,1.463,3.572,1.865
		c5.816,1.805,11.974,1.963,18.012,1.691c4.822-0.217,10.951-0.363,14.746-3.854C121.227,201.334,121.953,199.813,121.607,198.383"
		/>
	<path fill="#FBB689" d="M96.654,192.441c7.064-1.02,14.355-0.205,20.986,2.463c1.697,0.682,3.536,1.701,3.967,3.479
		c0.346,1.43-0.381,2.951-1.463,3.947c-3.795,3.49-9.924,3.637-14.746,3.854c-6.038,0.271-12.195,0.113-18.012-1.691
		c-1.296-0.402-2.608-0.91-3.572-1.865c-5.701-5.668,8.409-9.443,11.797-10.021C95.958,192.545,96.306,192.494,96.654,192.441"/>
	<path fill="#E81E27" d="M96.865,192.418c6.791-0.961,13.799-0.197,20.174,2.32c1.633,0.645,3.398,1.604,3.813,3.279
		c0.334,1.35-0.365,2.781-1.406,3.723c-3.647,3.291-9.541,3.432-14.175,3.633c-5.804,0.258-11.724,0.105-17.315-1.594
		c-1.246-0.381-2.508-0.857-3.433-1.76c-5.482-5.346,8.083-8.902,11.339-9.447C96.195,192.516,96.531,192.465,96.865,192.418"/>
	<path fill="#FBB583" d="M118.724,195.393c-0.315-0.16-0.635-0.299-0.953-0.43c0.25,1.334-0.326,2.74-1.184,3.668
		c-3.047,3.295-7.97,3.438-11.842,3.641c-4.85,0.256-9.795,0.105-14.466-1.598c-1.042-0.381-2.096-0.861-2.868-1.762
		c-1.01-1.184-1.244-2.275-0.971-3.268c-0.334,0.176-0.663,0.354-0.973,0.541c-0.229,1.016,0.04,2.121,1.061,3.314
		c0.82,0.953,1.938,1.463,3.041,1.863c4.953,1.805,10.195,1.965,15.336,1.695c4.105-0.219,9.324-0.365,12.555-3.857
		C118.353,198.236,118.954,196.781,118.724,195.393"/>
	<path fill="#EE2530" d="M87.412,198.912c0.771,0.9,1.826,1.381,2.868,1.762c4.671,1.703,9.616,1.854,14.466,1.598
		c3.873-0.203,8.795-0.346,11.842-3.641c0.857-0.928,1.434-2.334,1.184-3.668c-0.043-0.02-0.088-0.041-0.131-0.059
		c-6.631-2.67-13.921-3.482-20.984-2.463c-0.35,0.053-0.697,0.105-1.045,0.164c-1.672,0.287-5.945,1.352-9.169,3.039
		C86.167,196.637,86.402,197.729,87.412,198.912"/>
	<path fill="#E81E27" d="M108.406,195.838c2.191,1.188,4.24,2.713,5.999,4.498c0.794-0.449,1.532-1.002,2.183-1.705
		c0.838-0.904,1.4-2.268,1.193-3.574c-0.246-0.113-0.496-0.221-0.742-0.318c-3.979-1.57-8.203-2.459-12.469-2.67
		c-1.727-0.084-3.462-0.061-5.188,0.074c-0.449,0.035-0.895,0.096-1.343,0.146C101.658,192.986,105.174,194.084,108.406,195.838"/>
	<path fill="#F26E83" d="M88.189,195.568c-0.511,0.328-1.037,0.803-1.012,1.41c0.02,0.475,0.38,0.861,0.738,1.172
		c1.91,1.66,4.412,2.516,6.922,2.84c1.19,0.15,2.446,0.182,3.544-0.303c0.442-0.195,0.88-0.52,0.979-0.992
		c0.096-0.471-0.183-0.947-0.562-1.238s-0.845-0.441-1.292-0.607c-1.706-0.641-3.132-1.639-4.485-2.84
		C91.554,193.707,89.803,194.529,88.189,195.568"/>
	<path fill="#F99C1C" d="M106.475,194.75c0,0-1.179,0.682-4.354,0.682c-3.375,0-4.354-0.682-4.354-0.682V44.185h8.709V194.75z"/>
	<path fill="#F2A172" d="M198.799,198.383c-0.338-1.402-1.553-2.326-2.883-2.99c0.232,1.389-0.369,2.844-1.264,3.809
		c-3.229,3.492-8.447,3.639-12.555,3.857c-5.139,0.27-10.381,0.111-15.334-1.695c-1.104-0.4-2.221-0.91-3.043-1.865
		c-1.02-1.191-1.287-2.297-1.059-3.309c-2.736,1.67-4.25,3.857-1.654,6.438c0.963,0.955,2.275,1.463,3.57,1.865
		c5.818,1.805,11.975,1.963,18.012,1.691c4.822-0.217,10.951-0.363,14.746-3.854C198.42,201.334,199.146,199.813,198.799,198.383"/>
	<path fill="#FBB689" d="M173.85,192.441c7.063-1.02,14.352-0.205,20.984,2.463c1.699,0.682,3.535,1.701,3.965,3.479
		c0.348,1.43-0.379,2.951-1.463,3.947c-3.795,3.49-9.924,3.637-14.746,3.854c-6.037,0.271-12.193,0.113-18.012-1.691
		c-1.295-0.402-2.607-0.91-3.57-1.865c-5.701-5.668,8.41-9.443,11.795-10.021C173.15,192.545,173.498,192.494,173.85,192.441"/>
	<path fill="#E81E27" d="M174.059,192.418c6.791-0.961,13.799-0.197,20.174,2.32c1.631,0.645,3.398,1.604,3.811,3.279
		c0.334,1.35-0.365,2.781-1.406,3.723c-3.646,3.291-9.539,3.432-14.174,3.633c-5.803,0.258-11.723,0.105-17.314-1.594
		c-1.246-0.381-2.508-0.857-3.434-1.76c-5.482-5.346,8.084-8.902,11.34-9.447C173.387,192.516,173.723,192.465,174.059,192.418"/>
	<path fill="#D12027" d="M198.045,198.018c-0.352-1.424-1.68-2.326-3.07-2.961c0.205,1.307-0.355,2.67-1.193,3.574
		c-0.65,0.703-1.391,1.256-2.184,1.705c0.934,0.947,1.783,1.971,2.529,3.057c0.91-0.438,1.76-0.975,2.512-1.652
		C197.68,200.799,198.377,199.367,198.045,198.018"/>
	<path fill="#FBB583" d="M195.916,195.393c-0.314-0.16-0.635-0.299-0.951-0.43c0.248,1.334-0.326,2.74-1.184,3.668
		c-3.047,3.295-7.971,3.438-11.844,3.641c-4.848,0.256-9.793,0.105-14.465-1.598c-1.041-0.381-2.096-0.861-2.867-1.762
		c-1.01-1.184-1.246-2.275-0.971-3.268c-0.336,0.176-0.664,0.354-0.973,0.541c-0.229,1.016,0.039,2.121,1.059,3.314
		c0.822,0.953,1.939,1.463,3.043,1.863c4.953,1.805,10.195,1.965,15.334,1.695c4.107-0.219,9.326-0.365,12.555-3.857
		C195.547,198.236,196.148,196.781,195.916,195.393"/>
	<path fill="#EE2530" d="M164.605,198.912c0.771,0.9,1.828,1.381,2.867,1.762c4.672,1.703,9.617,1.854,14.465,1.598
		c3.873-0.203,8.797-0.346,11.844-3.641c0.857-0.928,1.432-2.334,1.184-3.668c-0.045-0.02-0.09-0.041-0.131-0.059
		c-6.633-2.67-13.922-3.482-20.984-2.463c-0.35,0.053-0.697,0.105-1.047,0.164c-1.67,0.287-5.945,1.352-9.168,3.039
		C163.359,196.637,163.596,197.729,164.605,198.912"/>
	<path fill="#E81E27" d="M185.6,195.838c2.193,1.188,4.24,2.713,6,4.498c0.791-0.449,1.531-1.002,2.182-1.705
		c0.836-0.904,1.4-2.268,1.193-3.574c-0.248-0.113-0.496-0.221-0.742-0.318c-3.979-1.57-8.205-2.459-12.471-2.67
		c-1.727-0.084-3.459-0.061-5.186,0.074c-0.449,0.035-0.895,0.096-1.344,0.146C178.852,192.986,182.367,194.084,185.6,195.838"/>
	<path fill="none" stroke="#F26E83" stroke-linecap="round" stroke-miterlimit="10" d="M161.93,199.529
		c-0.861,2.609,5.9,3.852,7.389,4.033"/>
	<path fill="#F26E83" d="M165.383,195.568c-0.512,0.328-1.037,0.803-1.012,1.41c0.02,0.475,0.379,0.861,0.738,1.172
		c1.91,1.66,4.412,2.516,6.92,2.84c1.191,0.15,2.447,0.182,3.545-0.303c0.441-0.195,0.883-0.52,0.979-0.992
		c0.096-0.471-0.182-0.947-0.561-1.238s-0.846-0.441-1.291-0.607c-1.709-0.641-3.133-1.639-4.486-2.84
		C168.746,193.707,166.996,194.529,165.383,195.568"/>
	<path fill="#F99C1C" d="M183.668,194.75c0,0-1.18,0.682-4.354,0.682c-3.375,0-4.355-0.682-4.355-0.682V44.185h8.709V194.75z"/>
	<path fill="#F2A172" d="M252.857,200.252c-0.258-1.07-1.186-1.775-2.201-2.283c0.176,1.061-0.281,2.172-0.965,2.908
		c-2.467,2.666-6.451,2.779-9.586,2.943c-3.924,0.207-7.928,0.084-11.707-1.291c-0.844-0.309-1.697-0.693-2.322-1.426
		c-0.779-0.91-0.984-1.756-0.811-2.527c-2.088,1.275-3.244,2.947-1.262,4.914c0.734,0.732,1.736,1.119,2.727,1.426
		c4.441,1.377,9.143,1.5,13.752,1.293c3.682-0.164,8.361-0.277,11.26-2.943C252.568,202.506,253.123,201.346,252.857,200.252"/>
	<path fill="#FBB689" d="M233.807,195.717c5.395-0.779,10.961-0.16,16.023,1.879c1.297,0.521,2.699,1.299,3.027,2.656
		c0.266,1.094-0.289,2.254-1.117,3.014c-2.896,2.666-7.576,2.779-11.256,2.943c-4.611,0.207-9.313,0.084-13.754-1.293
		c-0.988-0.307-1.992-0.693-2.727-1.426c-4.354-4.326,6.42-7.207,9.006-7.648C233.273,195.797,233.541,195.754,233.807,195.717"/>
	<path fill="#E81E27" d="M233.969,195.697c5.182-0.734,10.535-0.148,15.402,1.773c1.246,0.49,2.594,1.223,2.91,2.504
		c0.256,1.029-0.277,2.125-1.074,2.842c-2.783,2.512-7.283,2.615-10.822,2.773c-4.432,0.193-8.951,0.08-13.221-1.219
		c-0.951-0.289-1.914-0.654-2.621-1.342c-4.186-4.08,6.172-6.799,8.658-7.215C233.455,195.773,233.713,195.734,233.969,195.697"/>
	<path fill="#D12027" d="M252.281,199.975c-0.268-1.086-1.281-1.777-2.344-2.264c0.158,0.998-0.271,2.039-0.91,2.73
		c-0.496,0.539-1.063,0.959-1.666,1.303c0.713,0.723,1.357,1.502,1.93,2.334c0.693-0.336,1.342-0.746,1.916-1.262
		C252.004,202.098,252.537,201.004,252.281,199.975"/>
	<path fill="#FBB583" d="M250.656,197.969c-0.24-0.121-0.484-0.229-0.727-0.328c0.191,1.018-0.248,2.092-0.902,2.801
		c-2.328,2.518-6.086,2.621-9.043,2.779c-3.701,0.197-7.479,0.082-11.043-1.219c-0.797-0.291-1.602-0.656-2.193-1.346
		c-0.77-0.902-0.949-1.736-0.738-2.496c-0.258,0.133-0.508,0.271-0.744,0.416c-0.174,0.771,0.031,1.617,0.811,2.527
		c0.625,0.732,1.479,1.117,2.322,1.426c3.779,1.377,7.783,1.498,11.707,1.291c3.135-0.164,7.121-0.277,9.586-2.943
		C250.375,200.141,250.832,199.029,250.656,197.969"/>
	<path fill="#EE2530" d="M226.748,200.656c0.592,0.689,1.396,1.055,2.191,1.344c3.566,1.303,7.344,1.418,11.045,1.221
		c2.957-0.158,6.715-0.262,9.043-2.779c0.654-0.709,1.094-1.783,0.902-2.801c-0.033-0.014-0.064-0.031-0.1-0.045
		c-5.063-2.037-10.629-2.658-16.023-1.879c-0.266,0.037-0.531,0.08-0.797,0.125c-1.275,0.217-4.541,1.033-7,2.318
		C225.799,198.92,225.979,199.754,226.748,200.656"/>
	<path fill="#E81E27" d="M242.781,198.307c1.674,0.91,3.234,2.074,4.578,3.438c0.605-0.344,1.172-0.764,1.668-1.303
		c0.637-0.691,1.068-1.732,0.91-2.73c-0.189-0.084-0.377-0.168-0.566-0.24c-3.037-1.199-6.264-1.877-9.521-2.039
		c-1.318-0.064-2.643-0.045-3.959,0.055c-0.344,0.027-0.686,0.076-1.027,0.113C237.627,196.131,240.313,196.969,242.781,198.307"/>
	<path fill="#EE2530" d="M249.938,197.711c-0.004-0.021-0.004-0.047-0.008-0.07c-0.033-0.014-0.064-0.031-0.1-0.045
		c-3.184-1.281-6.566-2-9.98-2.164c3.258,0.162,6.484,0.84,9.521,2.039C249.559,197.545,249.748,197.627,249.938,197.711"/>
	<path fill="#F99C1C" d="M240.402,197.574c0,0-0.664,0.682-2.451,0.682c-1.898,0-2.447-0.682-2.447-0.682v-89.675
		c0,0,0.602-0.397,2.449-0.397c1.65,0,2.449,0.397,2.449,0.397V197.574z"/>
	<path fill="#4398AC" d="M226.021,62.989c-7.428-6.792-17.781-11.555-26.457-16.555c-9.656-5.564-19.459-10.87-29.398-15.909
		c-7.787-3.948-15.693-7.748-24.029-10.346c-1.748-0.545-3.606-0.981-5.457-1.167c-1.85,0.186-3.708,0.622-5.458,1.167
		c-8.334,2.598-16.24,6.398-24.027,10.346c-9.939,5.039-19.744,10.345-29.4,15.909c-8.677,5-19.028,9.763-26.457,16.555
		c-5.073,4.638-2.115,8.994,4.17,9.715c14.188,1.629,28.427,2.805,42.69,3.525c12.677,0.64,64.289,0.64,76.964,0
		c14.262-0.721,28.504-1.896,42.691-3.525C228.139,71.983,231.096,67.627,226.021,62.989"/>
	<path fill="#4398AC" d="M226.021,62.989c-0.277-0.254-0.566-0.5-0.854-0.749c-0.953,1.614-3.107,2.771-5.984,3.112
		c-13.721,1.629-27.494,2.805-41.287,3.526c-12.258,0.64-62.174,0.64-74.433,0c-13.794-0.721-27.565-1.897-41.287-3.526
		c-2.878-0.341-5.031-1.499-5.984-3.112c-0.286,0.249-0.575,0.495-0.854,0.749c-5.073,4.638-2.115,8.994,4.17,9.715
		c14.188,1.629,28.427,2.805,42.69,3.525c12.677,0.64,64.289,0.64,76.964,0c14.262-0.721,28.504-1.896,42.691-3.525
		C228.139,71.983,231.096,67.627,226.021,62.989"/>
	<path fill="#2E67B2" d="M101.318,48.218c6.723-6.218,13.778-12.076,21.129-17.539c4.709-3.498,9.383-7.533,14.347-10.945
		c-0.53,0.138-1.055,0.284-1.571,0.444c-8.334,2.599-16.24,6.398-24.027,10.347c-9.939,5.04-19.744,10.345-29.398,15.909
		c-8.354,4.813-18.249,9.412-25.604,15.805c0.953,1.614,3.106,2.771,5.984,3.113c6.8,0.807,13.612,1.502,20.435,2.087
		C88.507,60.715,94.751,54.292,101.318,48.218"/>
	<path fill="#2E67B2" d="M199.564,46.435c-9.656-5.564-19.459-10.87-29.4-15.909c-7.787-3.948-15.691-7.748-24.027-10.346
		c-0.795-0.248-1.613-0.467-2.441-0.657c5.08,3.456,9.85,7.587,14.654,11.158c7.35,5.461,14.406,11.319,21.127,17.538
		c6.582,6.086,12.838,12.523,18.748,19.266c6.998-0.594,13.984-1.304,20.959-2.132c2.877-0.341,5.031-1.499,5.982-3.112
		C217.813,55.847,207.916,51.248,199.564,46.435"/>
	<path fill="#92278F" d="M136.793,19.735c-4.964,3.412-9.638,7.447-14.347,10.946c-7.351,5.461-14.405,11.32-21.129,17.538
		c-6.566,6.074-12.811,12.497-18.707,19.221c6.943,0.595,13.895,1.074,20.854,1.439c2.98,0.155,8.193,0.273,14.546,0.353
		c5.577-17.325,12.804-34.116,21.554-50.073C138.632,19.301,137.703,19.498,136.793,19.735"/>
	<path fill="#2E67B2" d="M140.68,19.012c-0.372,0.037-0.743,0.088-1.116,0.145c-8.75,15.958-15.977,32.75-21.554,50.075
		c13.104,0.165,31.066,0.168,44.394,0.01c-5.592-17.377-12.846-34.216-21.631-50.218C140.742,19.022,140.711,19.015,140.68,19.012"
		/>
	<path fill="#92278F" d="M198.225,67.484c-5.908-6.742-12.166-13.179-18.748-19.266C172.756,42,165.699,36.142,158.35,30.68
		c-4.805-3.57-9.574-7.702-14.654-11.158c-0.965-0.22-1.944-0.394-2.922-0.498c8.786,16.001,16.04,32.841,21.631,50.218
		c6.781-0.079,12.363-0.201,15.492-0.364C184.68,68.524,191.457,68.058,198.225,67.484"/>
	<path fill="#4398AC" d="M133.058,23.903c4.186,3.111,12.385,2.457,15.391-2.143c4.16-6.365-5.68-14.449-11.758-11.538
		c-2.35,1.126-4.292,3.61-5.252,5.991c-0.826,2.054-0.869,4.527,0.349,6.375C132.118,23.087,132.548,23.524,133.058,23.903"/>
	<path fill="#5FB0C1" d="M136.691,10.223c-2.351,1.126-4.292,3.61-5.252,5.992c-0.816,2.026-0.863,4.459,0.307,6.3
		c0.276-1.274,0.723-2.501,1.4-3.617c1.488-2.452,4.186-4.276,7.055-4.215c3.858,0.082,7.018,3.545,7.872,7.308
		c0.018,0.071,0.023,0.144,0.037,0.215c0.113-0.147,0.238-0.288,0.34-0.443C152.609,15.396,142.769,7.311,136.691,10.223"/>
	<path fill="#328B9A" d="M157.49,98.974c-2.486-2.943-6.197-4.817-10.35-4.817h-12.92c-4.4,0-8.299,2.108-10.772,5.359
		c0.907,1.345,2.114,2.488,3.519,3.287c2.479-3.148,6.316-5.175,10.635-5.175h6.161c4.564,0,8.592,2.266,11.045,5.727
		c0.117-0.141,0.23-0.285,0.334-0.43C156.041,101.681,156.822,100.356,157.49,98.974"/>
	<path fill="#F499C1" d="M57.25,121.991c23.242-6.508,46.775-11.976,70.508-16.379c5.155-0.956,10.848-2.925,15.981-0.968
		c8.398,3.206,10.939,13.823,6.348,21.171c-3.967,6.35-12.437,7.737-19.857,8.735c-29.795,4.008-58.349,12.235-86.715,21.969
		c-9.442,3.24-22.851,6.5-27.581-5.525c-1.486-3.781-1.148-8.23,0.891-11.744c3.298-5.68,10.086-8.146,16.352-10.113
		C41.163,126.63,49.187,124.248,57.25,121.991"/>
	<path fill="#EE3C96" d="M140.359,176.691c-3.217-2.291-6.932-3.771-10.615-5.201c-16.541-6.42-33.311-12.465-50.307-17.576
		c-5.188-1.561-10.443-2.814-15.709-4.02c-6.758,2.098-13.49,4.318-20.213,6.623c-7.359,2.527-17.123,5.061-23.313,0.369
		c4.591,7.299,13.823,12.703,20.692,15.686c24.092,10.455,50.782,13.48,75.342,22.875c1.408,0.537,2.862,1.107,3.921,2.18
		c3.149,3.188,1.223,8.432,0.345,12.826c-0.916,4.598-0.369,9.535,1.854,13.662c2.225,4.127,6.177,7.363,10.752,8.398
		c2.018,0.455,4.187,0.475,6.103-0.307c1.554-0.631,2.861-1.758,3.984-3.004c4.348-4.836,6.109-11.455,6.988-17.898
		c0.936-6.881,1.008-13.99-0.947-20.65C147.656,185.285,145.01,180.004,140.359,176.691"/>
	<path fill="#F499C1" d="M149.123,204.639c-0.375-3.457-0.994-7.111-3.293-9.723c-3.789-4.309-10.968-4.033-15.733-0.836
		c-5.14,3.449-7.324,7.467-8.568,13.492c-0.626,3.02-1.156,6.1-1.354,9.176c0.152,1.633,0.498,3.242,1.042,4.785
		c0.313,0.887,0.692,1.75,1.138,2.582c2.225,4.127,6.177,7.363,10.752,8.398c2.018,0.455,4.187,0.475,6.103-0.307
		c1.554-0.631,2.86-1.758,3.984-3.004c1.916-2.131,3.326-4.609,4.385-7.27c1.006-2.525,1.689-5.213,2.174-7.918
		C149.662,210.883,149.459,207.754,149.123,204.639"/>
	<path fill="#EC008C" d="M147.279,103.409c-6.449-4.107-14.829-2.441-20.403,2.372c0.294-0.055,0.587-0.113,0.881-0.169
		c5.155-0.956,10.85-2.925,15.983-0.966c8.398,3.204,10.938,13.821,6.346,21.169c-3.504,5.604-10.51,7.342-17.209,8.359
		c0.769,0.312,1.592,0.527,2.383,0.696c2.275,0.485,4.658,0.482,6.928-0.037c3.778-0.861,7.245-3.166,9.528-6.296
		c1.771-2.43,3.041-5.27,3.359-8.258C155.744,113.998,152.666,106.839,147.279,103.409"/>
	<path fill="#EE3C96" d="M140.406,133.688c4.563-1.308,8.61-4.451,10.819-8.651c2.205-4.202,2.475-9.421,0.514-13.744
		c-3.58-7.901-13.51-10.42-20.377-6.435c4.125-0.896,8.418-1.724,12.377-0.211c8.398,3.204,10.941,13.821,6.348,21.169
		c-3.305,5.291-9.735,7.136-16.08,8.18C136.078,134.468,138.337,134.281,140.406,133.688"/>
	<path fill="#EC008C" d="M150.184,110.004c0,0.057,0.008,0.11,0.004,0.166c-0.053,1.485-0.672,2.885-1.289,4.236
		c-1.035,2.265-2.117,4.545-3.748,6.422c-5.09,5.862-14.454,7.044-21.617,8.851c-8.446,2.131-16.987,3.856-25.545,5.468
		c-17.134,3.226-34.388,5.988-51.231,10.564c-9.351,2.541-18.801,5.834-27.109,10.717c6.148,5.303,16.283,2.693,23.866,0.09
		c28.366-9.732,56.92-17.959,86.715-21.967c7.42-0.998,15.89-2.386,19.857-8.735C153.131,120.945,153.037,114.637,150.184,110.004"
		/>
	<path fill="#EE3C96" d="M86.11,118.289c-9.849,2.693-19.696,5.387-29.544,8.082c-8.145,2.228-16.328,4.47-24.037,7.915
		c-3.107,1.388-6.25,3.072-8.191,5.866c-0.455,0.651-0.813,1.6-0.271,2.182c0.313,0.334,0.811,0.402,1.27,0.43
		c3.338,0.197,6.634-0.691,9.86-1.57c19.358-5.275,38.717-10.549,58.075-15.824c5.754-1.568,11.515-3.137,17.366-4.291
		c4.706-0.929,9.546-1.609,13.859-3.712c2.616-1.275,6.955-5.187,2.735-7.173c-3.17-1.491-10.25,0.823-13.576,1.424
		C104.351,113.296,95.221,115.793,86.11,118.289"/>
	<path fill="#F499C1" d="M123.444,172.545c6.132,1.941,12.352,4.211,16.24,8.418c1.669,1.805,2.628,5.084,0.572,6.434
		c-1.419,0.934-3.396,0.191-4.583-1.02c-1.188-1.215-1.895-2.816-2.982-4.125c-4.677-5.619-12.904-7.906-19.594-10.035
		c-1.948-0.621-16.452-3.531-16.471-5.107c-0.059-4.725,14.508,1.156,16.341,1.918C116.071,170.318,119.741,171.371,123.444,172.545
		"/>
	<path fill="#EC008C" d="M139.736,213.416c3.317,0.592,6.465,1.758,9.448,3.301c0.213-0.898,0.406-1.797,0.57-2.701
		c-0.023-0.756-0.053-1.518-0.088-2.275c-0.076-0.531-0.172-1.057-0.297-1.582c-0.99-4.225-3.771-8.955-7.782-10.928
		c-3.424-1.686-7.646-1.18-10.999,0.643c-3.354,1.826-5.936,4.814-7.991,8.031c-0.6,0.938-1.155,1.908-1.678,2.893
		c-0.332,1.924-0.601,3.857-0.732,5.795C126.292,213.74,133.042,212.227,139.736,213.416"/>
	<path fill="#EE3C96" d="M139.736,213.416c-6.693-1.189-13.443,0.324-19.549,3.176c-0.004,0.053-0.01,0.105-0.013,0.156
		c0.153,1.633,0.501,3.242,1.043,4.785c0.313,0.887,0.69,1.75,1.14,2.582c2.223,4.127,6.175,7.363,10.75,8.398
		c2.018,0.455,4.188,0.475,6.103-0.307c1.552-0.631,2.861-1.758,3.984-3.004c1.916-2.131,3.326-4.609,4.385-7.268
		c0.668-1.682,1.186-3.439,1.605-5.219C146.201,215.174,143.053,214.008,139.736,213.416"/>
	<path fill="#EC008C" d="M179.129,107.25l-0.709,0.709h59.531v30.884l0.709-0.708V107.25H179.129z M192.307,133.555h-4.305v-21.192
		h4.305V133.555z M205.66,133.555h-4.305v-21.192h4.305V133.555z M219.012,133.555h-4.305v-21.192h4.305V133.555z M232.365,133.555
		h-4.303v-21.192h4.303V133.555z"/>
	<path fill="#EE3C96" d="M178.42,138.842h59.531v-30.884H178.42V138.842z M191.6,134.263h-4.305v-21.192h4.305V134.263z
		 M204.951,134.263h-4.303v-21.192h4.303V134.263z M218.305,134.263h-4.303v-21.192h4.303V134.263z M231.658,134.263h-4.305v-21.192
		h4.305V134.263z"/>
</g>
</svg>
