<?xml version="1.0" encoding="utf-8"?>
<!-- Generator: Adobe Illustrator 15.0.0, SVG Export Plug-In . SVG Version: 6.00 Build 0)  -->
<!DOCTYPE svg PUBLIC "-//W3C//DTD SVG 1.1//EN" "http://www.w3.org/Graphics/SVG/1.1/DTD/svg11.dtd">
<svg version="1.1" id="שכבה_1" xmlns="http://www.w3.org/2000/svg" xmlns:xlink="http://www.w3.org/1999/xlink" x="0px" y="0px"
	 width="283.46px" height="283.46px" viewBox="0 0 283.46 283.46" enable-background="new 0 0 283.46 283.46" xml:space="preserve">
<g>
	<polygon fill="#FFCC23" points="154.483,159.34 107.661,166.605 107.661,80.917 154.483,77.283 	"/>
	<polygon fill="#D8A828" points="107.661,166.605 83.796,159.34 83.796,75.467 107.661,80.917 	"/>
	<polygon fill="#FFD56C" points="83.796,75.467 107.614,81.178 154.482,77.284 132.936,72.408 	"/>
	<path fill="#D8A828" d="M126.376,94.783c0-3.139-1.479-5.878-3.685-7.395v-1.236h-3.558c-0.131-0.007-0.261-0.02-0.394-0.02
		c-0.132,0-0.263,0.013-0.392,0.02h-0.29v0.019c-3.899,0.39-6.956,4.095-6.956,8.612c0,4.516,3.057,8.22,6.956,8.613v0.005h0.141
		c0.179,0.018,0.359,0.034,0.541,0.034c0.182,0,0.359-0.016,0.541-0.034h3.411v-1.226
		C124.897,100.661,126.376,97.921,126.376,94.783"/>
	<path fill="#FFD56C" d="M130.232,94.783c0,4.779-3.42,8.652-7.638,8.652c-4.217,0-7.638-3.873-7.638-8.652
		c0-4.781,3.42-8.651,7.638-8.651C126.812,86.132,130.232,90.002,130.232,94.783"/>
	<path fill="#D8A828" d="M147.848,92.432c0-3.137-1.48-5.876-3.688-7.393v-1.235h-3.556c-0.133-0.008-0.262-0.022-0.396-0.022
		c-0.132,0-0.262,0.015-0.391,0.022h-0.292v0.016c-3.897,0.391-6.952,4.098-6.952,8.613c0,4.519,3.055,8.224,6.952,8.613v0.009
		h0.143c0.181,0.015,0.36,0.03,0.54,0.03c0.185,0,0.361-0.015,0.542-0.03h3.41v-1.228C146.367,98.311,147.848,95.572,147.848,92.432
		"/>
	<path fill="#FFD56C" d="M151.702,92.432c0,4.779-3.421,8.652-7.638,8.652c-4.218,0-7.638-3.873-7.638-8.652
		c0-4.778,3.42-8.651,7.638-8.651C148.281,83.781,151.702,87.653,151.702,92.432"/>
	<path fill="#D8A828" d="M127.337,122.236c0-3.141-1.478-5.879-3.684-7.395v-1.236h-3.559c-0.129-0.008-0.259-0.02-0.394-0.02
		c-0.133,0-0.262,0.012-0.392,0.02h-0.29v0.02c-3.899,0.389-6.956,4.093-6.956,8.612c0,4.516,3.057,8.219,6.956,8.612v0.007h0.14
		c0.181,0.015,0.36,0.032,0.542,0.032c0.184,0,0.362-0.017,0.542-0.032h3.41v-1.226C125.859,128.11,127.337,125.373,127.337,122.236
		"/>
	<path fill="#FFD56C" d="M131.195,122.236c0,4.777-3.421,8.651-7.64,8.651c-4.214,0-7.638-3.874-7.638-8.651
		c0-4.778,3.423-8.651,7.638-8.651C127.773,113.584,131.195,117.458,131.195,122.236"/>
	<path fill="#D8A828" d="M148.811,119.884c0-3.139-1.482-5.879-3.689-7.395v-1.234h-3.556c-0.133-0.01-0.261-0.022-0.395-0.022
		c-0.132,0-0.262,0.012-0.392,0.022h-0.29v0.018c-3.898,0.389-6.955,4.091-6.955,8.611c0,4.518,3.057,8.222,6.955,8.615v0.008h0.142
		c0.18,0.014,0.36,0.028,0.54,0.028c0.184,0,0.361-0.014,0.541-0.028h3.41v-1.228C147.328,125.762,148.811,123.025,148.811,119.884"
		/>
	<path fill="#FFD56C" d="M152.662,119.884c0,4.779-3.418,8.65-7.637,8.65c-4.217,0-7.636-3.872-7.636-8.65s3.418-8.651,7.636-8.651
		C149.244,111.233,152.662,115.105,152.662,119.884"/>
	<path fill="#D8A828" d="M128.087,150.966c0-3.138-1.481-5.874-3.688-7.393v-1.233h-3.557c-0.131-0.009-0.261-0.024-0.395-0.024
		c-0.13,0-0.261,0.016-0.392,0.024h-0.291v0.016c-3.896,0.389-6.954,4.095-6.954,8.61c0,4.519,3.058,8.223,6.954,8.614v0.007h0.144
		c0.179,0.016,0.358,0.031,0.539,0.031c0.185,0,0.36-0.016,0.542-0.031h3.41v-1.229
		C126.606,156.844,128.087,154.105,128.087,150.966"/>
	<path fill="#FFD56C" d="M131.942,150.966c0,4.783-3.421,8.652-7.637,8.652c-4.218,0-7.638-3.869-7.638-8.652
		c0-4.777,3.42-8.65,7.638-8.65C128.521,142.315,131.942,146.188,131.942,150.966"/>
	<path fill="#D8A828" d="M149.557,148.616c0-3.138-1.48-5.878-3.686-7.393v-1.235h-3.56c-0.129-0.009-0.26-0.021-0.392-0.021
		c-0.133,0-0.262,0.013-0.393,0.021h-0.29v0.016c-3.899,0.392-6.956,4.096-6.956,8.612s3.057,8.224,6.956,8.614v0.005h0.143
		c0.178,0.015,0.358,0.032,0.54,0.032c0.182,0,0.359-0.018,0.539-0.032h3.413v-1.227
		C148.076,154.496,149.557,151.755,149.557,148.616"/>
	<path fill="#FFD56C" d="M153.412,148.616c0,4.779-3.42,8.651-7.637,8.651c-4.219,0-7.639-3.872-7.639-8.651
		c0-4.777,3.419-8.649,7.639-8.649C149.992,139.967,153.412,143.839,153.412,148.616"/>
	<g opacity="0.3">
		<g>
			<defs>
				<rect id="SVGID_1_" x="83.796" y="72.408" width="63.937" height="48.621"/>
			</defs>
			<clipPath id="SVGID_2_">
				<use xlink:href="#SVGID_1_"  overflow="visible"/>
			</clipPath>
			<path clip-path="url(#SVGID_2_)" fill="#FFDE95" d="M83.796,75.467v41.334c5.776,2.708,12.224,4.229,19.027,4.229
				c24.802,0,44.907-20.105,44.907-44.909c0-0.123-0.006-0.242-0.006-0.367l-14.789-3.346L83.796,75.467z"/>
		</g>
	</g>
	<g opacity="0.2">
		<g>
			<defs>
				<rect id="SVGID_3_" x="83.796" y="135.464" width="70.688" height="31.142"/>
			</defs>
			<clipPath id="SVGID_4_">
				<use xlink:href="#SVGID_3_"  overflow="visible"/>
			</clipPath>
			<path clip-path="url(#SVGID_4_)" fill="#D8A828" d="M154.483,159.34v-23.876c-19.92,21.943-59.213,21.11-70.688,20.35v3.526
				l23.865,7.266L154.483,159.34z"/>
		</g>
	</g>
	<polygon fill="#EC1263" points="91.168,167.192 34.537,170.827 34.537,136.007 91.168,132.917 	"/>
	<polygon fill="#AC1F5E" points="34.537,170.827 20.844,159.927 20.844,125.652 34.537,136.007 	"/>
	<polygon fill="#EE4191" points="20.844,125.651 34.516,136.007 91.168,132.917 71.261,123.829 	"/>
	<path fill="#EC1263" d="M29.144,121.532v4.407c0,1.106,3.695,2.002,8.253,2.002c4.557,0,8.25-0.896,8.25-2.002v-4.407H29.144z"/>
	<path fill="#EF509D" d="M45.646,121.532c0,1.109-3.693,2.005-8.251,2.005c-4.556,0-8.252-0.896-8.252-2.005
		c0-1.103,3.696-2.002,8.252-2.002C41.953,119.529,45.646,120.429,45.646,121.532"/>
	<path fill="#EC1263" d="M36.653,127.464v4.407c0,1.105,3.694,2,8.251,2c4.557,0,8.251-0.894,8.251-2v-4.407H36.653z"/>
	<path fill="#EF509D" d="M53.155,127.464c0,1.106-3.693,2.004-8.251,2.004c-4.556,0-8.251-0.898-8.251-2.004
		c0-1.106,3.695-2.004,8.251-2.004C49.462,125.46,53.155,126.357,53.155,127.464"/>
	<path fill="#EC1263" d="M56.383,120.4v4.407c0,1.104,3.694,2,8.249,2c4.559,0,8.254-0.896,8.254-2V120.4H56.383z"/>
	<path fill="#EF509D" d="M72.886,120.4c0,1.106-3.695,2.005-8.252,2.005c-4.556,0-8.25-0.899-8.25-2.005
		c0-1.105,3.695-2.002,8.25-2.002C69.191,118.398,72.886,119.295,72.886,120.4"/>
	<path fill="#EC1263" d="M63.892,125.968v4.408c0,1.104,3.691,2,8.251,2c4.557,0,8.25-0.896,8.25-2v-4.408H63.892z"/>
	<path fill="#EF509D" d="M80.393,125.968c0,1.107-3.693,2.004-8.25,2.004s-8.251-0.896-8.251-2.004c0-1.105,3.695-2,8.251-2
		S80.393,124.863,80.393,125.968"/>
	<g opacity="0.7">
		<g>
			<defs>
				<rect id="SVGID_5_" x="20.844" y="118.398" width="55.368" height="43.384"/>
			</defs>
			<clipPath id="SVGID_6_">
				<use xlink:href="#SVGID_5_"  overflow="visible"/>
			</clipPath>
			<path clip-path="url(#SVGID_6_)" fill="#FFDE95" d="M76.211,124.228c-0.999-0.137-2.123-0.226-3.326-0.253V120.4
				c0-1.106-3.696-2.002-8.252-2.002c-4.556,0-8.252,0.896-8.252,2.002v3.964l-10.735,0.389v-3.222c0-1.103-3.693-2.002-8.251-2.002
				c-4.556,0-8.252,0.899-8.252,2.002v3.819l-8.299,0.302v34.274l1.304,1.04c2.797,0.527,5.681,0.815,8.631,0.815
				C53.351,161.782,72.135,145.614,76.211,124.228"/>
		</g>
	</g>
	<g opacity="0.5">
		<g>
			<defs>
				<rect id="SVGID_7_" x="30.691" y="145.756" width="60.477" height="25.071"/>
			</defs>
			<clipPath id="SVGID_8_">
				<use xlink:href="#SVGID_7_"  overflow="visible"/>
			</clipPath>
			<path clip-path="url(#SVGID_8_)" fill="#EC1263" d="M91.168,145.756c-23.205,19.237-53.524,21.696-60.478,22.007l3.847,3.064
				l56.631-3.634V145.756z"/>
		</g>
	</g>
	<rect x="161.566" y="126.909" fill="#FFCC23" width="104.425" height="38.943"/>
	<polygon fill="#FFD56C" points="161.566,126.909 170.87,121.451 257.929,121.575 265.991,126.909 	"/>
	<path fill="#D8A828" d="M168.249,118.755v4.922c0,1.234,4.127,2.235,9.216,2.235c5.091,0,9.215-1,9.215-2.235v-4.922H168.249z"/>
	<path fill="#FFD56C" d="M186.681,118.755c0,1.233-4.125,2.237-9.216,2.237c-5.089,0-9.216-1.003-9.216-2.237
		s4.127-2.236,9.216-2.236C182.556,116.519,186.681,117.521,186.681,118.755"/>
	<path fill="#D8A828" d="M192.31,118.755v4.922c0,1.234,4.127,2.235,9.217,2.235c5.087,0,9.214-1,9.214-2.235v-4.922H192.31z"/>
	<path fill="#FFD56C" d="M210.742,118.755c0,1.233-4.128,2.237-9.217,2.237s-9.216-1.003-9.216-2.237s4.127-2.236,9.216-2.236
		S210.742,117.521,210.742,118.755"/>
	<path fill="#D8A828" d="M216.37,118.755v4.922c0,1.234,4.126,2.235,9.216,2.235c5.088,0,9.216-1,9.216-2.235v-4.922H216.37z"/>
	<path fill="#FFD56C" d="M234.803,118.755c0,1.233-4.127,2.237-9.218,2.237c-5.089,0-9.215-1.003-9.215-2.237
		s4.126-2.236,9.215-2.236C230.676,116.519,234.803,117.521,234.803,118.755"/>
	<path fill="#D8A828" d="M240.43,118.755v4.922c0,1.234,4.128,2.235,9.217,2.235c5.09,0,9.215-1,9.215-2.235v-4.922H240.43z"/>
	<path fill="#FFD56C" d="M258.862,118.755c0,1.233-4.126,2.237-9.217,2.237c-5.088,0-9.214-1.003-9.214-2.237
		s4.126-2.236,9.214-2.236C254.736,116.519,258.862,117.521,258.862,118.755"/>
	<g opacity="0.3">
		<g>
			<defs>
				<rect id="SVGID_9_" x="161.566" y="116.519" width="88.122" height="36.897"/>
			</defs>
			<clipPath id="SVGID_10_">
				<use xlink:href="#SVGID_9_"  overflow="visible"/>
			</clipPath>
			<path clip-path="url(#SVGID_10_)" fill="#FFDE95" d="M198.904,152.946c24.848-2.82,44.604-17.82,50.784-36.428h-0.042
				c-5.091,0-9.216,1.003-9.216,2.235v2.795l-5.628-0.006v-2.79c0-1.232-4.127-2.235-9.218-2.235c-5.089,0-9.215,1.003-9.215,2.235
				v2.762l-5.63-0.006v-2.756c0-1.232-4.127-2.235-9.215-2.235c-5.09,0-9.217,1.003-9.217,2.235v2.728l-5.628-0.008v-2.72
				c0-1.232-4.125-2.235-9.216-2.235c-5.089,0-9.216,1.003-9.216,2.235v4.236l-6.683,3.919v19.933
				C172.199,152.109,185.212,154.505,198.904,152.946"/>
		</g>
	</g>
	<g opacity="0.2">
		<g>
			<defs>
				<rect id="SVGID_11_" x="161.566" y="140.961" width="104.425" height="24.891"/>
			</defs>
			<clipPath id="SVGID_12_">
				<use xlink:href="#SVGID_11_"  overflow="visible"/>
			</clipPath>
			<path clip-path="url(#SVGID_12_)" fill="#D8A828" d="M265.99,140.961c-29.606,19.604-89.051,20.082-104.424,19.855v5.037H265.99
				V140.961z"/>
		</g>
	</g>
	<rect x="161.566" y="88.221" fill="#6353A3" width="52.718" height="38.16"/>
	<polygon fill="#7C67AE" points="161.566,88.221 168.616,83.701 208.449,83.819 214.284,88.221 	"/>
	<path fill="#4D3896" d="M167.702,80.232v4.822c0,1.21,4.043,2.19,9.028,2.19c4.991,0,9.031-0.98,9.031-2.19v-4.822H167.702z"/>
	<path fill="#8978B7" d="M185.762,80.232c0,1.208-4.043,2.191-9.03,2.191s-9.029-0.983-9.029-2.191c0-1.211,4.042-2.192,9.029-2.192
		S185.762,79.021,185.762,80.232"/>
	<path fill="#4D3896" d="M190.864,80.232v4.822c0,1.21,4.045,2.19,9.032,2.19c4.986,0,9.029-0.98,9.029-2.19v-4.822H190.864z"/>
	<path fill="#8978B7" d="M208.926,80.232c0,1.208-4.044,2.191-9.029,2.191c-4.987,0-9.032-0.983-9.032-2.191
		c0-1.211,4.045-2.192,9.032-2.192C204.882,78.04,208.926,79.021,208.926,80.232"/>
	<g opacity="0.3">
		<g>
			<defs>
				<rect id="SVGID_13_" x="161.566" y="78.04" width="48.916" height="39.032"/>
			</defs>
			<clipPath id="SVGID_14_">
				<use xlink:href="#SVGID_13_"  overflow="visible"/>
			</clipPath>
			<path clip-path="url(#SVGID_14_)" fill="#FFDE95" d="M208.926,84.181v-3.948c0-1.211-4.044-2.192-9.029-2.192
				c-4.987,0-9.032,0.981-9.032,2.192v3.534l-5.103-0.014v-3.521c0-1.211-4.04-2.192-9.03-2.192c-4.986,0-9.029,0.981-9.029,2.192
				v4.053l-6.136,3.936v28.282c2.28,0.368,4.617,0.568,7.002,0.568c19.951,0,36.756-13.419,41.914-31.715L208.926,84.181z"/>
		</g>
	</g>
	<g opacity="0.4">
		<g>
			<defs>
				<rect id="SVGID_15_" x="161.566" y="109.058" width="52.718" height="17.322"/>
			</defs>
			<clipPath id="SVGID_16_">
				<use xlink:href="#SVGID_15_"  overflow="visible"/>
			</clipPath>
			<path clip-path="url(#SVGID_16_)" fill="#6353A3" d="M161.566,122.925v3.456h52.718v-17.322
				C193.549,122.74,170.243,123.28,161.566,122.925"/>
		</g>
	</g>
	<polygon fill="#EC1263" points="236.688,180.873 180.057,184.505 180.057,149.683 236.688,146.595 	"/>
	<polygon fill="#AC1F5E" points="180.056,184.505 166.363,173.605 166.363,139.332 180.056,149.683 	"/>
	<polygon fill="#EE4191" points="166.363,139.33 180.035,149.683 236.688,146.595 216.782,137.508 	"/>
	<path fill="#EC1263" d="M174.663,135.21v4.407c0,1.107,3.693,2.003,8.253,2.003c4.557,0,8.25-0.896,8.25-2.003v-4.407H174.663z"/>
	<path fill="#EF509D" d="M191.166,135.21c0,1.107-3.693,2.004-8.25,2.004c-4.558,0-8.253-0.897-8.253-2.004
		c0-1.104,3.695-2.003,8.253-2.003C187.473,133.207,191.166,134.106,191.166,135.21"/>
	<path fill="#EC1263" d="M182.174,141.143v4.409c0,1.103,3.692,1.999,8.25,1.999c4.556,0,8.252-0.896,8.252-1.999v-4.409H182.174z"
		/>
	<path fill="#EF509D" d="M198.676,141.143c0,1.106-3.694,2.005-8.252,2.005c-4.556,0-8.25-0.898-8.25-2.005
		c0-1.105,3.694-2.005,8.25-2.005C194.981,139.138,198.676,140.037,198.676,141.143"/>
	<path fill="#EC1263" d="M201.902,134.08v4.405c0,1.107,3.693,2.005,8.25,2.005c4.558,0,8.252-0.897,8.252-2.005v-4.405H201.902z"/>
	<path fill="#EF509D" d="M218.404,134.08c0,1.106-3.694,2.003-8.25,2.003c-4.559,0-8.252-0.897-8.252-2.003
		c0-1.105,3.693-2.003,8.252-2.003C214.71,132.077,218.404,132.975,218.404,134.08"/>
	<path fill="#EC1263" d="M209.409,139.647v4.406c0,1.106,3.693,2.004,8.253,2.004c4.559,0,8.249-0.897,8.249-2.004v-4.406H209.409z"
		/>
	<path fill="#EF509D" d="M225.911,139.647c0,1.107-3.69,2.003-8.249,2.003c-4.557,0-8.253-0.896-8.253-2.003
		c0-1.104,3.696-2.002,8.253-2.002C222.221,137.646,225.911,138.543,225.911,139.647"/>
	<g opacity="0.7">
		<g>
			<defs>
				<rect id="SVGID_17_" x="166.363" y="132.077" width="55.367" height="43.385"/>
			</defs>
			<clipPath id="SVGID_18_">
				<use xlink:href="#SVGID_17_"  overflow="visible"/>
			</clipPath>
			<path clip-path="url(#SVGID_18_)" fill="#FFDE95" d="M221.73,137.908c-0.999-0.139-2.121-0.228-3.326-0.252v-3.576
				c0-1.107-3.695-2.001-8.25-2.001c-4.559,0-8.253,0.894-8.253,2.001v3.963l-10.735,0.39v-3.222c0-1.102-3.693-2.001-8.25-2.001
				c-4.558,0-8.253,0.899-8.253,2.001v3.819l-8.299,0.303v34.273l1.305,1.039c2.797,0.528,5.68,0.815,8.63,0.815
				C198.87,175.46,217.657,159.291,221.73,137.908"/>
		</g>
	</g>
</g>
</svg>
