<?xml version="1.0" encoding="utf-8"?>
<!-- Generator: Adobe Illustrator 15.0.0, SVG Export Plug-In . SVG Version: 6.00 Build 0)  -->
<!DOCTYPE svg PUBLIC "-//W3C//DTD SVG 1.1//EN" "http://www.w3.org/Graphics/SVG/1.1/DTD/svg11.dtd">
<svg version="1.1" id="שכבה_1" xmlns="http://www.w3.org/2000/svg" xmlns:xlink="http://www.w3.org/1999/xlink" x="0px" y="0px"
	 width="566.93px" height="566.93px" viewBox="0 0 566.93 566.93" enable-background="new 0 0 566.93 566.93" xml:space="preserve">
<g>
	<path fill-rule="evenodd" clip-rule="evenodd" fill="#F5F6F6" d="M430.302,262.49c0,37.014-43.655,64.551-93.343,64.551
		s-89.967-30.006-89.967-67.019c0-37.014,67.444-87.952,117.132-87.952S430.302,225.476,430.302,262.49z"/>
	
		<ellipse transform="matrix(0.8598 -0.5107 0.5107 0.8598 -106.1051 184.0727)" fill-rule="evenodd" clip-rule="evenodd" fill="#321315" cx="282.142" cy="285.252" rx="20.303" ry="25.267"/>
	
		<ellipse transform="matrix(0.8922 -0.4516 0.4516 0.8922 -92.4841 158.274)" fill-rule="evenodd" clip-rule="evenodd" fill="#F5F6F6" cx="285.362" cy="272.903" rx="7.015" ry="9.095"/>
	<path fill-rule="evenodd" clip-rule="evenodd" fill="#321315" d="M427.411,238.678c2.745,13.565-2.424,26.696-11.542,29.33
		c-9.118,2.637-18.736-6.222-21.48-19.785c-2.744-13.563,2.425-26.694,11.544-29.331
		C415.052,216.257,424.667,225.117,427.411,238.678z"/>
	<path fill-rule="evenodd" clip-rule="evenodd" fill="#F5F6F6" d="M422.302,231.409c0.709,4.951-1.303,9.494-4.499,10.15
		c-3.197,0.655-6.362-2.827-7.071-7.777c-0.712-4.95,1.303-9.493,4.499-10.149C418.424,222.977,421.59,226.46,422.302,231.409z"/>
	<path fill-rule="evenodd" clip-rule="evenodd" fill="#046298" d="M345.146,152.585c-7.353,7.882-12.779-6.765-12.332-15.694
		c1.61-1.063,5.591-0.618,7.287,0c-0.333-11.389,10.535-21.013,19.619-12.333c4.687,4.477,8.557,20.292,5.605,29.149
		C362.248,162.938,348.652,162.244,345.146,152.585z M356.356,158.191c16.954-0.764,2.811-47.22-10.65-31.391
		c-2.35,2.763-2.216,5.061-2.802,11.211c4.277,1.919,6.322,8.207,3.361,12.892C349.988,153.397,351.075,158.429,356.356,158.191z
		 M340.662,152.585c3.111-1.184,4.347-4.247,5.044-7.847c-2.111-3.121-4.59-5.874-10.089-5.605
		C336.604,144.311,336.424,150.657,340.662,152.585z"/>
	<path fill-rule="evenodd" clip-rule="evenodd" fill="#096894" d="M346.266,150.904c2.961-4.685,0.916-10.973-3.361-12.892
		c0.586-6.15,0.452-8.449,2.802-11.211c13.461-15.83,27.604,30.626,10.65,31.391C351.075,158.429,349.988,153.397,346.266,150.904z"
		/>
	<path fill-rule="evenodd" clip-rule="evenodd" fill="#1683C6" d="M354.407,140.62c0.134,4.837-0.359,11.489,3.889,14.894
		c0.673,0.538,1.37,0.966,2.084,1.307c9.94-7.455-1.769-42.211-13.603-31.141C351.254,129.829,354.222,133.923,354.407,140.62z"/>
	<path fill-rule="evenodd" clip-rule="evenodd" fill="#67B5DF" d="M360.468,139.172c-0.942-4.005-4.493-16.367-11.348-13.632
		c3.447,4.23,6.885,8.626,8.806,13.742c1.245,3.315,2.007,6.662,2.476,10.055C361.063,145.954,361.255,142.518,360.468,139.172z"/>
	<path fill-rule="evenodd" clip-rule="evenodd" fill="#FFFFFF" d="M335.617,139.133c5.499-0.268,7.978,2.484,10.089,5.605
		c-0.697,3.6-1.933,6.664-5.044,7.847C336.424,150.657,336.604,144.311,335.617,139.133z"/>
	<path fill-rule="evenodd" clip-rule="evenodd" fill="#C8EAF5" d="M340.793,145.712c-10.72,3.764-21.315,4.524-31.389,7.287
		c-9.818,2.693-18.585,6.688-27.468,10.651c-13.419,5.986-25.766,12.193-36.996,20.74c-10.716,8.155-19.052,18.619-29.708,27.466
		c-7.059-4.063-7.862-22.566-6.726-34.753c3.001-32.224,36.136-51.618,68.387-55.493c9.466-1.139,24.982,1.574,33.631,3.923
		c8.859,2.408,17.398,9.216,24.666,14.575C337.176,141.571,340.594,142.89,340.793,145.712z"/>
	<path fill-rule="evenodd" clip-rule="evenodd" fill="#EA0D8C" d="M239.145,168.969c1.968,1.133-1.936,2.663-3.363,3.923
		c-1.763,1.555-3.598,3.05-4.484,4.484c-7.764,9.849-15.881,20.73-21.3,33.633c-6,14.285-8.492,30.469-17.377,42.601
		c-15.476-12.422-16.982-42.541-5.606-57.737c3.613-4.824,12.009-10.231,20.181-15.133
		C217.782,174.386,226.717,170.855,239.145,168.969z"/>
	<path fill-rule="evenodd" clip-rule="evenodd" fill="#096894" d="M161.789,205.964c1.63,1.052,0.08,4.984-0.561,7.288
		c-3.125,11.24-6.619,25.587-4.484,40.358c1.571,10.855,5.399,21.609,10.652,29.709c3.458,5.333,9.574,9.876,16.815,10.966
		c0.091,7.945-0.062,16.646,2.531,22.088c-3.912-0.15-10.98-3.506-14.862-5.026c-5.807-2.274-12.052-6.717-14.947-11.415
		c0.92-15.498,3.498-44.954-9.718-45.762c-6.126-0.374-10.343,5.434-11.771,11.212c-5.367,4.009-9.176,9.117-12.892,15.135
		c-0.972,1.572-2.049,3.987-3.924,5.046c-3.01-9.049-0.287-17.974,1.682-25.786c1.551-6.161,2.688-10.586,5.045-15.696
		c4.37-9.48,12.31-22.302,19.618-29.148C149.128,211.042,156.407,206.877,161.789,205.964z"/>
	<path fill-rule="evenodd" clip-rule="evenodd" fill="#1683C6" d="M125.441,272.449c1.336-2.035,2.444-4.178,3.582-6.325
		c2.099-3.959,3.747-8.305,6.591-11.816c5.716-7.054,14.796-5.27,18.466,3.075c0.776,1.767,1.383,3.58,1.897,5.418
		c0.897,2.646,1.502,5.736,1.888,9.052c1.126,6.923,1.969,13.934,5.061,20.359c4.519,9.395,12.612,14.504,21.751,15.58
		c-0.438-4.258-0.414-9.002-0.465-13.508c-7.242-1.09-13.358-5.633-16.815-10.966c-5.253-8.1-9.082-18.854-10.652-29.709
		c-2.109-14.594,1.277-28.77,4.372-39.948c-13.61,3.844-23.148,16.518-29.952,28.343c-5.06,8.794-10.654,20.365-11.139,31.395
		C121.313,275.13,123.963,274.698,125.441,272.449z"/>
	<path fill-rule="evenodd" clip-rule="evenodd" fill="#67B5DF" d="M184.243,297.498c-11.178-4.145-18.844-13.808-23.542-25.179
		c-6.978-16.892-7.121-33.604-3.532-50.815c-0.684,2.146-1.355,4.294-1.982,6.457c-1.077,3.718-1.356,9.854-3.616,13.005
		c-0.996,1.387-1.977,1.696-3.711,1.667c-10.241-0.173-9.55,5.241-12.342,6.685c8.599-5.578,13.053-1.998,16.398,2.396
		c3.645,4.788,4.536,9.839,5.171,15.09c2.242,5.043,2.797,10.729,4.636,16.042c3.323,9.601,11.528,19.942,22.572,18.089
		C184.27,299.791,184.255,298.643,184.243,297.498z"/>
	<path fill-rule="evenodd" clip-rule="evenodd" d="M239.597,236.87c0.207-6.71,2.353-12.847,7.956-14.088
		c2.316-0.516,4.996,0.366,7.475,0.579v-4.388c-4.533-5.557-14.521-5.287-18.686,0.445c-3.398,4.678-3.657,11.48-2.075,17.453
		H239.597z M253.158,219.978c-9.104-0.991-15.391,5.478-16.255,14.575C232.769,222.075,244.063,212.813,253.158,219.978z"/>
	<path fill-rule="evenodd" clip-rule="evenodd" fill="#BF6228" d="M152.821,261.458c4.901,8.826,2.803,20.477,2.803,31.392
		c0,3.085,0.027,7.34,1.119,10.088c2.848,7.164,11.648,7.787,17.378,12.894c-2.569,10.026-7.072,20.155-13.395,27.888
		c-4.895,5.984-12.824,12.524-23.601,12.471c-14.635-0.072-25.11-10.453-26.907-24.664c-2.247-17.76,7.004-37.502,14.575-49.888
		c3.994-6.533,11.521-16.39,18.498-19.619C146.496,260.536,148.762,260.959,152.821,261.458z M136.565,325.36
		c3.271-3.784,9.643-19.765,10.587-28.388c0.617-5.639,0.554-14.58-3.86-13.093c-5.485,1.849-7.999,5.511-11.21,9.529
		c-3.638,4.553-9.471,10.303-9.53,16.816c-0.025,2.688,1.948,5.102,2.242,7.848c0.112,1.041-1.092,1.981-1.121,3.363
		c-0.1,4.666,1.048,7.928,3.363,10.651C130.403,330.363,134.182,328.118,136.565,325.36z"/>
	<path fill-rule="evenodd" clip-rule="evenodd" fill="#D37329" d="M153.745,313.479c-0.873-4.275,0.343-8.798,0.82-13.064
		c0.494-4.41,0.538-8.84,0.613-13.274c0.128-7.474-0.826-19.885-8.155-23.221c-8.926,0.159-24.603,27.042-27.001,32.198
		c-2.542,5.464-4.794,11.28-5.579,17.242c-3.366,25.521,3.016,31.913,9.455,35.646c5.818,3.369,12.709,5.194,19.459,4.307
		c2.072-0.274,4.627-0.499,7.271-0.806c4.17-2.409,7.551-5.668,10.101-8.786c4.567-5.586,8.17-12.428,10.795-19.575
		C163.981,322.836,155.134,320.287,153.745,313.479z M146.573,307.283c-2.503,8.406-5.6,23.875-15.845,26.269
		c-12.869,3.007-9.567-14.584-8.288-21.751c0.05-0.28,0.113-0.566,0.168-0.85c-0.028-0.24,10.597-26.913,20.283-29.643
		C156.069,277.597,148.686,300.189,146.573,307.283z"/>
	<path fill-rule="evenodd" clip-rule="evenodd" fill="#D37329" d="M189.255,323.678c0.118,0.273,0.271,0.528,0.438,0.776h16.56
		c-0.358-1.829-0.619-3.756-0.743-5.82c0.134-3.122-4.074-1.904-3.922-5.046c0.499-0.436,1.266-0.603,2.242-0.561
		c2.736,2.516,5.4,5.155,7.989,7.906v-52.442c-0.869,0.033-1.839,0.114-2.943,0.253c-11.579,1.466-24.569,12.155-26.347,21.863
		c-1.396,7.623,1.648,17.352,3.365,22.98C187.016,317.271,188.189,321.214,189.255,323.678z"/>
	<path fill-rule="evenodd" clip-rule="evenodd" fill="#EAC8D8" d="M114.144,269.306c1.769,2.563-0.079,7.825,0.56,12.331
		c0.492,3.458,2.192,5.487,2.804,7.847c-1.257,0.611-0.986,2.752-2.242,3.365C106.58,290.287,106.78,273.044,114.144,269.306z"/>
	<path fill-rule="evenodd" clip-rule="evenodd" fill="#FCE3EE" d="M114.144,269.306c-0.06,0.029-0.114,0.068-0.172,0.1
		c-5.502,6.676-2.22,15.758,2.065,22.602c0.449-0.883,0.575-2.088,1.47-2.523c-0.612-2.36-2.312-4.389-2.804-7.847
		C114.064,277.131,115.912,271.87,114.144,269.306z"/>
	<path fill-rule="evenodd" clip-rule="evenodd" fill="#BDAAB3" d="M138.326,303.11c-0.403,1.437-0.858,2.856-1.364,4.261
		C137.557,305.952,138.024,304.511,138.326,303.11z"/>
	<path fill-rule="evenodd" clip-rule="evenodd" fill="#BDAAB3" d="M143.292,283.879c-5.485,1.849-7.999,5.511-11.21,9.529
		c-0.669,0.839-1.414,1.717-2.182,2.634c1.768,0.036,3.462-0.043,5.184-0.816c0.695-0.313,1.198-0.524,1.81-0.716
		c-0.407-0.425-0.886-0.797-1.449-1.102c1.452-3.407,4.551-5.164,7.849-6.727c2.632,1.47,2.783,5.232,2.803,7.848
		c0.038,4.909-2.373,10.303-5.045,16.256c-3.583,7.983-5.898,14.576-12.333,18.498c-2.412-1.697-2.082-6.138-2.242-10.09
		c0.712-0.14,1.455-0.461,2.205-0.924c-0.365-0.014-0.745-0.063-1.145-0.174c-1.431-0.395-2.493-1.166-3.273-2.176
		c0.25,0.703-0.56,4.134-0.588,5.516c-0.1,4.666,1.048,7.928,3.363,10.651c3.675,1.127,7.146-3.969,9.529-6.727
		c3.271-3.784,10.44-17.567,11.771-27.468C149.387,290.08,147.706,282.393,143.292,283.879z"/>
	<path fill-rule="evenodd" clip-rule="evenodd" fill="#046298" d="M126.667,319.142c6.763,2.102,18.015-22.903,9.486-25.271
		c-5.473-1.521-9.679,3.866-11.774,7.566C120.932,307.523,119.905,317.039,126.667,319.142z M130.959,297.893
		c1.426-0.898,3.518-0.795,5.045-1.12c0.985,7.56-2.995,17.903-8.407,19.059C122.148,312.156,127.522,300.063,130.959,297.893z"/>
	<path fill-rule="evenodd" clip-rule="evenodd" fill="#EAC8D8" d="M143.292,286.682c2.632,1.47,2.783,5.232,2.803,7.848
		c0.038,4.909-2.373,10.303-5.045,16.256c-3.583,7.983-5.898,14.576-12.333,18.498c-2.412-1.697-2.082-6.138-2.242-10.09
		c7.235-1.424,17.588-21.123,8.969-25.785C136.895,290.001,139.995,288.244,143.292,286.682z"/>
	<path fill-rule="evenodd" clip-rule="evenodd" fill="#FCE3EE" d="M142.6,289.865c-2.178,1.288-4.23,2.719-5.499,4.889
		c2.078,2.426,1.962,6.432,0.642,10.52c0.112,0.74,0.133,1.487-0.016,2.239c-0.661,3.32-1.764,6.653-3.728,9.458
		c-1.326,1.894-3.798,3.349-1.889,6.268c0.445,0.681,0.911,1.289,1.418,1.834c3.118-3.787,5.011-8.694,7.521-14.287
		c1.819-4.053,3.497-7.84,4.384-11.396C145.707,295.59,145.128,292.032,142.6,289.865z"/>
	<path fill-rule="evenodd" clip-rule="evenodd" fill="#FDEFF5" d="M138.175,295.113c2.015,3.012,2.203,7.203,1.788,10.741
		c-0.861,7.35-3.816,12.004-7.626,17.704l0.026,0.036c3.686-4.844,7.574-8.977,8.63-15.501c0.292-1.807,0.45-3.694,0.437-5.586
		C140.885,299.739,139.915,297.106,138.175,295.113z"/>
	<path fill-rule="evenodd" clip-rule="evenodd" fill="#0D7CA3" d="M136.004,296.772c4.462,4.664-4.117,19.778-9.53,20.933
		c-5.449-3.675-2.862-11.383-1.767-14.595C126.788,297.016,134.015,295.697,136.004,296.772z"/>
	<path fill-rule="evenodd" clip-rule="evenodd" fill="#1683C6" d="M126.85,299.635c-0.623,2.447-1.807,4.637-2.029,7.276
		c-0.12,1.421-0.762,4.702,0.927,5.554c2.26,1.139,5.537-0.338,7.836-1.494c3.134-5.021,5.06-11.439,2.42-14.198
		C134.474,295.946,129.851,296.545,126.85,299.635z"/>
	<path fill-rule="evenodd" clip-rule="evenodd" fill="#67B5DF" d="M130.325,310.826c2.587-1.322,4.194-4.941,4.56-7.62
		c0.151-1.112,0.904-5.818-1.48-5.183c-1.122,0.302-2.164,0.753-3.171,1.287C132.245,302.598,131.491,306.999,130.325,310.826z"/>
	<path fill-rule="evenodd" clip-rule="evenodd" d="M205.511,318.634c0.124,2.064,0.385,3.991,0.743,5.82h2.321
		c-0.208-1.257-0.321-2.61-0.26-4.139c1.18,1.278,2.347,2.569,3.504,3.872v-3.254c-2.589-2.751-5.253-5.391-7.989-7.906
		c-0.976-0.042-1.743,0.125-2.242,0.561C201.437,316.729,205.645,315.512,205.511,318.634z"/>
	<path fill-rule="evenodd" clip-rule="evenodd" fill="#FFFFFF" d="M211.819,324.454v-0.267c-1.158-1.303-2.324-2.594-3.504-3.872
		c-0.062,1.528,0.051,2.882,0.26,4.139H211.819z"/>
	<path fill-rule="evenodd" clip-rule="evenodd" fill="#1683C6" d="M247.553,222.781c-5.603,1.242-7.749,7.378-7.956,14.088h15.43
		V223.36C252.549,223.147,249.869,222.266,247.553,222.781z"/>
	<path fill-rule="evenodd" clip-rule="evenodd" fill="#1683C6" d="M211.819,236.87h22.448c-1.583-5.972-1.324-12.775,2.075-17.453
		c4.165-5.732,14.152-6.002,18.686-0.445v-55.363c-8.151,5.316-15.066,10.385-21.488,17.131
		c-8.085,8.495-16.286,20.257-20.742,31.389c-5.567,13.919-7.805,39.823-5.043,53.813c1.435-0.264,2.779-0.333,4.064-0.274V236.87z"
		/>
	<path fill-rule="evenodd" clip-rule="evenodd" fill="#A4629E" d="M239.705,165.604c1.387-0.07,0.954,0.687,0,0.561
		c-14.897,2.051-30.268,9.55-41.479,17.377c-9.648,6.734-19.214,16.049-20.741,30.829c-1.863,18.057,3.718,32.225,13.454,41.481
		c-4.186,2.492-7.735,6.406-14.573,5.044c-3.505-0.696-7.835-5.732-9.53-8.969c-8.691-16.603-4.516-46.816,5.605-58.296
		c7.318-8.299,20.095-14.931,31.951-19.619C215.748,169.521,227.671,167.406,239.705,165.604z"/>
	<path fill-rule="evenodd" clip-rule="evenodd" fill="#F299C1" d="M171.37,197.794c-2.06,2.917-3.731,6.062-4.57,9.644
		c-1.959,8.368-2.86,18.843-1.07,27.358c1.444,6.873,4.196,15.859,9.99,20.386c3.084,2.409,6.569,3.557,10.199,3.938
		c1.74-1.029,3.329-2.262,5.018-3.268c-9.736-9.256-15.317-23.424-13.454-41.481c1.527-14.78,11.093-24.095,20.741-30.829
		c10.649-7.435,25.05-14.563,39.235-17.019c-8.254,0.089-17.426,4.049-24.865,6.537c-8.51,2.849-17.095,6.003-24.791,10.695
		C181.521,187.586,175.784,192.253,171.37,197.794z"/>
	<path fill-rule="evenodd" clip-rule="evenodd" fill="#FFFFFF" d="M236.903,234.553c-4.134-12.478,7.16-21.74,16.255-14.575
		C244.054,218.987,237.767,225.456,236.903,234.553z"/>
	<path fill-rule="evenodd" clip-rule="evenodd" fill="#096894" d="M205.511,266.502c-6.676,2.961-14.169,5.811-19.057,11.772
		c-2.884,3.517-5.514,7.103-6.167,12.892c-6.993-1.783-11.306-9.306-14.573-16.256c-4.634-9.851-8.056-24.72-6.728-40.357
		c2.366,11.647,8.651,25.891,13.516,26.905c20.416,4.253,26.458-15.894,33.57-30.831c-0.157-1.001,0.529-1.149,0.561-0.56
		C204.185,239.827,203.276,255.611,205.511,266.502z"/>
	<path fill-rule="evenodd" clip-rule="evenodd" fill="#1683C6" d="M201.113,250.494c0.375-3.106,0.415-6.352,1.037-9.418
		c0.279-1.379,0.646-2.721,1.004-4.06c-6.13,13.633-13.046,28.11-30.652,24.442c-3.354-0.7-7.379-7.689-10.334-15.779
		c0.231,10.416,1.819,21.9,9.24,29.006c3.557,3.406,8.054,5.418,12.84,6.446c0.698-0.982,1.44-1.923,2.206-2.856
		c4.362-5.32,10.8-8.162,16.879-10.816C201.819,261.945,200.444,256.048,201.113,250.494z"/>
	<path fill-rule="evenodd" clip-rule="evenodd" fill="#67B5DF" d="M201.113,250.494c0.064-0.527,0.11-1.063,0.158-1.597
		c-5.616,11.29-19.929,25.926-39.863,3.695c2.525,3.479,6.229,8.866,17.809,12.889c7.73,2.685,16.658-1.378,22.058-7.473
		C200.936,255.478,200.817,252.952,201.113,250.494z"/>
	<path fill-rule="evenodd" clip-rule="evenodd" fill="#33112F" d="M148.897,258.654c-3.929-0.19-6.721,0.754-8.409,2.804
		C140.025,260.132,147.077,254.148,148.897,258.654z"/>
	<path fill-rule="evenodd" clip-rule="evenodd" fill="#BDAAB3" d="M172.502,261.458c22.757,6.75,26.368-15.295,33.294-30.233h-2.779
		c-2.639,8.021-5.575,15.801-10.397,22.385c-6.448-5.175-10.461-13.426-12.139-22.385h-2.458
		c1.841,10.169,6.454,18.486,12.914,24.627c-4.186,2.492-7.735,6.406-14.573,5.044c-3.505-0.696-7.835-5.732-9.53-8.969
		c-5.438-10.391-5.839-26.111-2.896-39.235v-10.471c-0.153,0.316-0.324,0.618-0.469,0.939c-5.652,0.497-9.176,2.182-12.891,4.484
		c-4.782,2.965-6.722,5.826-10.091,9.529c-11.502,12.65-21.455,30.217-24.663,49.328c-5.307,1.598-9.371,5.96-10.091,11.772
		c-0.969,7.835,4.136,14.716,7.849,19.059c-0.469,0.989-0.908,2.02-1.327,3.072c0.734,0.306,1.313,1.04,1.113,2.034
		c-0.275,1.363-0.573,2.718-0.856,4.073c3.38-8.156,6.346-16.503,10.169-24.428c0.213-0.756,0.456-1.498,0.78-2.202
		c0.669-1.455,1.554-2.755,2.478-4.021c0.438-0.766,0.89-1.525,1.354-2.28c-1.664,2.149-3.215,4.461-4.742,6.936
		c-0.972,1.572-2.049,3.987-3.924,5.046c-3.01-9.049-0.287-17.974,1.682-25.786c1.551-6.161,2.688-10.586,5.045-15.696
		c4.37-9.48,12.31-22.302,19.618-29.148c4.156-3.891,11.434-8.056,16.816-8.969c1.63,1.052,0.08,4.984-0.561,7.288
		c-3.125,11.24-6.619,25.587-4.484,40.358c1.571,10.855,5.399,21.609,10.652,29.709c3.399,5.243,5.586,9.409,12.541,10.584
		c0.628-0.128,1.293,0.095,1.668,0.862c0.227,0.463,0.422,0.935,0.604,1.411c-0.057-1.326-0.029-2.635,0.095-3.899
		c-0.12-0.072-0.235-0.154-0.335-0.256c-0.586-0.6-1.073-1.263-1.504-1.955c-0.061,0.365-0.135,0.716-0.178,1.1
		c-6.993-1.783-11.306-9.306-14.573-16.256c-4.634-9.851-8.056-24.72-6.728-40.357C161.353,246.2,162.771,257.001,172.502,261.458z
		 M117.507,289.484c-1.257,0.611-0.986,2.752-2.242,3.365c-8.685-2.563-8.485-19.805-1.121-23.543
		c1.769,2.563-0.079,7.825,0.56,12.331C115.195,285.096,116.895,287.124,117.507,289.484z"/>
	<path fill-rule="evenodd" clip-rule="evenodd" fill="#095D7D" d="M172.502,261.458c22.757,6.75,26.368-15.295,33.294-30.233h-2.779
		c-2.639,8.021-5.575,15.801-10.397,22.385c-6.448-5.175-10.461-13.426-12.139-22.385h-2.458
		c1.841,10.169,6.454,18.486,12.914,24.627c-4.186,2.492-7.735,6.406-14.573,5.044c-3.505-0.696-7.835-5.732-9.53-8.969
		c-5.438-10.391-5.839-26.111-2.896-39.235v-10.471c-0.153,0.316-0.324,0.618-0.469,0.939c-5.652,0.497-9.176,2.182-12.891,4.484
		c-4.782,2.965-6.722,5.826-10.091,9.529c-11.502,12.65-21.455,30.217-24.663,49.328c-0.075,0.023-0.147,0.051-0.222,0.076
		c-0.114,1.774-0.369,3.528-0.706,5.269c0.207,2.758-0.664,6.477-0.194,9.79c0.479,3.374,2.102,5.388,2.749,7.675
		c0.488,0.036,0.963,0.281,1.288,0.83c0.075,0.127,0.137,0.251,0.2,0.375c1.18-2.844,2.407-5.666,3.743-8.433
		c0.213-0.756,0.456-1.498,0.78-2.202c0.669-1.455,1.554-2.755,2.478-4.021c0.438-0.766,0.89-1.525,1.354-2.28
		c-1.664,2.149-3.215,4.461-4.742,6.936c-0.972,1.572-2.049,3.987-3.924,5.046c-3.01-9.049-0.287-17.974,1.682-25.786
		c1.551-6.161,2.688-10.586,5.045-15.696c4.37-9.48,12.31-22.302,19.618-29.148c4.156-3.891,11.434-8.056,16.816-8.969
		c1.63,1.052,0.08,4.984-0.561,7.288c-3.125,11.24-6.619,25.587-4.484,40.358c1.571,10.855,5.399,21.609,10.652,29.709
		c3.399,5.243,5.586,9.409,12.541,10.584c0.628-0.128,1.293,0.095,1.668,0.862c0.227,0.463,0.422,0.935,0.604,1.411
		c-0.057-1.326-0.029-2.635,0.095-3.899c-0.12-0.072-0.235-0.154-0.335-0.256c-0.586-0.6-1.073-1.263-1.504-1.955
		c-0.061,0.365-0.135,0.716-0.178,1.1c-6.993-1.783-11.306-9.306-14.573-16.256c-4.634-9.851-8.056-24.72-6.728-40.357
		C161.353,246.2,162.771,257.001,172.502,261.458z"/>
	<path fill-rule="evenodd" clip-rule="evenodd" fill="#095D7D" d="M171.845,326.233c0.991-1.553,1.986-3.099,3.204-4.499
		c-0.626-0.662-1.344-1.189-2.162-1.6C172.432,322.146,172.009,324.186,171.845,326.233z"/>
	<path fill-rule="evenodd" clip-rule="evenodd" fill="#095D7D" d="M189.255,323.678c-1.057-2.443-2.22-6.34-3.333-9.997
		c-0.383,0.298-0.88,0.423-1.428,0.201c-0.178-0.072-0.335-0.159-0.5-0.238c0.075,0.166,0.14,0.342,0.218,0.505
		c-3.912-0.15-8.449-1.281-12.332-2.802c-5.807-2.274-11.118-6.513-14.013-11.212c0.92-15.496,2.563-45.157-10.652-45.965
		c-6.126-0.374-10.343,5.434-11.771,11.212c-0.128,0.096-0.244,0.199-0.369,0.295c2.504-1.412,5.47-2.229,7.208-4.583
		c0.906-1.229,2.612-0.801,3.174,0.172c2.219-0.518,4.272-0.188,7.365,0.192c4.901,8.826,2.803,20.477,2.803,31.392
		c0,3.085,0.027,7.34,1.119,10.088c2.848,7.164,11.648,7.787,17.378,12.894c-0.078,0.301-0.179,0.599-0.265,0.9
		c1.424,0.63,2.615,1.491,3.667,2.585c0.36-0.604,0.719-1.222,1.083-1.805c2.974,0.299,4.462,2.133,7.287,1.122
		c0.621,1.868,1.29,3.82,2.012,5.82h1.788C189.527,324.206,189.373,323.951,189.255,323.678z M140.488,261.458
		c-0.463-1.326,6.589-7.31,8.409-2.804C144.968,258.464,142.176,259.408,140.488,261.458z"/>
	<path fill-rule="evenodd" clip-rule="evenodd" fill="#9E5725" d="M171.87,314.132c0.786,0.513,1.544,1.068,2.252,1.699
		c-2.569,10.026-7.893,19.454-14.215,27.186c-4.895,5.985-12.003,13.227-22.78,13.173c-14.635-0.072-25.11-10.453-26.907-24.664
		c-2.247-17.76,7.004-37.502,14.575-49.888c3.994-6.533,11.521-16.39,18.498-19.619c3.204-1.482,5.47-1.059,9.529-0.561
		c0.419,0.757,0.772,1.54,1.095,2.335c-0.894-2.529-2.273-4.706-5.235-5.577l-0.032-0.013c-5.148-0.131-23.38,4.503-35.897,40.989
		c-7.274,17.044-7.963,42.643,5.315,53.634c5.395,4.466,16.215,8.134,26.345,5.045c3.825-1.166,11.292-6.41,15.556-11.494
		c7.438-8.869,12.518-19.052,18.601-28.804C176.236,316.711,174.021,315.486,171.87,314.132z"/>
	<path fill-rule="evenodd" clip-rule="evenodd" fill="#095D7D" d="M185.787,315.326c-0.828-0.246-1.652-0.42-2.108-0.547
		c-1.128-0.316-2.234-0.645-3.315-1.064c-0.174-0.029-0.345-0.047-0.521-0.08c0.345,0.15,0.691,0.294,1.047,0.417
		c1.469,0.513,2.959,0.917,4.458,1.286C185.492,315.341,185.64,315.33,185.787,315.326z"/>
	<path fill-rule="evenodd" clip-rule="evenodd" d="M207.754,265.942c-1.743-8.829-1.492-22.404,0.328-34.717h-1.718
		c-2.24,9.814-3.003,24.801-0.854,35.277c-0.426,0.189-0.857,0.379-1.29,0.568c0.344,0.346,0.598,0.815,0.739,1.425
		c2.201-0.716,4.676-0.934,6.858-1.174v-1.654C210.534,265.609,209.189,265.678,207.754,265.942z"/>
	<path fill-rule="evenodd" clip-rule="evenodd" fill="#EA0D8C" d="M247.553,163.924c-2.366-1.968-4.999-1.249-7.287-1.123
		c-5.548,0.31-12.266,2.096-18.498,3.364c-6.01,1.223-12.227,3.031-17.377,5.045c-17.375,6.792-35.355,16.342-40.921,31.95
		c-5.565,15.607-4.773,28.26-3.854,34.551c2.064,10.402,6.574,19.231,15.417,23.282c15.079,4.383,23.927-15.43,31.039-30.367
		c-0.12-0.764,0.25-1.029,0.447-0.849c0.829-1.643,1.731-3.236,2.248-5.052c0.123-0.434,0.358-0.737,0.646-0.939
		c0.925-4.348,2.06-8.346,3.384-11.659c4.456-11.132,12.656-22.894,20.742-31.389c6.421-6.747,13.337-11.815,21.488-17.131v-4.482
		C252.465,160.685,249.971,162.286,247.553,163.924z M235.781,172.892c-1.763,1.555-3.598,3.05-4.484,4.484
		c-7.764,9.849-15.881,20.73-21.3,33.633c-6,14.285-8.492,30.469-17.377,42.601c-15.476-12.422-16.982-42.541-5.606-57.737
		c3.613-4.824,12.009-10.231,20.181-15.133c10.588-6.354,19.522-9.885,31.95-11.771
		C241.113,170.103,237.208,171.632,235.781,172.892z M239.705,166.166c-14.897,2.051-30.268,9.55-41.479,17.377
		c-9.648,6.734-19.214,16.049-20.741,30.829c-1.863,18.057,3.718,32.225,13.454,41.481c-4.186,2.492-7.735,6.406-14.573,5.044
		c-3.505-0.696-7.835-5.732-9.53-8.969c-8.691-16.603-4.516-46.816,5.605-58.296c7.318-8.299,20.095-14.931,31.951-19.619
		c11.356-4.492,23.28-6.607,35.313-8.409C241.091,165.534,240.658,166.292,239.705,166.166z"/>
	<path fill-rule="evenodd" clip-rule="evenodd" fill="#FEE4D8" d="M311.839,143.761c3.2-0.684,6.428-1.229,9.677-1.809
		c2.235-0.4,4.866-0.747,7.188-1.597c-2.3-2.894-5.878-5.751-8.483-8.264c-3.321-3.202-7.163-4.978-11.5-6.433
		c-2.738-0.919-5.505-1.707-8.295-2.37c-4.605-0.839-9.625-1.525-14.281-1.805c5.027,1.084,9.887,2.667,14.341,5.744
		C306.2,131.177,309.536,137.372,311.839,143.761z"/>
	<path fill-rule="evenodd" clip-rule="evenodd" fill="#E8F6F8" d="M320.22,132.091c-2.188-2.109-4.607-3.593-7.239-4.782
		c-0.272,3.388-1.465,6.471-2.96,9.493c-0.176,0.457-0.364,0.91-0.575,1.355c0.907,1.818,1.707,3.697,2.394,5.604
		c3.2-0.684,6.428-1.229,9.677-1.809c2.235-0.4,4.866-0.747,7.188-1.597C326.403,137.461,322.825,134.604,320.22,132.091z"/>
	<path fill-rule="evenodd" clip-rule="evenodd" fill="#C4E5ED" d="M331.785,138.665c0.229-0.186,0.456-0.38,0.664-0.592
		c-1.438-1.069-2.905-2.156-4.422-3.238C329.372,136.037,330.678,137.268,331.785,138.665z"/>
	<path fill-rule="evenodd" clip-rule="evenodd" fill="#FEE4D8" d="M240.45,137.105c3.398-2.679,6.939-5.134,11.021-6.657
		c1.962-0.733,4.086-1.379,6.159-2.144c-14.916,3.1-28.751,11.535-37.487,24.2c-5.59,8.105-8.135,17.438-9.802,27.036
		c-1.891,10.891,2.813,20.516,7.569,29.989c3.847-3.4,7.443-6.963,11.001-10.517c-12.394-6.797-13.837-28.697-7.778-39.979
		C225.536,150.833,233.203,142.821,240.45,137.105z"/>
	<path fill-rule="evenodd" clip-rule="evenodd" fill="#E0C5DB" d="M218.369,167.19c-1.752,0.45-3.561,0.713-5.338,1.009
		l-0.123,0.008c-1.088,3.695-1.9,7.492-2.567,11.333c-1.891,10.891,2.813,20.516,7.569,29.989c3.847-3.4,7.443-6.963,11.001-10.517
		C219.086,193.624,216.147,178.747,218.369,167.19z"/>
	<path fill-rule="evenodd" clip-rule="evenodd" fill="#FDEEF5" d="M300.141,145.742c-2.964-4.925-8.35-8.18-14-8.9
		c1.081,0.898,2.14,1.821,3.07,2.938c1.712,2.058,3.03,4.531,4.31,6.87c1.814,3.316,3.73,6.509,4.526,10.13
		c0.334-0.127,0.666-0.258,1.001-0.384c0.094-0.064,0.177-0.141,0.271-0.201C303.93,153.239,302.37,149.446,300.141,145.742z"/>
	<path fill-rule="evenodd" clip-rule="evenodd" fill="#FEE4D8" d="M285.328,126.011c4.322,1.414,8.463,3.542,12.237,6.083
		c3.236,2.177,6.305,4.63,8.71,7.546c-2.316-4.568-5.516-8.614-10.21-11.104c-7.709-4.094-16.248-4.514-24.645-6.115l-0.126,0.024
		C275.841,124.116,280.596,124.462,285.328,126.011z"/>
	<path fill-rule="evenodd" clip-rule="evenodd" fill="#C4E5ED" d="M335.272,140.167c-0.055,0.08-0.108,0.159-0.181,0.237
		c-2.616,2.82-6.668,3.803-10.326,4.498c-4.116,0.782-8.229,1.423-12.299,2.304c-0.356,0.602-1.128,0.915-1.847,0.819
		c0.16,0.638,0.301,1.289,0.398,1.963c0.32,2.208-3.055,3.16-3.378,0.931c-0.118-0.819-0.309-1.601-0.529-2.367
		c-0.516,0.149-1.031,0.296-1.546,0.46c0.641,1.612,1.16,3.422,0.883,4.856c0.977-0.299,1.958-0.595,2.956-0.869
		c10.073-2.763,20.669-3.523,31.389-7.287C340.597,142.928,337.27,141.608,335.272,140.167z"/>
	<path fill-rule="evenodd" clip-rule="evenodd" fill="#EDC8AB" d="M163.962,311.313c0.562,0,1.122,0,1.682,0
		c-1.37,9.615-7.32,17.129-12.332,24.102c-6.294,8.76-13.099,17.202-21.862,23.543C143.356,344.144,158,332.068,163.962,311.313z"/>
	<path fill-rule="evenodd" clip-rule="evenodd" fill="#EDC8AB" d="M155.555,324.204c0.135,3.398-2.229,7.011-4.484,10.091
		c-1.996,2.723-4.53,5.895-6.727,8.406c-4.701,5.375-9.988,11.802-15.134,15.697c-2.45,1.852-6.15,3.829-9.53,3.361
		c-0.057-2.673,2.737-2.494,4.484-3.361C136.227,348.598,147.039,337.551,155.555,324.204z"/>
	<path fill-rule="evenodd" clip-rule="evenodd" fill="#EDC8AB" d="M148.829,327.568c1.432-0.025,0.683,0.415,0.56,1.119
		c-6.011,7.809-13.896,17.424-22.422,24.666c-4.813,4.087-9.137,7.677-17.377,6.164c-1.15-2.567-5.249-9.068-0.56-10.65
		c0.481,2.969,0.367,6.844,3.362,7.848c4.425,1.482,9.403-2.76,12.333-5.045C132.944,345.26,142.634,332.971,148.829,327.568z"/>
	<path fill-rule="evenodd" clip-rule="evenodd" fill="#096894" d="M343.597,146.272c-1.921,3.187-6.243,2.719-9.529,3.925
		c-1.755,0.643-3.301,2.321-5.045,2.802c-5.182,1.43-10.64,1.367-15.695,2.802c-13.52,3.841-27.867,8.921-40.359,14.575
		c-2.785,1.149,0.371,1.841-1.681,2.803c-16.471,7.783-30.735,16.893-43.723,30.269c-3.252,3.35-9.03,10.743-13.454,10.65
		c-8.481-0.179-9.884-19.892-8.968-31.951c0.747-9.843,3.974-20.099,8.408-27.466c9.324-15.498,28.485-29.767,49.328-34.193
		c17.278-3.669,39.128-1.279,53.812,5.605c7.822,3.667,15.052,8.122,21.86,13.453C340.896,141.382,343.723,142.641,343.597,146.272z
		 M335.189,140.107c-7.268-5.359-15.807-12.167-24.666-14.575c-8.648-2.349-24.165-5.062-33.631-3.923
		c-32.251,3.875-65.385,23.27-68.387,55.493c-1.136,12.187-0.333,30.69,6.726,34.753c10.656-8.847,18.993-19.311,29.708-27.466
		c11.23-8.546,23.577-14.753,36.996-20.74c8.883-3.963,17.649-7.958,27.468-10.651c10.073-2.763,20.669-3.523,31.389-7.287
		C340.594,142.89,337.176,141.571,335.189,140.107z"/>
	<path fill-rule="evenodd" clip-rule="evenodd" fill="#1683C6" d="M338.551,139.546c-6.809-5.331-14.038-9.785-21.86-13.453
		c-14.684-6.884-36.533-9.274-53.812-5.605c-4.698,0.998-37.965,9.725-52.155,43.121c-6.095,14.345-8.02,38.476,4.44,50.368
		c4.252-0.92,9.4-7.438,12.4-10.529c12.988-13.376,27.252-22.486,43.723-30.269c2.052-0.962-1.104-1.654,1.681-2.803
		c12.492-5.654,26.84-10.733,40.359-14.575c5.056-1.436,10.514-1.373,15.695-2.802c1.744-0.481,3.29-2.159,5.045-2.802
		c3.286-1.206,7.608-0.739,9.529-3.925C343.723,142.641,340.896,141.382,338.551,139.546z M309.404,152.999
		c-9.818,2.693-18.585,6.688-27.468,10.651c-13.419,5.986-25.766,12.193-36.996,20.74c-10.716,8.155-19.052,18.619-29.708,27.466
		c-7.059-4.063-7.862-22.566-6.726-34.753c3.001-32.224,36.136-51.618,68.387-55.493c9.466-1.139,24.982,1.574,33.631,3.923
		c8.859,2.408,17.398,9.216,24.666,14.575c1.986,1.464,5.404,2.783,5.604,5.605C330.073,149.476,319.478,150.236,309.404,152.999z"
		/>
	<path fill-rule="evenodd" clip-rule="evenodd" fill="#67B5DF" d="M259.335,122.248c34.589-10.018,62.949,7.143,73.467,13.662
		c-0.127-0.125-0.256-0.246-0.382-0.373c-0.239-0.242-0.377-0.503-0.449-0.768c-4.855-3.277-9.926-6.166-15.28-8.676
		c-14.684-6.884-36.533-9.274-53.812-5.605c-3.939,0.836-27.96,7.115-43.981,28.806c0.561-0.518,1.138-1.027,1.745-1.522
		C225.051,144.169,227.624,131.433,259.335,122.248z"/>
	<path fill-rule="evenodd" clip-rule="evenodd" fill="#321315" d="M390.784,166.608c-5.296,1.199-11.72,6.03-13.138,11.189
		c-0.43,1.558-2.628,2.488-1.947,3.894C369.667,169.235,382.501,156.39,390.784,166.608z"/>
	<path fill-rule="evenodd" clip-rule="evenodd" fill="#BF6228" d="M414.474,319.078c5.174-2.299,13.829-6.172,18.618-8.854
		c-0.679,5.022-2.624,16.322-6.165,16.816c0.01,1.629,3.168,1.325,3.924,0.562c2.606-3.935,1.055-12.024,2.241-17.378
		c9.047-5.875,23.056-23.059,22.423-40.359c-0.047-1.271-0.852-1.947-1.121-3.363c-0.271-1.416,0.343-2.903,0-3.923
		c-2.151-6.393-11.437-17.243-20.18-11.771c-0.096-10.168-0.948-23.965-4.484-32.513c-1.209,3.774-0.512,7.216-0.561,11.212
		c-1.456-2.047-1.542-5.152-2.802-8.408c-2.445-6.313-5.595-9.509,1.68-14.014c10.675-2.298,21.168-2.834,26.906,3.924
		c3.058,3.599,7.176,16.183,8.969,21.86c1.21,3.831,2.205,8.33,2.803,12.894c2.752,21.003,2.953,44.604-3.362,66.704
		c-2.686,9.393-6.813,21.099-12.333,25.784c-5.74,4.876-25.009,7.007-30.27,1.123C417.37,335.581,415.738,325.877,414.474,319.078z"
		/>
	<path fill-rule="evenodd" clip-rule="evenodd" fill="#D37329" d="M438.619,249.344c7.249-0.487,13.984,7.915,15.774,13.236
		c0.343,1.02-0.271,2.507,0,3.923c0.27,1.417,1.074,2.092,1.121,3.363c0.492,13.474-7.896,26.876-15.905,34.921
		c-0.118,6.229-0.567,12.459-0.45,18.668c0.132,7.059,3.969,13.407,11.808,11.47c1.327-0.327,2.607-0.75,3.857-1.235
		c3.655-5.713,6.509-14.126,8.538-21.223c6.315-22.1,6.114-45.701,3.362-66.704c-0.598-4.564-1.593-9.063-2.803-12.894
		c-1.793-5.677-5.911-18.261-8.969-21.86c-5.396-6.354-14.993-6.258-24.992-4.315C435.241,220.532,437.578,234.84,438.619,249.344z"
		/>
	<path fill-rule="evenodd" clip-rule="evenodd" fill="#DC8E55" d="M455.493,229.842c-1.905-6.097-4.151-12.481-7.882-17.73
		c-3.106-4.374-6.145-5.836-11.18-5.415c9.022,16.61,15.784,34.786,17.063,53.756c0.371,0.741,0.675,1.457,0.899,2.125
		c0.343,1.02-0.271,2.507,0,3.923c0.27,1.417,1.074,2.092,1.121,3.363c0.173,4.744-0.77,9.474-2.395,13.969
		c-1.257,15.896-4.127,31.663-6.209,47.491c7.143-20.467,14.514-41.404,14.397-63.186
		C461.241,255.406,459.3,242.027,455.493,229.842z"/>
	<path fill-rule="evenodd" clip-rule="evenodd" fill="#270E11" d="M257.083,223.341c-2.974,0.437-6.555-1.221-9.53-0.56
		c-8.765,1.943-9.078,15.861-6.728,25.224c-6.604-5.041-10.565-20.216-4.483-28.588
		C241.398,212.458,255.046,213.542,257.083,223.341z M253.158,219.978c-9.095-7.166-20.39,2.097-16.255,14.575
		C237.767,225.456,244.054,218.987,253.158,219.978z"/>
	<path fill-rule="evenodd" clip-rule="evenodd" fill="#072232" d="M309.212,275.471c-1.664-3.977-2.871-8.435-5.045-11.771
		c-2.947-4.527,2.127-14.356-1.65-17.681c-2.19-1.932-8.737-7.978-10.121-8.664c-4.63-2.295-20.047-2.072-24.522-0.485
		c-3.348,1.188-7.591,4.104-6.868,15.62c-6.784,22.271,8.418,47.61,21.861,54.933c3.78,2.059,8.109,2.664,12.893,2.803
		c9.033,0.262,16.844-5.737,18.499-14.574C315.819,287.316,312.044,282.234,309.212,275.471z M265.541,280.763
		c-0.018,0.106-0.036,0.208-0.052,0.315c-2.793-6.954-10.049-27.487,3.925-33.073c14.224-5.686,24.324,6.398,27.848,11.066
		c5.137,6.806,10.12,14.409,14.192,27.05C316.769,302.617,293.219,332.578,265.541,280.763z"/>
	<path fill-rule="evenodd" clip-rule="evenodd" fill="#EAC8D8" d="M436.456,251.928c8.868-0.647,11.258,5.185,15.135,9.53
		c4.991,22.064-8.662,36.245-20.18,46.524c-15.784,14.088-38.407,24.337-63.342,31.951c-9.91,3.027-20.038,5.866-30.83,7.287
		c-16.429,2.162-32.185,2.963-48.767,1.121c-8.798-0.977-16.906-1.52-24.664-5.045c-3.299-1.5-7.597-4.688-8.408-6.726
		c-3.838-9.64,3.629-18.005,9.529-21.302c2.558,0.168,4.452,1.699,7.81,3.54c2.338,1.284,5.479,2.867,8.563,3.894
		c3.007,1.002,7.179,1.74,9.926,2.099c7.405,0.961,17.578,2.562,26.393,1.679c7.985-0.799,16.254-2.18,23.543-3.362
		c27.952-4.54,54.209-14.284,71.749-28.589c2.774-2.262,6.265-6.453,9.529-9.529c5.718-5.387,11.675-13.147,12.331-24.104
		C434.996,257.194,433.317,254.515,436.456,251.928z"/>
	<path fill-rule="evenodd" clip-rule="evenodd" fill="#FCE3EE" d="M263.933,327.027c1.9,3.372,5.233,5.582,8.667,7.21
		c7.263,3.442,15.709,5.711,23.752,6.134c26.065,1.373,52.539-3.645,77.39-11.303c32.003-9.863,72.449-28.161,78.452-64.341
		c-0.159-1.072-0.353-2.159-0.603-3.27c-3.877-4.345-6.267-10.178-15.135-9.53c-3.139,2.587-1.46,5.267-1.683,8.969
		c-0.656,10.957-6.613,18.716-12.331,24.104c-3.265,3.076-6.755,7.268-9.529,9.529c-17.54,14.305-43.797,24.049-71.749,28.589
		c-7.289,1.183-15.558,2.563-23.543,3.362c-8.814,0.883-18.987-0.718-26.393-1.679c-2.747-0.358-6.919-1.097-9.926-2.099
		c-3.085-1.026-6.226-2.609-8.563-3.894c-2.244-1.23-3.834-2.312-5.406-2.952C264.598,318.867,261.715,323.094,263.933,327.027z"/>
	<path fill-rule="evenodd" clip-rule="evenodd" fill="#FEF4F8" d="M438.573,252.592c4.521,17.188-8.629,29.192-22.415,38.871
		c-1.146,1.176-2.243,2.249-3.245,3.066c-6.604,5.386-14.443,10.123-23.143,14.181c-13.142,7.507-26.818,12.87-42.045,16.195
		c-17.391,3.798-35.851,6.835-53.694,5.276c-7.91-0.69-17.335-2.466-23.597-7.545c9.251,15.568,72.888,5.957,83.227,4.294
		c21.841-3.513,42.412-13.255,60.803-25.38c10.174-6.708,19.973-14.208,26.826-24.465c2.686-4.02,5.792-8.92,5.871-13.934
		C447.25,257.356,443.454,254.366,438.573,252.592z"/>
	<path fill-rule="evenodd" clip-rule="evenodd" fill="#FEF4F8" d="M273.944,320.932c2.798,1.973,6.199,3.305,9.774,4.201
		C280.33,324.049,277.053,322.685,273.944,320.932z"/>
	<path fill-rule="evenodd" clip-rule="evenodd" fill="#BF6228" d="M258.203,316.391c-4.168,5.35-7.456,10.008-5.045,17.602
		c2.985,9.404,16.632,12.855,25.224,16.592c2.081,6.506,11.158,20.505,6.166,30.83c-1.071,2.218-4.751,4.35-7.287,6.166
		c-6.414,4.598-16.375,9.422-27.465,6.167c-7.428-2.181-14.321-7.623-20.18-12.894c-13.939-12.541-25.87-28.119-34.754-46.525
		c-0.957-1.982-4.897-9.012-5.606-10.65c-1.066-2.464-2.24-6.406-3.362-10.09c-1.716-5.629-4.76-15.357-3.365-22.98
		c1.777-9.708,14.768-20.397,26.347-21.863c3.077-0.39,5.154-0.333,6.726,0c3.875,0.825,12.244,8.257,15.135,11.21
		C240.975,290.416,250.046,304.633,258.203,316.391z M239.705,360.675c-9.375-18.265-21.692-34.611-35.875-47.647
		c-0.976-0.042,0.021,1.246-0.478,1.682c0,0,2.292,0.803,2.159,3.925c0.368,6.173,1.891,11.188,3.926,15.694
		c-3.27,11.311,6.478,24.232,16.254,26.347c4.619,5.846,10.344,10.583,17.938,13.452c0.836,2.153,0.814,5.166,3.363,5.606
		C246.453,372.523,242.742,366.589,239.705,360.675z"/>
	<path fill-rule="evenodd" clip-rule="evenodd" fill="#D37329" d="M243.629,374.127c-7.594-2.869-13.319-7.606-17.938-13.452
		c-1.569-0.339-3.137-0.96-4.65-1.806c2.793,3.83,5.84,7.42,9.45,10.633c3.496,3.113,11.243,10.271,16.502,10.231
		c-0.04-0.321-0.704-4.296-2.472-2.604C244.2,376.152,243.991,375.063,243.629,374.127z"/>
	<path fill-rule="evenodd" clip-rule="evenodd" fill="#D37329" d="M281.449,357.875c-2.051,0.502-4.209,0.926-6.36,1.152
		c-4.151,0.938-8.373,1.535-12.673,1.599c-4.53,0.064-9.483-0.005-11.569-4.778c-1.942-4.444-5.971-11.321-4.843-16.301
		c0.779-3.433,3.579-5.434,6.776-6.914c-1.627-6.805,1.51-11.219,5.423-16.242c-8.157-11.758-17.228-25.975-27.467-36.436
		c-2.891-2.954-11.26-10.386-15.135-11.21c-1.555-0.331-3.612-0.388-6.638-0.01c-0.099,0.108-0.211,0.21-0.348,0.302
		c-5.65,3.771-12.615,7.112-16.296,13.088c-5.25,8.522-4.37,17.519-1.284,26.663c5.586,16.553,12.39,32.899,20.544,48.358
		c7.306,13.848,20.835,30.042,36.555,34.577c13.784,3.977,26.492-5.304,37.466-13.311C287.16,371.69,284.138,363.98,281.449,357.875
		z M247.026,381.322c-5.969,1.281-11.468-2.902-15.786-6.545c-6.064-5.113-11.118-10.644-15.482-17.305
		c-5.618-8.576-11.098-17.063-14.678-26.713c-2.447-6.59-7.102-15.101-2.919-21.367c3.974-5.958,26.185,21.836,33.936,34.377
		c4.025,6.512,7.448,13.398,11.083,20.135c2.712,5.029,4.818,9.959,5.134,15.729C248.352,380.373,247.753,381.166,247.026,381.322z"
		/>
	<path fill-rule="evenodd" clip-rule="evenodd" fill="#E6AB7F" d="M254.912,359.776c3,7.214,5.207,14.741,6.253,22.708
		c1.931-3.446,3.859-6.967,4.536-10.752c0.684-3.816,0.182-7.568-0.861-11.215c-0.807,0.047-1.612,0.096-2.424,0.108
		C259.85,360.663,257.15,360.654,254.912,359.776z"/>
	<path fill-rule="evenodd" clip-rule="evenodd" fill="#DC8E55" d="M228.161,289.869c-3.177-4.564-6.109-9.246-12.372-9.034
		c-3.955,0.133-8.686,0.794-11.16,4.065c12.386,19.227,29.063,37.311,41.218,57.293c-0.066-0.921-0.033-1.811,0.157-2.646
		c0.761-3.35,3.45-5.332,6.553-6.803c-2.098-4.197-4.243-8.369-6.465-12.481C240.535,309.98,234.845,299.471,228.161,289.869z"/>
	<path fill-rule="evenodd" clip-rule="evenodd" fill="#5E1852" d="M399.46,273.229c0.651-0.091,0.997,0.123,1.121,0.561
		c-0.46,9.483-7.758,21.413-14.014,26.905c-12.796,11.238-31.115,7.793-44.282-0.561c-2.324,1.787-2.673,5.549-5.606,6.728
		c-2.273-0.696,0.671-3.06,1.121-3.925c1.504-2.888,3.165-5.65,4.485-8.969c0.563-1.416,2.241-4.484,2.241-4.484
		s-0.069,3.289,0,5.607C367.72,304.733,394.586,292.331,399.46,273.229z M357.42,301.256c-2.508-0.137-4.691-2.023-7.287-0.561
		c14.06,9.465,37.313,2.557,42.04-10.649c0.123-0.705,0.872-1.146-0.561-1.122C384.797,296.4,371.254,302.018,357.42,301.256z"/>
	<path fill-rule="evenodd" clip-rule="evenodd" fill="#E6D0E3" d="M391.612,288.924c1.433-0.023,0.684,0.417,0.561,1.122
		c-4.728,13.206-27.98,20.114-42.04,10.649c2.596-1.463,4.779,0.424,7.287,0.561C371.254,302.018,384.797,296.4,391.612,288.924z"/>
	<path fill-rule="evenodd" clip-rule="evenodd" fill="#BDAAB3" d="M208.314,320.315c0.429,0.464,0.853,0.935,1.279,1.401
		c-1.171-1.664-2.254-3.379-3.332-5.105c-0.226,0.051-0.461,0.069-0.704,0.043c-0.075,0.285-0.18,0.559-0.283,0.835
		c0.154,0.306,0.257,0.663,0.236,1.145c0.368,6.173,1.891,11.188,3.926,15.694c-0.138,0.477-0.236,0.957-0.328,1.438
		c0.085-0.072,0.169-0.145,0.257-0.213c0.154-0.156,0.331-0.283,0.53-0.369c0.724-0.461,1.499-0.737,2.297-0.524l0.021,0.009
		c0.038-0.441,0.289-0.823,0.64-1.097c-0.577-0.497-1.155-0.992-1.737-1.484C209.671,328.675,208.111,325.376,208.314,320.315z"/>
	<path fill-rule="evenodd" clip-rule="evenodd" fill="#BDAAB3" d="M237.146,355.912c-3.273-5.916-6.854-11.609-10.705-17.033
		c0.238,0.643,0.427,1.311,0.585,1.996C230.458,345.79,233.763,350.808,237.146,355.912z"/>
	<path fill-rule="evenodd" clip-rule="evenodd" fill="#BDAAB3" d="M244.032,375.406c0.245,0.005,0.49,0.017,0.734,0.031
		c-0.071-3.381-2.382-6.195-4.95-9.619c0.735,1.624,1.454,3.266,2.132,4.944c-5.163-2.872-9.954-6.114-13.454-10.649
		c-0.099-1.075-0.25-2.098-0.425-3.095c-0.332,0.755-0.95,1.423-1.969,1.95c-0.97,0.502-1.878,0.821-2.73,0.994
		c0.769,0.299,1.544,0.543,2.321,0.712c4.619,5.846,10.344,10.583,17.938,13.452C243.785,374.531,243.912,374.967,244.032,375.406z"
		/>
	<path fill-rule="evenodd" clip-rule="evenodd" fill="#046298" d="M211.334,332.271c-0.776,0.48-1.457,1.063-1.998,1.822
		c0.035,0.077,0.065,0.158,0.1,0.234c-3.27,11.311,6.478,24.232,16.254,26.347c0.052,0.066,0.11,0.13,0.162,0.196
		c0.542-0.049,1.091-0.058,1.626-0.092c0.352-0.023,0.289,0.002,0.499-0.044c0.015-0.003,0.125-0.041,0.217-0.067
		c0.04-0.285,0.141-0.525,0.278-0.729C227.163,346.313,219.417,339.125,211.334,332.271z M212.238,336.571
		c7.113,4.659,11.395,12.147,14.014,21.3C213.57,357.871,207.718,342.193,212.238,336.571z"/>
	<path fill-rule="evenodd" clip-rule="evenodd" fill="#9E5725" d="M239.705,360.675c-9.375-18.265-21.692-34.611-35.875-47.647
		c-0.976-0.042-1.743,0.125-2.242,0.561c-2.323,1.121-2.472-3.252,6.726,6.728c9.197,9.979,25.505,30.417,33.574,50.306l0.035,0.08
		c0.365,1.031,2.662,8.616,5.068,9.032C246.453,372.523,242.742,366.589,239.705,360.675z"/>
	<path fill-rule="evenodd" clip-rule="evenodd" fill="#EAC8D8" d="M208.314,320.315c13.458,14.568,25.565,30.49,33.634,50.447
		c-5.163-2.872-9.954-6.114-13.454-10.649c-1.271-13.865-9.181-21.087-17.377-28.026
		C209.671,328.675,208.111,325.376,208.314,320.315z"/>
	<path fill-rule="evenodd" clip-rule="evenodd" fill="#FCE3EE" d="M240.99,368.528c-0.926-2.158-1.889-4.28-2.907-6.346
		c-2.14,0.759-4.288,0.894-6.361,0.449C233.723,365.649,237.342,367.501,240.99,368.528z"/>
	<path fill-rule="evenodd" clip-rule="evenodd" fill="#FCE3EE" d="M228.847,357.53c1.914,0.099,2.663-3.072,1.333-5.304
		c-0.554-0.999-1.168-1.961-1.844-2.882c-2.172-2.902-4.384-5.798-6.651-8.626c-2.283-2.846-4.579-5.676-6.825-8.545
		c-0.096,1.012-0.151,2.029-0.12,3.059c6.128,5.51,11.511,11.764,13.293,21.622C228.3,357.098,228.572,357.322,228.847,357.53z"/>
	<path fill-rule="evenodd" clip-rule="evenodd" fill="#0D7CA3" d="M212.238,336.571c3.324,2.178,6.028,4.972,8.235,8.265
		c2.516,3.756,6.977,9.277,5.778,13.035c-1.199,3.76-9.885-2.996-12.489-6.945C211.465,347.443,207.718,338.08,212.238,336.571z"/>
	<path fill-rule="evenodd" clip-rule="evenodd" fill="#1683C6" d="M216.755,342.922l-0.045-0.04
		c-2.232-1.889-4.854-3.731-6.539-2.051c0.168,3.419,2.146,7.905,3.592,10.095c1.357,2.058,4.363,4.867,7.103,6.563
		c0.868,0.308,1.732,0.409,2.463,0.11c2.832-1.15-1.489-7.697-2.417-9.086C219.618,346.578,218.197,344.742,216.755,342.922z"/>
	<path fill-rule="evenodd" clip-rule="evenodd" fill="#67B5DF" d="M218.346,346.593c-2.69-2.114-4.05-3.312-6.207-4.722
		c0.992,3.451,3.845,6.389,5.758,9.314c1.392,2.129,2.679,4.305,3.884,6.532c0.242,0.039,0.479,0.054,0.71,0.047
		C221.95,354.195,220.45,350.14,218.346,346.593z"/>
	<path fill-rule="evenodd" clip-rule="evenodd" fill="#096894" d="M428.608,239.597c5.945,13.539,5.458,27.646-3.363,39.239
		c-12.013,15.784-32.227,28.79-56.054,34.192c-8.21,1.861-16.063,5.513-24.104,7.288c-12.711,2.805-26.397,4.554-39.237,4.483
		c-7.188-0.039-15.53-0.776-21.302-2.242c-6.965-1.77-12.94-6.329-17.376-10.65c-3.465,0.086-4.59,2.513-7.848,2.803
		c-1.293-5.369-5.535-9.795-8.969-14.574c-6.342-8.825-12.567-16.722-21.3-24.664c-6.251-5.685-12.083-11.222-21.301-9.529
		c-2.761-13.99-0.523-39.894,5.043-53.813c4.456-11.132,10.88-22.719,17.73-32.239c10.987-15.27,40.236-27.049,44.282-29.148
		c10.359-5.373,24.991-9.808,39.448-10.923c26.244-2.021,47.153,9.919,65.022,21.862c-5.975,3.28-8.932,18.039-2.804,23.542
		c2.398-4.819,2.511-14.121,8.408-15.136c2.627-0.451,7.375,4.79,11.212,8.97c3.367,3.667,7.982,7.815,10.09,11.21
		c1.28,2.062,9.398,13.216,10.33,14.627c-7.856-3.818-15.949,3.834-17.057,12.279c-1.69,12.883,2.276,31.088,8.408,39.799
		c2.857,4.061,8.353,7.5,12.892,6.727C429.044,262.288,428.522,250.425,428.608,239.597z M236.342,219.417
		c-6.082,8.372-2.121,23.547,4.483,28.588c-2.35-9.363-2.038-23.28,6.728-25.224c2.976-0.662,6.557,0.996,9.53,0.56
		C255.046,213.542,241.398,212.458,236.342,219.417z M282.866,307.422c3.78,2.059,8.109,2.664,12.893,2.803
		c9.033,0.262,14.471-4.51,16.685-13.223c3.113-12.252-6.643-28.926-8.759-32.299c-10.466-16.698-34.839-38.791-42.68-12.214
		C254.417,274.82,269.423,300.1,282.866,307.422z M344.526,295.092c-0.069-2.318,0-5.607,0-5.607s-1.678,3.068-2.241,4.484
		c-1.32,3.318-2.981,6.081-4.485,8.969c-0.45,0.865-3.395,3.229-1.121,3.925c2.934-1.179,3.282-4.94,5.606-6.728
		c13.167,8.354,31.486,11.799,44.282,0.561c6.256-5.492,13.554-17.422,14.014-26.905c-0.124-0.438-0.47-0.652-1.121-0.561
		C394.586,292.331,367.72,304.733,344.526,295.092z"/>
	<path fill-rule="evenodd" clip-rule="evenodd" fill="#1683C6" d="M428.608,239.597c-0.086,10.829,0.436,22.691-7.849,24.103
		c-4.539,0.774-10.034-2.666-12.892-6.727c-6.132-8.71-10.099-26.916-8.408-39.799c1.107-8.444,9.2-16.097,17.057-12.279
		c-0.932-1.411-9.05-12.565-10.33-14.627c-2.107-3.395-6.723-7.543-10.09-11.21c-3.837-4.18-8.585-9.421-11.212-8.97
		c-5.897,1.015-6.01,10.317-8.408,15.136c-6.128-5.503-3.171-20.263,2.804-23.542c-17.869-11.943-38.778-23.883-65.022-21.862
		c-14.457,1.115-29.089,5.55-39.448,10.923c-1.271,0.66-5.028,2.275-9.924,4.651c-15.731,13.494-30.25,29.271-38.564,48.25
		c-5.283,12.055-8.67,26.065-6.155,39.222c2.161,11.294,7.087,21.868,13.572,31.325c13.121,19.134,33.456,39.088,56.286,45.858
		c21.172,6.279,43.137,2.149,64.415-2.45c3.653-1.227,7.312-2.547,11.028-3.609c-1.69,0.18-3.391,0.224-5.101,0.004
		c-5.268-0.678-10.038-2.541-14.912-4.587c-2.051-0.859-6.744-5.198-4.662-4.323c4.389,1.842,16.028,7.187,34.092,3.289
		c8.552-1.846,23.693-12.471,28.647-20.498c1.185-1.918-1.968,8.678-3.159,10.605c-0.902,1.464-1.92,2.723-3.018,3.844
		c11.413-6.313,21.004-14.438,27.89-23.487C434.066,267.243,434.554,253.136,428.608,239.597z M247.553,222.781
		c-8.765,1.943-9.078,15.861-6.728,25.224c-6.604-5.041-10.565-20.216-4.483-28.588c5.057-6.959,18.704-5.875,20.741,3.924
		C254.109,223.777,250.528,222.12,247.553,222.781z M253.275,252.635c-0.619-8.397,1.474-18.894,11.678-19.269
		c2.262-0.083,10.035,2.496,7.791,2.288c-11.947-1.102-18.265,18.61-17.809,24.79C255.103,262.698,253.44,254.874,253.275,252.635z
		 M312.443,297.002c-2.214,8.713-7.651,13.484-16.685,13.223c-4.783-0.139-9.112-0.744-12.893-2.803
		c-13.443-7.322-28.449-32.602-21.861-54.933c7.841-26.577,32.214-4.484,42.68,12.214
		C305.801,268.076,315.557,284.75,312.443,297.002z M408.204,199.158c-10.587-2.335-17.758,15.111-14.551,25.295
		c0.681,2.162-2.869-6.024-2.869-12.598C390.784,188.266,410.409,199.646,408.204,199.158z M386.567,300.695
		c-12.796,11.238-31.115,7.793-44.282-0.561c-2.324,1.787-2.673,5.549-5.606,6.728c-2.273-0.696,0.671-3.06,1.121-3.925
		c1.504-2.888,3.165-5.65,4.485-8.969c0.563-1.416,2.241-4.484,2.241-4.484s-0.069,3.289,0,5.607
		c23.193,9.642,50.06-2.761,54.934-21.863c0.651-0.091,0.997,0.123,1.121,0.561C400.121,283.273,392.823,295.203,386.567,300.695z"
		/>
	<path fill-rule="evenodd" clip-rule="evenodd" fill="#67B5DF" d="M404.242,197.315c-4.565-7.68-10.379-14.713-17.684-20.796
		c-1.71-1.424-3.466-2.804-5.253-4.152c-2.527,3.305-3.058,9.299-4.829,12.857c-4.172-3.747-4.131-11.78-1.796-17.564
		c-19.105-12.839-41.638-21.785-64.363-27.447c-13.141,1.543-26.089,5.644-35.508,10.529c-0.671,0.349-2.051,0.97-3.911,1.823
		c9.602,0.629,19.156,2.05,28.426,3.923c21.921,4.427,44.614,11.418,63.397,23.91c11.86,7.89,21.041,17.83,28.142,29.074
		C391.69,196.506,399.33,196.049,404.242,197.315z"/>
	<path fill-rule="evenodd" clip-rule="evenodd" fill="#67B5DF" d="M406.084,201.919c-3.338-1.108-6.838,3.219-7.997,5.935
		c-1.256,2.941-1.076,6.287-0.534,9.479c0.462-6.11,2.795-11.961,8.404-15.112c0.25-0.142,0.493-0.196,0.728-0.215
		C406.497,202.012,406.298,201.991,406.084,201.919z"/>
	<path fill-rule="evenodd" clip-rule="evenodd" fill="#67B5DF" d="M377.035,293.133c4.36-1.522,9.539-3.271,12.53-7.045
		c2.118-2.67,3.384-5.777,4.396-8.982c-4.276,4.96-10.821,8.705-16.305,10.953c-7.227,2.963-14.888,4.376-22.62,4.305
		C361.862,295.523,369.275,295.842,377.035,293.133z"/>
	<path fill-rule="evenodd" clip-rule="evenodd" fill="#67B5DF" d="M257.563,261.065c0.459-4.781,1.589-9.69,3.576-14.637
		c2.28-5.673,7.515-8.578,13.686-7.563c-4.401-2.281-11.793,0.776-13.85,4.68c-2.333,4.431-5.433,11.569-6.165,20.683
		C255.789,263.219,256.713,262.168,257.563,261.065z"/>
	<path fill-rule="evenodd" clip-rule="evenodd" fill="#67B5DF" d="M279.188,309.467c-10.33-6.436-21.676-23.178-21.867-42.932
		c-0.85,0.877-1.746,1.713-2.663,2.531c0.152,8.715,2.62,18.905,9.648,30.069c6.312,10.023,19.804,17.701,31.834,19.521
		c6.682,1.013,13.341-0.072,20.022-0.411C304.293,317.535,289.296,315.764,279.188,309.467z"/>
	<path fill-rule="evenodd" clip-rule="evenodd" fill="#67B5DF" d="M414.349,287.35c0.257-1.121,0.591-2.215,0.958-3.295
		c-0.202-1.953,0.295-4.069,1.141-6.182c0.66-4.687,1.149-9.434,1.433-14.203c-3.115-0.523-6.319-2.521-8.627-5.003
		c2.094,10.806,3.318,21.843,3.968,32.741c0.352-0.3,0.679-0.613,1.024-0.915c0.122-0.587,0.224-1.183,0.34-1.772
		C414.337,288.36,414.223,287.894,414.349,287.35z"/>
	<path fill-rule="evenodd" clip-rule="evenodd" fill="#67B5DF" d="M429.616,256.943c-1.034,9.59-6.768,17.209-10.156,25.868
		c4.825-5.276,9.979-11.421,10.299-18.79C429.862,261.644,429.734,259.295,429.616,256.943z"/>
	<path fill-rule="evenodd" clip-rule="evenodd" fill="#1683C6" d="M248.054,296.973c0.769,1.042,1.534,2.095,2.302,3.162
		c3.434,4.779,7.676,9.205,8.969,14.574c3.007-0.268,4.219-2.331,7.106-2.721C259.879,307.614,253.705,302.539,248.054,296.973z"/>
	<path fill-rule="evenodd" clip-rule="evenodd" fill="#1683C6" d="M285.518,322.184c-5.587-2.252-11.025-5.068-16.249-8.338
		c4.155,3.679,9.354,7.205,15.279,8.711c1.388,0.352,2.928,0.659,4.56,0.929C287.903,323.085,286.705,322.66,285.518,322.184z"/>
	<path fill-rule="evenodd" clip-rule="evenodd" fill="#321315" d="M236.732,238.524c-3.402-8.369,0.011-15.762,2.865-19.171
		c4.994-5.964,14.824-1.792,16.014,3.268c-1.017-4.317-9.762-1.068-12.554,1.403C240.085,226.654,237.177,233.834,236.732,238.524z"
		/>
	<path fill-rule="evenodd" clip-rule="evenodd" fill="#9E5725" d="M466.725,236.233c-4.147-17.436-7.219-33.193-25.224-33.633
		c-9.414-0.228-16.906,2.609-20.741,7.848c-0.454-0.87-0.913-1.735-1.377-2.595c-0.115,0.628-0.235,1.294-0.296,2.071
		c2.243,3.616,3.908,7.675,5.174,11.147c0.052,0.141,0.096,0.282,0.146,0.423h0.34v0.985c1.932,5.69,3.134,11.665,3.858,17.706
		c0-0.196,0.002-0.394,0.003-0.589c2.345,5.341,3.671,10.769,3.898,16.097c1.299-2.043,2.779-3.939,4.053-5.968
		c-0.784,0.243-1.567,0.595-2.346,1.083c-0.096-10.168-0.948-23.965-4.484-32.513c-1.209,3.774-0.512,7.216-0.561,11.212
		c-1.456-2.047-1.542-5.152-2.802-8.408c-2.445-6.313-5.595-9.509,1.68-14.014c10.675-2.298,21.168-2.834,26.906,3.924
		c3.058,3.599,7.176,16.183,8.969,21.86c1.21,3.831,2.205,8.33,2.803,12.894c2.752,21.003,2.953,44.604-3.362,66.704
		c-2.686,9.393-6.813,21.099-12.333,25.784c-5.74,4.876-25.009,7.007-30.27,1.123c-3.39-3.793-2.659-10.018-3.923-16.817
		l0.068-0.033c-0.077-0.25-0.139-0.502-0.186-0.759c-0.735,0.392-1.445,0.804-2.108,1.28c-0.06,0.6-0.109,1.199-0.138,1.801
		l0.121-0.047c-0.283,6.563,3.411,13.695,6.727,18.498c9.733,4.949,24.708,2.588,31.39-3.363
		c7.032-7.539,9.419-16.758,13.454-29.148c2.508-7.702,4.916-15.838,5.605-24.104C473.42,266.863,470.193,250.813,466.725,236.233z"
		/>
	<path fill-rule="evenodd" clip-rule="evenodd" fill="#046298" d="M427.412,227.676c-0.607-0.625-1.163-1.267-1.302-1.754
		c0.77,5.542,1.711,9.994,2.487,15.363c1.453,4.152,4.582,16.136,4.758,20.255c0.274-0.434-0.288-6.704,0-7.125
		C431.947,245.369,430.195,236.402,427.412,227.676z"/>
	<path fill-rule="evenodd" clip-rule="evenodd" fill="#095D7D" d="M422.578,216.786c-0.561-2.302-1.227-4.557-2.035-6.747
		c-7.771-14.815-16.817-28.355-28.931-38.828c1.283-0.933,2.091-1.469,1.12-3.364c-2.6-4.017-7.104-4.792-11.21-7.288
		c-1.777-1.079-3.273-2.731-5.046-3.923c-11.081-7.455-25.946-16.331-42.6-19.059c-21.108-3.455-38.487,2.817-53.813,8.969
		c-11.099,4.457-32.8,15.063-48.768,30.83c-11.451,10.888-15.761,20.782-21.3,33.633c-8.065,18.712-6.721,44.602-4.486,55.493
		c-1.108,0.492-2.239,0.981-3.376,1.48c2.132,0.575,4.444,0.282,6.799-0.235c0.03-0.203,0.09-0.411,0.205-0.622
		c0.311-0.567,0.633-1.046,0.965-1.454c-0.761,0.041-1.539,0.121-2.35,0.27c-2.761-13.99-0.523-39.894,5.043-53.813
		c4.456-11.132,11.572-24.265,19.545-32.867c11.886-12.826,38.42-26.421,42.466-28.521c10.359-5.373,24.991-9.808,39.448-10.923
		c26.244-2.021,47.153,9.919,65.022,21.862c-5.975,3.28-8.932,18.039-2.804,23.542c2.398-4.819,2.511-14.121,8.408-15.136
		c2.627-0.451,7.375,4.79,11.212,8.97c3.367,3.667,7.982,7.815,10.09,11.21c1.28,2.062,6.917,11.482,7.847,12.893
		c-0.568-0.277-1.127-0.483-1.671-0.626C417.072,205.679,420.297,211.418,422.578,216.786z M376.477,176.815
		c-3.734-6.336,4.979-17.523,11.212-10.649C381.748,167.513,378.238,171.289,376.477,176.815z"/>
	<path fill-rule="evenodd" clip-rule="evenodd" fill="#270E11" d="M392.732,167.847c-2.348-3.628-6.249-4.621-10.008-6.618
		c-1.278,0.096-1.202-0.669-3.745,0.639c-5.77,3.602-8.526,17.947-2.503,23.356c2.398-4.819,2.511-14.121,8.408-15.136
		c0.229-0.038,0.479-0.021,0.738,0.021c2.065-0.016,4.016,0.674,6.014,1.124l-0.024-0.022
		C392.896,170.278,393.703,169.742,392.732,167.847z M376.477,176.815c-3.734-6.336,4.979-17.523,11.212-10.649
		C381.748,167.513,378.238,171.289,376.477,176.815z"/>
	<path fill-rule="evenodd" clip-rule="evenodd" fill="#072232" d="M427.176,226.667c-1.23-4.912-2.948-10.454-5.56-14.827
		c-2.048-3.429-3.502-6.313-7.654-8.791l0.071,0.112c-8.944-3.223-13.466,5.569-14.573,14.013
		c-1.69,12.883,2.276,31.088,8.408,39.799c2.857,4.061,8.401,7.744,12.892,6.727C430.302,261.54,431.587,244.271,427.176,226.667z
		 M400.581,229.863c-0.605-11.438,1.355-21.176,7.914-23.356c8.318-1.998,16.009,13.576,18.512,34.134
		c0.58,4.766,0.854,12.364-2.235,16.951C414.624,274.232,401.187,241.301,400.581,229.863z"/>
	<path fill-rule="evenodd" clip-rule="evenodd" fill="#9E5725" d="M286.437,351.633c-0.373-0.885-0.727-1.773-1.092-2.659
		c-3.037-0.27-6.057-0.725-9.103-0.9v1.677c0.741,0.264,1.461,0.539,2.14,0.834c2.081,6.506,11.158,20.505,6.166,30.83
		c-1.071,2.218-4.751,4.35-7.287,6.166c-6.414,4.598-16.375,9.422-27.465,6.167c-7.428-2.181-14.321-7.623-20.18-12.894
		c-13.939-12.541-25.87-28.119-34.754-46.525c-0.957-1.982-4.897-9.012-5.606-10.65c-1.066-2.464-2.24-6.406-3.362-10.09
		c-1.716-5.629-4.76-15.357-3.365-22.98c1.777-9.708,14.768-20.397,26.347-21.863c3.077-0.39,5.154-0.333,6.726,0
		c3.875,0.825,12.244,8.257,15.135,11.21c10.239,10.461,19.31,24.678,27.467,36.436c-0.457,0.588-0.906,1.205-1.348,1.836h1.558
		c1.132-1.236,2.108-2.549,2.935-4.031c-0.597,0.248-1.247,0.445-2.023,0.514c-1.293-5.369-5.535-9.795-8.969-14.574
		c-6.342-8.825-12.567-16.722-21.3-24.664c-5.638-5.127-10.944-10.116-18.689-9.807c-0.125,0.059-0.262,0.111-0.418,0.142
		c-1.466,0.313-2.952,0.508-4.44,0.678l0.003,0.018c-6.676,2.961-14.169,5.811-19.057,11.772c-2.884,3.517-5.514,7.103-6.167,12.892
		l-0.1-0.029c0.216,7.346,1.372,14.501,3.368,21.491c0.212,0.514,0.423,1.029,0.657,1.521c-0.068-0.002-0.139-0.01-0.208-0.015
		c0.47,1.546,0.979,3.081,1.528,4.61c0.119-0.032,0.238-0.066,0.362-0.11c1.993,5.999,4.419,12.8,7.847,19.617
		c4.997,9.94,11.345,18.485,17.376,26.347c8.604,11.215,19.213,21.598,30.831,28.588c4.68,2.817,10.028,5.447,16.815,5.046
		c9.097-0.538,23.317-7.105,27.467-14.575c5.908-10.638-3.302-24.879-4.485-33.072C283.314,350.983,284.877,351.322,286.437,351.633
		z"/>
	<path fill-rule="evenodd" clip-rule="evenodd" fill="#9E5725" d="M426.927,327.041c0.01,1.629,3.168,1.325,3.924,0.562
		c2.606-3.935,1.055-12.024,2.241-17.378c0.192-0.124,0.392-0.268,0.586-0.401c-0.073-0.215-0.123-0.426-0.17-0.636
		c-1.237,1.422-2.327,2.978-3.254,4.714C429.646,318.934,430.396,326.556,426.927,327.041z"/>
	<path fill-rule="evenodd" clip-rule="evenodd" fill="#BDAAB3" d="M416.841,322.576c0,0,42.405-25.574,38.674-52.71
		c-0.174-1.26-0.778-6.267-1.121-7.286c-2.09-6.211-10.911-16.625-19.43-12.197c-2.405,1.495-1.852,5.034-2.418,6.406
		c0.107,7.793-2.198,15.341-7.301,22.046c-12.013,15.784-32.227,28.79-56.054,34.192c-8.21,1.861-16.063,5.513-24.104,7.288
		c-12.711,2.805-26.397,4.554-39.237,4.483c-7.188-0.039-15.53-0.776-21.302-2.242c-6.965-1.77-12.94-6.329-17.376-10.65
		c-3.278,0.082-8.386,3.913-9.02,4.41l0.051,0.074c-6.971,3.925-8.017,12.586-5.606,20.181c2.919,9.192,27.862,13.979,29.179,14.193
		c-0.008-0.06-0.022-0.122-0.03-0.181c18.309,4.666,35.911,3.03,53.253,0.562c6.943-0.99,13.77-2.819,20.18-4.483
		c8.377-2.178,16.386-4.436,24.103-6.729C400.581,333.604,416.562,322.65,416.841,322.576z M368.069,339.934
		c-9.91,3.027-20.038,5.866-30.83,7.287c-16.429,2.162-32.185,2.963-48.767,1.121c-8.798-0.977-16.906-1.52-24.664-5.045
		c-3.299-1.5-7.597-4.688-8.408-6.726c-3.838-9.64,3.629-18.005,9.529-21.302c14.232,13.272,43.877,12.094,52.691,11.211
		c7.985-0.799,16.254-2.18,23.543-3.362c27.952-4.54,54.209-14.284,71.749-28.589c2.774-2.262,6.265-6.453,9.529-9.529
		c5.718-5.387,11.675-13.147,12.331-24.104c0.223-3.702-1.456-6.382,1.683-8.969c8.868-0.647,11.258,5.185,15.135,9.53
		c4.991,22.064-8.662,36.245-20.18,46.524C415.627,322.07,393.004,332.319,368.069,339.934z"/>
	<path fill-rule="evenodd" clip-rule="evenodd" fill="#095D7D" d="M205.458,213.347c3.487-1.506,3.319-6.286,7.288-6.167
		c7.374,0.221,5.117,18.881,1.682,23.542c-2.05,1.501-4.777-0.195-6.728-0.561c-1.412,8.759-5.228,16.568-15.134,16.256
		c-4.826-0.152-10.55-3.956-12.893-8.969c-5.611-12.006-0.962-32.64,9.529-34.753C196.181,201.291,203.847,206.966,205.458,213.347z
		 M195.369,243.616c14.189-1.906,13.285-41.766-5.045-38.117C174.917,208.566,176.361,246.167,195.369,243.616z M208.822,227.92
		c1.342,0.34,2.557,0.806,4.484,0.561c1.246-4.739,2.771-13.239,0.561-17.936C207.899,209.352,204.837,222.656,208.822,227.92z"/>
	<path fill-rule="evenodd" clip-rule="evenodd" fill="#096894" d="M190.324,205.499c18.331-3.649,19.235,36.21,5.045,38.117
		C176.361,246.167,174.917,208.566,190.324,205.499z"/>
	<path fill-rule="evenodd" clip-rule="evenodd" fill="#1683C6" d="M192.144,205.284c-7.199,0.68-14.869,20.083-5.402,31.732
		c2.21,2.72,10.253-1.362,11.712,5.444C208.89,235.882,207.333,204.611,192.144,205.284z"/>
	<path fill-rule="evenodd" clip-rule="evenodd" fill="#67B5DF" d="M190.613,211.274c-0.834,2.176-1.545,4.434-1.455,6.54
		c0.188,4.341,1.913,4.986,3.931,8.247c0.854,1.379,1.646,2.768,2.379,4.174C194.497,223.882,191.41,217.76,190.613,211.274z"/>
	<path fill-rule="evenodd" clip-rule="evenodd" fill="#67B5DF" d="M200.578,235.593c2.127-4.7,1.988-10.078,0.941-15.736
		c-0.584-3.155-2.912-16.548-8.033-12.37C199.41,215.164,201.784,225.821,200.578,235.593z"/>
	<path fill-rule="evenodd" clip-rule="evenodd" fill="#096894" d="M213.867,210.544c2.21,4.697,0.685,13.197-0.561,17.936
		c-1.927,0.245-3.142-0.221-4.484-0.561C204.837,222.656,207.899,209.352,213.867,210.544z"/>
	<path fill-rule="evenodd" clip-rule="evenodd" fill="#1683C6" d="M211.634,213.704c-1.029,2.998-1.774,6.155-1.497,9.309
		c0.023,0.252,0.668,6.34,2.584,4.25c0.552-0.602,0.997-1.236,1.312-1.916c0.167-0.826,0.324-1.698,0.461-2.593
		c-0.007-0.083-0.005-0.162-0.016-0.247C214.093,219.412,212.582,216.629,211.634,213.704z"/>
	<path fill-rule="evenodd" clip-rule="evenodd" fill="#67B5DF" d="M212.452,225.866c0.469-2.488-0.049-5.165-0.773-7.754
		C211.539,220.808,211.478,223.383,212.452,225.866z"/>
	<path fill-rule="evenodd" clip-rule="evenodd" fill="#EDC8AB" d="M442.474,193.002c2.056,0,4.11,0,6.165,0
		c1.794,5.238,2.256,14.968,1.683,22.423c-0.16,2.078-0.049,5.066-1.683,6.165c-0.354-11.042,1.27-24.065-6.165-28.027
		C442.474,193.376,442.474,193.189,442.474,193.002z"/>
	<path fill-rule="evenodd" clip-rule="evenodd" fill="#EDC8AB" d="M460.41,193.002c1.121,0,2.242,0,3.363,0
		c3.125,7.696,1.53,21.486,0.561,30.269c-2.483-8.726,2.73-25.151-3.924-29.708C460.41,193.376,460.41,193.189,460.41,193.002z"/>
	<path fill-rule="evenodd" clip-rule="evenodd" fill="#EDC8AB" d="M470.501,201.972c0.651-0.091,0.997,0.125,1.121,0.56
		c0.621,4.444,0.621,8.451,0,12.894C470.719,211.47,470.839,206.491,470.501,201.972z"/>
	<path fill-rule="evenodd" clip-rule="evenodd" fill="#EDC8AB" d="M468.818,214.864c1.699-0.019,0.544,2.82,2.243,2.803
		c0.231,9.404-0.972,18.594-2.243,27.466c-0.318,2.228,0.43,6.281-2.241,7.287C467.541,240.574,467.651,227.141,468.818,214.864z"/>
	<path fill-rule="evenodd" clip-rule="evenodd" fill="#EDC8AB" d="M476.666,227.755c4.576,17.189-0.576,37.734-5.604,53.252
		c0.152-12.543,4.599-27.363,5.044-41.481C476.24,235.305,475.019,230.832,476.666,227.755z"/>
	<path fill-rule="evenodd" clip-rule="evenodd" fill="#EDC8AB" d="M465.456,262.51c0.65-0.091,0.997,0.124,1.121,0.56
		c-4.187,25.336-10.734,48.311-19.059,69.508c1.458-10.707,6.031-20.864,9.528-32.512c1.647-5.486,2.729-11.711,3.925-17.376
		C462.445,275.693,462.989,268.129,465.456,262.51z"/>
	<path fill-rule="evenodd" clip-rule="evenodd" fill="#EDC8AB" d="M442.474,332.578c-2.812,1.21-2.358,4.977-3.363,7.285
		c-1.797,4.132-4.482,7.01-8.969,8.971c-3.415-0.638-6.728-5.648-3.924-8.971c1.591,0.83-0.027,5.293,2.802,6.168
		c5.334-0.537,5.753-7.034,7.288-11.771c3.09-9.538,5.13-18.201,7.287-26.906c-0.125-1.051-1.446-3.715,0-4.484
		c2.753,1.913,1.896,6.62,1.681,10.09c-0.389,6.272-1.818,13.322-2.802,19.059c2.798-4.566,3.089-10.091,5.045-16.255
		c2.71-8.544,5.801-19.608,7.287-31.392c0.332-2.635-0.208-6.312,2.241-8.407c-0.254,18.432-5.499,33.738-10.089,48.767
		c-1.485,4.865-1.819,10.392-5.604,14.014c-0.653,0.092-0.999-0.124-1.122-0.561C440.512,335.85,442.192,334.912,442.474,332.578z"
		/>
	<path fill-rule="evenodd" clip-rule="evenodd" fill="#EDC8AB" d="M437.988,301.188c0.652-0.091,0.998,0.123,1.122,0.562
		c0.1,11.311-3.155,19.267-5.045,28.587C432.943,320.43,437.517,311.367,437.988,301.188z"/>
	<path fill-rule="evenodd" clip-rule="evenodd" fill="#EDC8AB" d="M453.124,193.563c3.657,0.528,4.149,6.251,4.485,10.09
		c0.717,8.227-0.121,18.814-1.122,24.102c0.07,1.388-0.687,0.953-0.562,0C455.837,217.754,456.869,201.777,453.124,193.563z"/>
	<path fill-rule="evenodd" clip-rule="evenodd" fill="#EDC8AB" d="M211.929,266.305c0.904-0.157,0.965,0.529,1.682,0.561
		c8.643,13.404,16.93,27.165,23.542,42.601c-6.292-9.898-12.069-20.635-18.498-30.83
		C216.098,274.578,213.645,271.044,211.929,266.305z"/>
	<path fill-rule="evenodd" clip-rule="evenodd" fill="#EDC8AB" d="M232.109,312.269c-3-0.188-3.957-5.194-5.606-8.407
		c-3.108-6.068-6.687-12.588-10.649-18.498c-3.762-5.607-6.679-11.254-11.772-15.695c0-0.561,0-1.122,0-1.683
		c2.888-0.075,5.628,2.574,7.286,4.484C219.955,282.366,225.306,299.873,232.109,312.269z"/>
	<path fill-rule="evenodd" clip-rule="evenodd" fill="#EDC8AB" d="M221.458,307.225c-5.8-7.518-10.581-16.431-16.255-24.104
		c-2.021-2.735-4.696-5.834-8.407-6.726c-2.728,0.361,1.241,2.545-0.561,3.362c-2.351-0.078-2.29-2.568-2.242-5.044
		c3.351-2.815,7.379-0.9,10.09,1.683c3.173,3.024,6.439,9.007,9.529,14.574C216.784,296.686,220.306,302.729,221.458,307.225z"/>
	<path fill-rule="evenodd" clip-rule="evenodd" fill="#EDC8AB" d="M240.517,317.313c0.653-0.09,0.998,0.125,1.122,0.563
		c3.069,2.133,3.759,5.896,5.604,8.968c12.075,20.097,24.066,43.343,30.27,70.068c-2.733-2.133-2.333-5.89-3.363-8.969
		c-3.679-10.996-10.414-22.688-16.256-34.753c-4.166-8.606-8.339-17.238-12.893-25.785c-1.613-3.029-3.316-5.58-4.484-8.408
		C239.519,318.584,240.437,317.977,240.517,317.313z"/>
	<path fill-rule="evenodd" clip-rule="evenodd" fill="#EDC8AB" d="M265.181,406.44c-0.271-1.766,2.57-0.42,2.803-1.682
		c-2.705-13.938-8.614-26.083-13.453-38.117c-2.435-6.051-4.996-12.03-7.848-17.938c-2.684-5.559-6.599-10.703-8.408-16.815
		c-0.091-0.652,0.124-0.997,0.562-1.121c0.5-0.346,1.002-0.678,1.121,0c10.204,14.086,15.699,32.879,24.103,48.768
		c0.463,1.583-0.791,1.451-0.56,2.801c1.441,2.76,3.58,8.69,5.043,13.455C269.712,399.591,273.188,408.941,265.181,406.44z"/>
	<path fill-rule="evenodd" clip-rule="evenodd" fill="#EDC8AB" d="M269.665,361.037c0.905-0.159,0.966,0.529,1.682,0.559
		c3.589,9.502,11.005,21.395,10.65,35.315c-0.035,1.378,0.925,4.424-1.683,4.483C280.406,386.513,274.566,372.786,269.665,361.037z"
		/>
	<path fill-rule="evenodd" clip-rule="evenodd" fill="#EDC8AB" d="M227.625,324.039c8.72,7.35,11.548,20.59,18.498,29.71
		c0.308,1.243-1.071,0.798-1.123,1.683c3.526,6.005,6.264,12.793,8.97,19.619c-1.333-0.492-1.93-2.715-2.804-3.926
		c-4.823-6.676-7.772-16.041-11.771-24.103c-3.069-6.188-5.991-11.614-9.528-17.377
		C228.827,327.953,226.522,326.346,227.625,324.039z"/>
</g>
</svg>
