<?xml version="1.0" encoding="utf-8"?>
<!-- Generator: Adobe Illustrator 15.0.0, SVG Export Plug-In . SVG Version: 6.00 Build 0)  -->
<!DOCTYPE svg PUBLIC "-//W3C//DTD SVG 1.1//EN" "http://www.w3.org/Graphics/SVG/1.1/DTD/svg11.dtd">
<svg version="1.1" id="שכבה_1" xmlns="http://www.w3.org/2000/svg" xmlns:xlink="http://www.w3.org/1999/xlink" x="0px" y="0px"
	 width="566.93px" height="566.93px" viewBox="0 0 566.93 566.93" enable-background="new 0 0 566.93 566.93" xml:space="preserve">
<g opacity="0.3">
	<g>
		<defs>
			<rect id="SVGID_1_" x="84.942" y="142.609" width="397.534" height="330.391"/>
		</defs>
		<clipPath id="SVGID_2_">
			<use xlink:href="#SVGID_1_"  overflow="visible"/>
		</clipPath>
		<path clip-path="url(#SVGID_2_)" fill="#010101" d="M440.896,210.26l-43.171,16.513c2.405-10.895,1.42-24.717-1.506-32.375
			c-4.875-12.751-19.169-19.128-31.922-14.254c-12.743,4.882-19.127,19.159-14.243,31.911c2.93,7.665,11.413,18.623,20.479,25.114
			l-43.158,16.516l16.132,42.176c6.186-9.862,18.275-19.497,26.56-22.663c12.753-4.885,27.031,1.497,31.909,14.248
			c4.877,12.752-1.493,27.036-14.244,31.913c-8.282,3.165-23.724,4.068-34.912,0.85l16.138,42.18l113.526-43.425L440.896,210.26z"/>
		<path clip-path="url(#SVGID_2_)" fill="#010101" d="M273.347,268.783c-11.116,0.129-24.347-3.587-31.23-7.975
			c-11.506-7.342-14.886-22.62-7.548-34.126c7.344-11.513,22.62-14.889,34.129-7.555c6.878,4.39,15.835,14.818,20.404,24.963
			l24.804-38.897l-98.128-62.584L150.42,245.081l36.432,23.239c-9.968,4.633-20.102,13.405-24.409,20.159
			c-7.338,11.509-3.955,26.786,7.554,34.129c11.506,7.337,26.78,3.953,34.121-7.554c4.312-6.752,7.989-19.634,7.989-30.625
			l36.441,23.238L273.347,268.783z"/>
		<path clip-path="url(#SVGID_2_)" fill="#010101" d="M255.963,355.435c-7.203-4.595-21.386-8.504-32.798-7.969l25.261-39.613
			l-36.328-23.174c-0.06,10.938-3.708,23.671-7.98,30.375c-7.341,11.507-22.615,14.892-34.121,7.554
			c-11.509-7.343-14.893-22.62-7.553-34.129c4.278-6.703,14.288-15.381,24.176-20.044l-36.32-23.169L84.942,347.742l98.127,62.582
			l25.261-39.604c4.325,10.577,13.849,21.79,21.055,26.381c11.509,7.341,26.785,3.962,34.123-7.545
			C270.848,378.048,267.469,362.771,255.963,355.435"/>
		<path clip-path="url(#SVGID_2_)" fill="#010101" d="M308.485,346.155c10.962-4.019,22.987-14.037,27.785-21.562
			c7.34-11.506,3.96-26.787-7.546-34.123c-11.513-7.35-26.783-3.966-34.124,7.543c-4.796,7.523-8.818,22.645-7.841,34.288
			l-38.203-24.366l-25.209,39.53c11.385-0.49,25.451,3.394,32.616,7.966c11.506,7.34,14.885,22.616,7.544,34.124
			c-7.337,11.507-22.612,14.886-34.122,7.547c-7.165-4.576-16.62-15.689-20.977-26.217L183.2,410.414l98.128,62.585l65.358-102.472
			L308.485,346.155z"/>
	</g>
</g>
<path fill="#EC3E95" d="M449.572,208.091l-43.17,16.515c2.405-10.894,1.42-24.719-1.506-32.376
	c-4.876-12.75-19.169-19.127-31.921-14.255c-12.743,4.884-19.129,19.161-14.245,31.914c2.93,7.662,11.415,18.622,20.479,25.112
	l-43.159,16.516l16.133,42.176c6.185-9.861,18.275-19.497,26.56-22.664c12.753-4.883,27.032,1.498,31.909,14.251
	c4.877,12.75-1.494,27.034-14.245,31.911c-8.282,3.165-23.723,4.068-34.911,0.85l16.137,42.18l113.527-43.424L449.572,208.091z"/>
<path fill="#652E8D" d="M282.024,266.617c-11.117,0.127-24.347-3.589-31.23-7.977c-11.506-7.342-14.886-22.62-7.548-34.127
	c7.344-11.513,22.62-14.887,34.129-7.55c6.878,4.385,15.836,14.815,20.403,24.959l24.804-38.895l-98.128-62.586l-65.357,102.471
	l36.432,23.239c-9.967,4.634-20.101,13.405-24.408,20.159c-7.339,11.509-3.955,26.786,7.554,34.129
	c11.506,7.338,26.78,3.954,34.121-7.554c4.312-6.752,7.99-19.634,7.99-30.625l36.44,23.238L282.024,266.617z"/>
<path fill="#F99D1E" d="M264.64,353.267c-7.203-4.595-21.385-8.504-32.797-7.969l25.262-39.613l-36.329-23.174
	c-0.06,10.938-3.708,23.671-7.98,30.375c-7.341,11.508-22.615,14.892-34.121,7.554c-11.509-7.343-14.893-22.62-7.553-34.129
	c4.278-6.703,14.289-15.381,24.176-20.044l-36.32-23.169L93.62,345.575l98.127,62.58l25.262-39.604
	c4.325,10.577,13.849,21.791,21.055,26.382c11.509,7.34,26.785,3.961,34.123-7.546C279.526,375.88,276.146,360.604,264.64,353.267"
	/>
<path fill="#2E68B2" d="M317.162,343.988c10.963-4.02,22.988-14.038,27.785-21.563c7.341-11.506,3.961-26.787-7.546-34.123
	c-11.513-7.35-26.782-3.965-34.123,7.543c-4.797,7.523-8.818,22.645-7.842,34.289l-38.203-24.367l-25.209,39.53
	c11.384-0.49,25.451,3.394,32.615,7.967c11.506,7.339,14.886,22.615,7.545,34.123c-7.337,11.507-22.612,14.886-34.122,7.547
	c-7.165-4.575-16.62-15.688-20.977-26.217l-25.209,39.528l98.128,62.585l65.359-102.472L317.162,343.988z"/>
</svg>
